<svg xmlns="http://www.w3.org/2000/svg" width="17.065" height="17.066" viewBox="0 0 17.065 17.066">
  <path id="ic-contact" d="M15.689,12.723,13.916,11.54l-1.577-1.051a.7.7,0,0,0-.938.152L10.425,11.9a.7.7,0,0,1-.887.184A11.36,11.36,0,0,1,6.366,9.635,11.442,11.442,0,0,1,3.921,6.463.7.7,0,0,1,4.1,5.575L5.359,4.6a.7.7,0,0,0,.152-.938L4.493,2.133,3.278.311A.7.7,0,0,0,2.338.1L.936.94A1.712,1.712,0,0,0,.159,1.946c-.383,1.4-.46,4.479,4.478,9.417s8.02,4.861,9.417,4.478a1.712,1.712,0,0,0,1.006-.777l.841-1.4A.7.7,0,0,0,15.689,12.723Z" transform="translate(0.511 0.554)" fill="#fff" stroke="#fff" stroke-width="1"/>
</svg>
