<svg xmlns="http://www.w3.org/2000/svg" width="17.4" height="20.88" viewBox="0 0 17.4 20.88">
  <g id="ic-clipboard" transform="translate(-34.135)">
    <g id="Group_714" data-name="Group 714" transform="translate(39.79)">
      <g id="Group_713" data-name="Group 713" transform="translate(0)">
        <path id="Path_1410" data-name="Path 1410" d="M150.285,0h-4.35a.873.873,0,0,0-.87.87V3.045a.873.873,0,0,0,.87.87h4.35a.873.873,0,0,0,.87-.87V.87A.873.873,0,0,0,150.285,0Z" transform="translate(-145.065)" fill="#345f94"/>
      </g>
    </g>
    <g id="Group_716" data-name="Group 716" transform="translate(34.135 1.74)">
      <g id="Group_715" data-name="Group 715" transform="translate(0)">
        <path id="Path_1411" data-name="Path 1411" d="M49.8,34.135h-2.61v1.74a1.746,1.746,0,0,1-1.74,1.74h-5.22a1.746,1.746,0,0,1-1.74-1.74v-1.74h-2.61a1.745,1.745,0,0,0-1.74,1.74v15.66a1.745,1.745,0,0,0,1.74,1.74H49.8a1.745,1.745,0,0,0,1.74-1.74V35.875A1.745,1.745,0,0,0,49.8,34.135Zm-12.18,6.96h5.22v1.74h-5.22Zm8.7,8.7h-8.7v-1.74h8.7Zm1.74-3.48H37.615v-1.74h10.44Z" transform="translate(-34.135 -34.135)" fill="#345f94"/>
      </g>
    </g>
  </g>
</svg>
