<svg id="ic-check" xmlns="http://www.w3.org/2000/svg" width="19.262" height="19" viewBox="0 0 19.262 19">
  <circle id="Ellipse_64" data-name="Ellipse 64" cx="9.5" cy="9.5" r="9.5" fill="#0cb5b5"/>
  <path id="Path_966" data-name="Path 966" d="M69.522,29.1,61,37.923l.015.949h.391l9.23-7.438A9.8,9.8,0,0,0,69.522,29.1Z" transform="translate(-51.815 -24.718)" fill="#37a18e"/>
  <path id="Path_967" data-name="Path 967" d="M39.457,15.831l-1.7-1.686a.609.609,0,0,0-.843,0L29.64,21.658l-3.147-3.1a.609.609,0,0,0-.843,0l-1.506,1.491a.591.591,0,0,0,0,.828l5.029,4.984a.828.828,0,0,0,.994,0l9.29-9.185a.609.609,0,0,0,0-.843Z" transform="translate(-20.365 -11.871)" fill="#f2f1ef"/>
</svg>
