<svg id="ic-digital" xmlns="http://www.w3.org/2000/svg" width="39" height="39" viewBox="0 0 39 39">
  <path id="Path_911" data-name="Path 911" d="M64.214,52.678a1.145,1.145,0,0,1-.812-.336l-3.328-3.327A1.149,1.149,0,0,1,61.7,47.389l2.543,2.543A15.958,15.958,0,0,1,74.77,46a1.149,1.149,0,0,1,0,2.3,13.694,13.694,0,0,0-9.744,4.043A1.145,1.145,0,0,1,64.214,52.678Z" transform="translate(-55.162 -42.477)" fill="#61729b"/>
  <path id="Path_912" data-name="Path 912" d="M48.187,257.2a1.149,1.149,0,0,1-.812-1.961l2.558-2.558A15.957,15.957,0,0,1,46,242.149a1.149,1.149,0,1,1,2.3,0,13.694,13.694,0,0,0,4.043,9.744,1.149,1.149,0,0,1,0,1.625L49,256.86A1.145,1.145,0,0,1,48.187,257.2Z" transform="translate(-42.477 -222.54)" fill="#61729b"/>
  <path id="Path_913" data-name="Path 913" d="M242.149,385.5a1.149,1.149,0,1,1,0-2.3,13.694,13.694,0,0,0,9.744-4.043,1.149,1.149,0,0,1,1.625,0l3.327,3.327a1.149,1.149,0,1,1-1.625,1.625l-2.543-2.543A15.958,15.958,0,0,1,242.149,385.5Z" transform="translate(-222.54 -349.806)" fill="#47568c"/>
  <path id="Path_914" data-name="Path 914" d="M384.35,75.887a1.149,1.149,0,0,1-1.149-1.149,13.694,13.694,0,0,0-4.043-9.744,1.149,1.149,0,0,1,0-1.625l3.33-3.33a1.149,1.149,0,0,1,1.625,1.625l-2.546,2.546A15.958,15.958,0,0,1,385.5,74.738,1.149,1.149,0,0,1,384.35,75.887Z" transform="translate(-349.805 -55.129)" fill="#47568c"/>
  <circle id="Ellipse_60" data-name="Ellipse 60" cx="4" cy="4" r="4" fill="#a5e887"/>
  <ellipse id="Ellipse_61" data-name="Ellipse 61" cx="3.5" cy="4" rx="3.5" ry="4" transform="translate(32)" fill="#00cc76"/>
  <ellipse id="Ellipse_62" data-name="Ellipse 62" cx="4" cy="3.5" rx="4" ry="3.5" transform="translate(0 32)" fill="#a5e887"/>
  <circle id="Ellipse_63" data-name="Ellipse 63" cx="3.5" cy="3.5" r="3.5" transform="translate(32 32)" fill="#00cc76"/>
  <path id="Path_915" data-name="Path 915" d="M118.176,106a7.336,7.336,0,0,0-2.25.957s-1.4-.359-1.462-.342a11.519,11.519,0,0,0-7.721,9.726s.652.761.652,1.149-.652,1.149-.652,1.149a11.519,11.519,0,0,0,7.721,9.725l1.475-.164a7.093,7.093,0,0,0,2.236.779,6.764,6.764,0,0,0,2.153-.763l1.559.147a11.519,11.519,0,0,0,7.721-9.725s-.824-.761-.824-1.149.824-1.149.824-1.149a11.519,11.519,0,0,0-7.721-9.726l-1.414.208A6.988,6.988,0,0,0,118.176,106Z" transform="translate(-98.568 -97.881)" fill="#4bb9ec"/>
  <path id="Path_916" data-name="Path 916" d="M266.609,117.489c0-.388.824-1.149.824-1.149a11.519,11.519,0,0,0-7.721-9.726l-1.414.208A6.988,6.988,0,0,0,256,106v22.979a6.764,6.764,0,0,0,2.153-.763l1.559.147a11.519,11.519,0,0,0,7.721-9.725S266.609,117.877,266.609,117.489Z" transform="translate(-236.391 -97.881)" fill="#0095ff"/>
  <path id="Path_917" data-name="Path 917" d="M106,242.149q0,.582.057,1.149h22.864q.057-.567.057-1.149T128.922,241H106.057Q106,241.567,106,242.149Z" transform="translate(-97.881 -222.54)" fill="#d5e8fe"/>
  <path id="Path_918" data-name="Path 918" d="M267.432,241H256v2.3h11.432q.057-.567.057-1.149T267.432,241Z" transform="translate(-236.391 -222.54)" fill="#b5dbff"/>
  <path id="Path_919" data-name="Path 919" d="M258.169,108.866a29.732,29.732,0,0,1,0,17.247c-.741,2.054-1.623,2.866-2.169,2.866a11.441,11.441,0,0,0,3.711-.615c1.343-2.68,2.033-6.792,2.033-10.874s-.69-8.194-2.033-10.874A11.441,11.441,0,0,0,256,106C256.546,106,257.428,106.812,258.169,108.866Z" transform="translate(-236.391 -97.881)" fill="#d5e8fe"/>
  <path id="Path_920" data-name="Path 920" d="M184.576,126.113a29.734,29.734,0,0,1,0-17.247c.741-2.054,1.623-2.866,2.169-2.866a11.443,11.443,0,0,0-3.711.615C181.69,109.3,181,113.407,181,117.489s.69,8.194,2.033,10.874a11.443,11.443,0,0,0,3.711.615C186.2,128.979,185.317,128.167,184.576,126.113Z" transform="translate(-167.136 -97.881)" fill="#edf5ff"/>
</svg>
