<svg xmlns="http://www.w3.org/2000/svg" width="39.155" height="42.6" viewBox="0 0 39.155 42.6">
  <g id="ic-food" transform="translate(-20.701)">
    <circle id="Ellipse_56" data-name="Ellipse 56" cx="19.578" cy="19.578" r="19.578" transform="translate(20.701 0)" fill="#f7b239"/>
    <circle id="Ellipse_57" data-name="Ellipse 57" cx="12.886" cy="12.886" r="12.886" transform="translate(27.392 6.691)" fill="#e09b2d"/>
    <path id="Path_885" data-name="Path 885" d="M398.116,351.972a1.732,1.732,0,1,1-3.346.9l-2.91-10.861a1.732,1.732,0,1,1,3.346-.9Z" transform="translate(-340.223 -311.553)" fill="#f24c8f"/>
    <g id="Group_638" data-name="Group 638" transform="translate(25.527 16.006)">
      <rect id="Rectangle_305" data-name="Rectangle 305" width="1.541" height="15.179" transform="matrix(-0.966, -0.259, 0.259, -0.966, 1.488, 15.06)" fill="#ccc"/>
      <rect id="Rectangle_306" data-name="Rectangle 306" width="8.257" height="1.541" transform="matrix(-0.259, -0.966, 0.966, -0.259, 26.591, 12.524)" fill="#ccc"/>
    </g>
    <path id="Path_886" data-name="Path 886" d="M93.99,68.394c2.462.659,3.583,4.458,2.5,8.483s-3.514,5.134-5.976,4.474S86.5,78.514,87.58,74.488,91.529,67.734,93.99,68.394Z" transform="translate(-60.996 -62.613)" fill="#e6e6e6"/>
    <path id="Path_887" data-name="Path 887" d="M39.728,339.887a1.732,1.732,0,0,1,1.224,2.121l-2.909,10.861a1.732,1.732,0,0,1-3.347-.9l2.91-10.86A1.732,1.732,0,0,1,39.728,339.887Z" transform="translate(-12.776 -311.553)" fill="#f24c8f"/>
    <path id="Path_888" data-name="Path 888" d="M304.419,85.988l-2.462-9.19a.668.668,0,0,0-.837-.467.686.686,0,0,0-.446.84l1.963,7.325a1.027,1.027,0,0,1-.726,1.258h0a1.027,1.027,0,0,1-1.258-.726l-1.97-7.353a.668.668,0,0,0-.837-.467.687.687,0,0,0-.446.84l1.963,7.326a1.027,1.027,0,0,1-.726,1.258h0a1.027,1.027,0,0,1-1.258-.726l-1.97-7.353a.667.667,0,0,0-.837-.467.686.686,0,0,0-.446.839l2.455,9.162a4.062,4.062,0,0,0,3.913,3.01,4.058,4.058,0,0,0,3.926-5.109Z" transform="translate(-250.652 -69.954)" fill="#e6e6e6"/>
  </g>
</svg>
