<svg xmlns="http://www.w3.org/2000/svg" width="40.856" height="37.813" viewBox="0 0 40.856 37.813">
  <g id="ic-file" transform="translate(0 -18.51)">
    <path id="Path_921" data-name="Path 921" d="M10.473,56.323H.822A.822.822,0,0,1,0,55.5V19.332a.822.822,0,0,1,.822-.822h9.65a.822.822,0,0,1,.822.822V55.5a.822.822,0,0,1-.822.822Z" transform="translate(0)" fill="#fd8087"/>
    <path id="Path_922" data-name="Path 922" d="M109.861,18.51H107.4a.822.822,0,0,1,.822.822V55.5a.822.822,0,0,1-.822.822h2.466a.822.822,0,0,0,.822-.822V19.332A.822.822,0,0,0,109.861,18.51Z" transform="translate(-98.567 0)" fill="#fe646f"/>
    <path id="Path_923" data-name="Path 923" d="M38.97,75.108H34.926a.822.822,0,0,1-.822-.822V60.258a.822.822,0,0,1,.822-.822H38.97a.822.822,0,0,1,.822.822V74.286A.822.822,0,0,1,38.97,75.108Z" transform="translate(-31.3 -37.562)" fill="#efedef"/>
    <path id="Path_924" data-name="Path 924" d="M84.942,59.436H83.3a.822.822,0,0,1,.822.822V74.286a.822.822,0,0,1-.822.822h1.644a.822.822,0,0,0,.822-.822V60.258a.822.822,0,0,0-.822-.822Z" transform="translate(-76.45 -37.562)" fill="#d7d0d6"/>
    <g id="Group_646" data-name="Group 646" transform="translate(2.187 23.849)">
      <path id="Path_925" data-name="Path 925" d="M27.219,87.161A.617.617,0,0,1,27,85.968L33.51,83.5a.617.617,0,0,1,.437,1.153l-6.51,2.466a.615.615,0,0,1-.218.04Z" transform="translate(-26.602 -83.462)" fill="#b5adb6"/>
    </g>
    <path id="Path_926" data-name="Path 926" d="M27.219,135.954A.617.617,0,0,1,27,134.761l6.51-2.466a.617.617,0,1,1,.437,1.153l-6.51,2.466a.615.615,0,0,1-.218.04Z" transform="translate(-24.415 -104.394)" fill="#b5adb6"/>
    <g id="Group_647" data-name="Group 647" transform="translate(2.187 31.872)">
      <path id="Path_927" data-name="Path 927" d="M27.219,184.749A.617.617,0,0,1,27,183.555l6.51-2.466a.617.617,0,0,1,.437,1.153l-6.51,2.466a.616.616,0,0,1-.218.04Z" transform="translate(-26.602 -181.049)" fill="#b5adb6"/>
    </g>
    <path id="Path_928" data-name="Path 928" d="M185.275,56.323h-9.651a.822.822,0,0,1-.822-.822V19.332a.822.822,0,0,1,.822-.822h9.65a.822.822,0,0,1,.822.822V55.5A.822.822,0,0,1,185.275,56.323Z" transform="translate(-160.432)" fill="#8ac9fe"/>
    <path id="Path_929" data-name="Path 929" d="M284.664,18.51H282.2a.822.822,0,0,1,.822.822V55.5a.822.822,0,0,1-.822.822h2.466a.822.822,0,0,0,.822-.822V19.332A.822.822,0,0,0,284.664,18.51Z" transform="translate(-259 0)" fill="#60b7ff"/>
    <path id="Path_930" data-name="Path 930" d="M360.078,56.323h-9.65a.822.822,0,0,1-.822-.822V19.332a.822.822,0,0,1,.822-.822h9.65a.822.822,0,0,1,.822.822V55.5A.822.822,0,0,1,360.078,56.323Z" transform="translate(-320.866)" fill="#fed402"/>
    <path id="Path_931" data-name="Path 931" d="M459.466,18.51H457a.822.822,0,0,1,.822.822V55.5a.822.822,0,0,1-.822.822h2.466a.822.822,0,0,0,.822-.822V19.332A.822.822,0,0,0,459.466,18.51Z" transform="translate(-419.432 0)" fill="#fac600"/>
    <g id="Group_648" data-name="Group 648" transform="translate(3.323 21.874)">
      <path id="Path_932" data-name="Path 932" d="M388.575,75.108h-4.044a.822.822,0,0,1-.822-.822V60.258a.822.822,0,0,1,.822-.822h4.044a.822.822,0,0,1,.822.822V74.286A.822.822,0,0,1,388.575,75.108Z" transform="translate(-355.489 -59.436)" fill="#efedef"/>
      <path id="Path_933" data-name="Path 933" d="M45.068,362.214c0,1.511-.4,2.736-1.914,2.736a2.736,2.736,0,0,1,0-5.471C44.665,359.478,45.068,360.7,45.068,362.214Z" transform="translate(-40.419 -334.813)" fill="#efedef"/>
      <path id="Path_934" data-name="Path 934" d="M219.871,362.214c0,1.511-.4,2.736-1.914,2.736a2.736,2.736,0,1,1,0-5.471C219.468,359.478,219.871,360.7,219.871,362.214Z" transform="translate(-200.852 -334.813)" fill="#efedef"/>
      <path id="Path_935" data-name="Path 935" d="M213.772,75.108h-4.044a.822.822,0,0,1-.822-.822V60.258a.822.822,0,0,1,.822-.822h4.044a.822.822,0,0,1,.822.822V74.286A.822.822,0,0,1,213.772,75.108Z" transform="translate(-195.055 -59.436)" fill="#efedef"/>
    </g>
    <path id="Path_936" data-name="Path 936" d="M434.547,59.436H432.9a.822.822,0,0,1,.822.822V74.286a.822.822,0,0,1-.822.822h1.644a.822.822,0,0,0,.822-.822V60.258a.822.822,0,0,0-.822-.822Z" transform="translate(-397.316 -37.562)" fill="#d7d0d6"/>
    <path id="Path_937" data-name="Path 937" d="M259.744,59.436H258.1a.822.822,0,0,1,.822.822V74.286a.822.822,0,0,1-.822.822h1.644a.822.822,0,0,0,.822-.822V60.258a.822.822,0,0,0-.822-.822Z" transform="translate(-236.883 -37.562)" fill="#d7d0d6"/>
    <path id="Path_938" data-name="Path 938" d="M394.673,362.214c0,1.511-.4,2.736-1.914,2.736a2.736,2.736,0,0,1,0-5.471C394.27,359.478,394.673,360.7,394.673,362.214Z" transform="translate(-357.962 -312.939)" fill="#efedef"/>
    <path id="Path_939" data-name="Path 939" d="M414.124,359.478a2.734,2.734,0,0,0-.822.126,2.736,2.736,0,0,1,0,5.219,2.736,2.736,0,1,0,.822-5.345Z" transform="translate(-379.326 -312.939)" fill="#d7d0d6"/>
    <path id="Path_940" data-name="Path 940" d="M239.322,359.478a2.734,2.734,0,0,0-.822.126,2.736,2.736,0,0,1,0,5.219,2.736,2.736,0,1,0,.822-5.345Z" transform="translate(-218.894 -312.939)" fill="#d7d0d6"/>
    <path id="Path_941" data-name="Path 941" d="M64.52,359.478a2.735,2.735,0,0,0-.822.126,2.736,2.736,0,0,1,0,5.219,2.736,2.736,0,1,0,.822-5.345Z" transform="translate(-58.462 -312.939)" fill="#d7d0d6"/>
    <g id="Group_649" data-name="Group 649" transform="translate(16.556 23.849)">
      <path id="Path_942" data-name="Path 942" d="M202.018,87.161a.617.617,0,0,1-.218-1.193l6.51-2.466a.617.617,0,1,1,.437,1.153l-6.51,2.466A.615.615,0,0,1,202.018,87.161Z" transform="translate(-201.401 -83.462)" fill="#b5adb6"/>
    </g>
    <g id="Group_650" data-name="Group 650" transform="translate(16.556 27.86)">
      <path id="Path_943" data-name="Path 943" d="M202.018,135.954a.617.617,0,0,1-.218-1.193l6.51-2.466a.617.617,0,1,1,.437,1.153l-6.51,2.466A.616.616,0,0,1,202.018,135.954Z" transform="translate(-201.401 -132.255)" fill="#b5adb6"/>
    </g>
    <g id="Group_651" data-name="Group 651" transform="translate(16.556 31.872)">
      <path id="Path_944" data-name="Path 944" d="M202.018,184.749a.617.617,0,0,1-.218-1.193l6.51-2.466a.617.617,0,1,1,.437,1.153l-6.51,2.466A.616.616,0,0,1,202.018,184.749Z" transform="translate(-201.401 -181.049)" fill="#b5adb6"/>
    </g>
    <g id="Group_652" data-name="Group 652" transform="translate(30.925 23.849)">
      <path id="Path_945" data-name="Path 945" d="M376.814,87.161a.617.617,0,0,1-.219-1.193l6.51-2.466a.617.617,0,1,1,.437,1.153l-6.51,2.466A.616.616,0,0,1,376.814,87.161Z" transform="translate(-376.197 -83.462)" fill="#b5adb6"/>
    </g>
    <g id="Group_653" data-name="Group 653" transform="translate(30.925 27.86)">
      <path id="Path_946" data-name="Path 946" d="M376.814,135.954a.617.617,0,0,1-.219-1.193l6.51-2.466a.617.617,0,1,1,.437,1.153l-6.51,2.466A.616.616,0,0,1,376.814,135.954Z" transform="translate(-376.197 -132.255)" fill="#b5adb6"/>
    </g>
    <g id="Group_654" data-name="Group 654" transform="translate(30.925 31.872)">
      <path id="Path_947" data-name="Path 947" d="M376.814,184.749a.617.617,0,0,1-.219-1.193l6.51-2.466a.617.617,0,1,1,.437,1.153l-6.51,2.466A.617.617,0,0,1,376.814,184.749Z" transform="translate(-376.197 -181.049)" fill="#b5adb6"/>
    </g>
  </g>
</svg>
