<svg xmlns="http://www.w3.org/2000/svg" width="35" height="33" viewBox="0 0 35 33">
  <g id="ic-instagram" transform="translate(0.382)">
    <g id="instagram_1_" data-name="instagram (1)" transform="translate(5.271 4.621)">
      <path id="Path_162" data-name="Path 162" d="M11.759,5.838a5.913,5.913,0,1,0,5.913,5.913A5.913,5.913,0,0,0,11.759,5.838Zm0,9.751A3.838,3.838,0,1,1,15.6,11.751,3.837,3.837,0,0,1,11.759,15.589Z" transform="translate(0.378 0.376)" fill="#8675cf"/>
      <path id="Path_163" data-name="Path 163" d="M17.135.077c-2.232-.1-7.762-.1-10,0A7.251,7.251,0,0,0,2.047,2.039C-.286,4.373.012,7.517.012,12.128c0,4.719-.263,7.791,2.035,10.089,2.343,2.342,5.532,2.035,10.089,2.035,4.675,0,6.289,0,7.942-.637,2.248-.873,3.944-2.881,4.11-6.49.105-2.233.1-7.762,0-10C23.988,2.87,21.7.287,17.135.077Zm3.534,20.6c-1.53,1.53-3.652,1.393-8.561,1.393-5.055,0-7.082.075-8.561-1.408-1.7-1.7-1.4-4.418-1.4-8.546,0-5.586-.573-9.609,5.033-9.9,1.288-.045,1.667-.061,4.91-.061l.045.03c5.388,0,9.615-.564,9.869,5.041.058,1.279.071,1.663.071,4.9C22.077,17.124,22.172,19.163,20.668,20.674Z" transform="translate(0 -0.001)" fill="#8675cf"/>
      <circle id="Ellipse_23" data-name="Ellipse 23" cx="1.532" cy="1.532" r="1.532" transform="translate(17.031 4.171)" fill="#8675cf"/>
    </g>
    <rect id="Rectangle_67" data-name="Rectangle 67" width="35" height="33" transform="translate(-0.382)" fill="none"/>
  </g>
</svg>
