<svg xmlns="http://www.w3.org/2000/svg" width="29" height="21.829" viewBox="0 0 29 21.829">
  <g id="ic-list" transform="translate(0 -7.434)">
    <path id="Path_1417" data-name="Path 1417" d="M34.759,48.787H15.367a1.447,1.447,0,0,1,0-2.894H34.759a1.447,1.447,0,0,1,0,2.894Z" transform="translate(-7.206 -19.909)" fill="#fff"/>
    <path id="Path_1418" data-name="Path 1418" d="M34.759,29.956H15.367a1.447,1.447,0,0,1,0-2.894H34.759a1.447,1.447,0,0,1,0,2.894Z" transform="translate(-7.206 -10.161)" fill="#fff"/>
    <path id="Path_1419" data-name="Path 1419" d="M34.759,11.125H15.367a1.447,1.447,0,0,1,0-2.894H34.759a1.447,1.447,0,0,1,0,2.894Z" transform="translate(-7.206 -0.413)" fill="#fff"/>
    <circle id="Ellipse_69" data-name="Ellipse 69" cx="1.943" cy="1.943" r="1.943" transform="translate(0 7.434)" fill="#fff"/>
    <circle id="Ellipse_70" data-name="Ellipse 70" cx="1.943" cy="1.943" r="1.943" transform="translate(0 16.405)" fill="#fff"/>
    <circle id="Ellipse_71" data-name="Ellipse 71" cx="1.943" cy="1.943" r="1.943" transform="translate(0 25.376)" fill="#fff"/>
  </g>
</svg>
