<svg xmlns="http://www.w3.org/2000/svg" width="39" height="40.014" viewBox="0 0 39 40.014">
  <g id="ic-location" transform="translate(-6.284)">
    <path id="Path_853" data-name="Path 853" d="M362.543,278.184l-3.1-1.748-1.86,7.971,7.912,7.971,1.838,1.035a.605.605,0,0,0,.863-.742L362.812,278.5A.605.605,0,0,0,362.543,278.184Z" transform="translate(-322.951 -254.13)" fill="#ffbe3b"/>
    <path id="Path_854" data-name="Path 854" d="M296.775,250.56l-3.329,7.119L299.8,264.8l6.732,3.793-6.052-15.942Z" transform="translate(-263.991 -230.342)" fill="#ffd45e"/>
    <path id="Path_855" data-name="Path 855" d="M213.577,250.56l-7,3.943-3.631,7.926,3.631,7.926a.6.6,0,0,0,.3-.078L216.6,264.8Z" transform="translate(-180.793 -230.342)" fill="#ffe88c"/>
    <path id="Path_856" data-name="Path 856" d="M88.821,250.56l-6.353,7.119,3.327,7.119,9.729,5.481a.6.6,0,0,0,.3.078V254.5Z" transform="translate(-70.037 -230.342)" fill="#ffd45e"/>
    <path id="Path_857" data-name="Path 857" d="M18.784,250.56,15.758,264.8l-8.57,4.828a.605.605,0,0,1-.863-.742l5.381-14.175a.605.605,0,0,1,.269-.313Z" transform="translate(0 -230.342)" fill="#ffe88c"/>
    <path id="Path_858" data-name="Path 858" d="M247.946,0V30.259a1.208,1.208,0,0,0,1.023-.566s8.2-13,8.2-13A10.9,10.9,0,0,0,247.946,0Z" transform="translate(-222.162)" fill="#fc5e32"/>
    <path id="Path_859" data-name="Path 859" d="M124.635,29.694s6.376-13,6.376-13a13.215,13.215,0,0,0,1.3-5.8C132.312,4.877,128.519,0,123.839,0a10.894,10.894,0,0,0-9.22,16.7s8.2,13,8.2,13a1.213,1.213,0,0,0,1.025.566A.917.917,0,0,0,124.635,29.694Z" transform="translate(-98.055)" fill="#ff7d4a"/>
    <circle id="Ellipse_55" data-name="Ellipse 55" cx="6.052" cy="6.052" r="6.052" transform="translate(19.732 4.841)" fill="#fff"/>
    <path id="Path_860" data-name="Path 860" d="M247.946,90v7.262a3.631,3.631,0,0,0,0-7.262Z" transform="translate(-222.162 -82.738)" fill="#ff7d4a"/>
    <path id="Path_861" data-name="Path 861" d="M207.787,93.631c0-2.005-.542-3.631-1.21-3.631a3.631,3.631,0,1,0,0,7.262C207.246,97.262,207.787,95.637,207.787,93.631Z" transform="translate(-180.793 -82.738)" fill="#ff9a6b"/>
  </g>
</svg>
