<svg xmlns="http://www.w3.org/2000/svg" width="19.59" height="19.687" viewBox="0 0 19.59 19.687">
  <g id="ic-logout" transform="translate(-1.261)">
    <g id="layer4" transform="translate(1.261 0)">
      <path id="LINE-3" d="M39.122.529a2.914,2.914,0,0,0-2.935,2.945v9.56A4.932,4.932,0,0,0,38.5,17.214l4.317,2.7a2.1,2.1,0,0,0,3.161-1.757V16.2h1.959a2.956,2.956,0,0,0,2.945-2.935v-.976a.98.98,0,0,0-.976-.984H49.9a.98.98,0,0,0-.976.984v.976a.965.965,0,0,1-.984.976H45.978V7.385a3.953,3.953,0,0,0-2.394-3.63L40.634,2.49h7.3a.965.965,0,0,1,.984.976V4.45a.981.981,0,0,0,1.961,0V3.466A2.958,2.958,0,0,0,47.937.529H39.122Zm-.976,3.023,4.665,2a1.984,1.984,0,0,1,1.207,1.829V18.162c0,.135-.045.165-.159.094L39.533,15.55a2.955,2.955,0,0,1-1.387-2.516V3.552ZM52.805,5.426A.984.984,0,0,0,52.143,7.1l0,0,.281.281H48.921a.98.98,0,0,0-.984.976v.008a.98.98,0,0,0,.984.976h3.517l-.291.291a.977.977,0,1,0,1.382,1.382l1.908-1.91a.979.979,0,0,0,.017-1.47l-.01-.01L53.528,5.714a.98.98,0,0,0-.723-.289Z" transform="translate(-36.187 -0.529)" fill="#345f94"/>
    </g>
  </g>
</svg>
