<svg xmlns="http://www.w3.org/2000/svg" width="14.267" height="14.269" viewBox="0 0 14.267 14.269">
  <g id="ic-link" transform="translate(-0.039 0)">
    <g id="Group_720" data-name="Group 720" transform="translate(0.039 4.587)">
      <g id="Group_719" data-name="Group 719" transform="translate(0)">
        <path id="Path_1412" data-name="Path 1412" d="M8.744,165.589a3.237,3.237,0,0,0-.559-.449,3.329,3.329,0,0,0-4.149.449l-3.025,3.027a3.329,3.329,0,0,0,4.706,4.71l2.5-2.5a.238.238,0,0,0-.169-.407h-.1a4,4,0,0,1-1.522-.295.238.238,0,0,0-.259.052l-1.8,1.8a1.427,1.427,0,0,1-2.019-2.019l3.036-3.034a1.427,1.427,0,0,1,2.016,0,.975.975,0,0,0,1.336,0,.942.942,0,0,0,0-1.336Z" transform="translate(-0.039 -164.614)" fill="#fff"/>
      </g>
    </g>
    <g id="Group_722" data-name="Group 722" transform="translate(5.318 0)">
      <g id="Group_721" data-name="Group 721">
        <path id="Path_1413" data-name="Path 1413" d="M197.514.975a3.329,3.329,0,0,0-4.708,0l-2.494,2.492a.239.239,0,0,0,.174.407h.088a4,4,0,0,1,1.519.3.238.238,0,0,0,.259-.052l1.79-1.788a1.427,1.427,0,0,1,2.019,2.019l-2.23,2.228-.019.021-.78.775a1.427,1.427,0,0,1-2.016,0,.975.975,0,0,0-1.336,0,.948.948,0,0,0,0,1.341,3.3,3.3,0,0,0,.951.666c.05.024.1.043.15.064s.1.038.152.057.1.036.152.05l.14.038c.1.024.19.043.288.059a3.309,3.309,0,0,0,.354.033h.181l.143-.017c.052,0,.107-.014.169-.014h.081l.164-.024.076-.014.138-.029h.026a3.329,3.329,0,0,0,1.543-.875l3.027-3.027A3.329,3.329,0,0,0,197.514.975Z" transform="translate(-189.502 0)" fill="#fff"/>
      </g>
    </g>
  </g>
</svg>
