<svg xmlns="http://www.w3.org/2000/svg" width="76" height="53" viewBox="0 0 76 53">
  <g id="ic-match" transform="translate(-48 -17)">
    <g id="consensus" transform="translate(64 23.919)">
      <path id="Path_1428" data-name="Path 1428" d="M41.3,20.553H2.124A2.127,2.127,0,0,0,0,22.677V36.945a2.127,2.127,0,0,0,2.124,2.124H4.261v3.347a1.272,1.272,0,0,0,2.141.929l4.571-4.276h7.437L20.6,43.032a1.272,1.272,0,0,0,1.113.657h.018A1.272,1.272,0,0,0,22.845,43l2.029-3.93h7.582l4.571,4.276a1.272,1.272,0,0,0,2.142-.929V39.069H41.3a2.127,2.127,0,0,0,2.124-2.124V22.677A2.127,2.127,0,0,0,41.3,20.553Zm-20.7,12.9a1.272,1.272,0,0,1-.9-.373L17.82,31.193a1.272,1.272,0,1,1,1.8-1.8l.984.984,3.341-3.341a1.272,1.272,0,0,1,1.8,1.8L21.5,33.076a1.272,1.272,0,0,1-.9.373ZM6.489,33.64a1.272,1.272,0,0,1,0-2.545h6.583a1.272,1.272,0,0,1,0,2.545ZM5.216,27.255a1.272,1.272,0,0,1,1.272-1.272h6.583a1.272,1.272,0,1,1,0,2.545H6.489A1.272,1.272,0,0,1,5.216,27.255Zm23.869,5.113A1.272,1.272,0,0,1,30.357,31.1h6.583a1.272,1.272,0,0,1,0,2.545H30.357A1.272,1.272,0,0,1,29.085,32.367Zm0-5.113a1.272,1.272,0,0,1,1.272-1.272h6.583a1.272,1.272,0,0,1,0,2.545H30.357A1.272,1.272,0,0,1,29.085,27.255Z" transform="translate(0 -20.553)" fill="#fff"/>
      <path id="Path_1429" data-name="Path 1429" d="M190.676,397.24l-1.137-.669a4.792,4.792,0,0,1-6.508,0l-1.137.669a3.906,3.906,0,0,0-2.07,3.455v2.652a1.272,1.272,0,0,0,1.272,1.272h10.378a1.272,1.272,0,0,0,1.272-1.272v-2.652A3.906,3.906,0,0,0,190.676,397.24Z" transform="translate(-164.57 -364.676)" fill="#fff"/>
      <path id="Path_1430" data-name="Path 1430" d="M231.632,332.859a2.259,2.259,0,1,0-2.258-2.259A2.261,2.261,0,0,0,231.632,332.859Z" transform="translate(-209.918 -302.234)" fill="#fff"/>
      <path id="Path_1431" data-name="Path 1431" d="M10.854,397.24l-1.137-.669a4.792,4.792,0,0,1-6.508,0l-1.137.669A3.906,3.906,0,0,0,0,400.694v2.652a1.272,1.272,0,0,0,1.272,1.272H11.652a1.272,1.272,0,0,0,1.272-1.272v-2.652a3.906,3.906,0,0,0-2.07-3.455Z" transform="translate(-0.001 -364.676)" fill="#fff"/>
      <path id="Path_1432" data-name="Path 1432" d="M51.81,332.859a2.259,2.259,0,1,0-2.258-2.259A2.261,2.261,0,0,0,51.81,332.859Z" transform="translate(-45.349 -302.234)" fill="#fff"/>
      <path id="Path_1433" data-name="Path 1433" d="M370.5,397.24l-1.137-.669a4.792,4.792,0,0,1-6.508,0l-1.137.669a3.906,3.906,0,0,0-2.07,3.455v2.652a1.272,1.272,0,0,0,1.272,1.272H371.3a1.272,1.272,0,0,0,1.272-1.272v-2.652A3.906,3.906,0,0,0,370.5,397.24Z" transform="translate(-329.139 -364.676)" fill="#fff"/>
      <path id="Path_1434" data-name="Path 1434" d="M411.454,332.859A2.259,2.259,0,1,0,409.2,330.6,2.261,2.261,0,0,0,411.454,332.859Z" transform="translate(-374.487 -302.234)" fill="#fff"/>
    </g>
    <rect id="Rectangle_389" data-name="Rectangle 389" width="76" height="53" transform="translate(48 17)" fill="none"/>
  </g>
</svg>
