<svg xmlns="http://www.w3.org/2000/svg" width="42.034" height="39.813" viewBox="0 0 42.034 39.813">
  <g id="ic-office" transform="translate(-3.75 -2.617)">
    <g id="Group_573" data-name="Group 573" transform="translate(13.66 5.351)">
      <path id="Path_792" data-name="Path 792" d="M144.91,101.319H122.7V67.828a.854.854,0,0,1,.854-.854h20.5a.854.854,0,0,1,.854.854Z" transform="translate(-122.697 -66.974)" fill="#c5d3dd"/>
    </g>
    <g id="Group_574" data-name="Group 574" transform="translate(21.35 32.69)">
      <path id="Path_793" data-name="Path 793" d="M218.4,402.11h-3.417v-6.322a.683.683,0,0,1,.683-.683H218.4Z" transform="translate(-214.984 -395.104)" fill="#62dbfb"/>
    </g>
    <g id="Group_575" data-name="Group 575" transform="translate(24.767 32.69)">
      <path id="Path_794" data-name="Path 794" d="M259.417,402.11H256V395.1h2.734a.683.683,0,0,1,.683.683Z" transform="translate(-256 -395.104)" fill="#01d0fb"/>
    </g>
    <g id="Group_576" data-name="Group 576" transform="translate(35.874 13.809)">
      <path id="Path_795" data-name="Path 795" d="M399.213,194.376H389.3V168.489h9.056a.854.854,0,0,1,.854.854Z" transform="translate(-389.303 -168.489)" fill="#9facba"/>
    </g>
    <g id="Group_577" data-name="Group 577" transform="translate(35.874 13.809)">
      <path id="Path_796" data-name="Path 796" d="M389.3,168.489h2.734v25.887H389.3Z" transform="translate(-389.303 -168.489)" fill="#8d9ca8"/>
    </g>
    <g id="Group_578" data-name="Group 578" transform="translate(3.75 13.809)">
      <path id="Path_797" data-name="Path 797" d="M3.75,194.376h9.91V168.489H4.6a.854.854,0,0,0-.854.854Z" transform="translate(-3.75 -168.489)" fill="#9facba"/>
    </g>
    <g id="Group_579" data-name="Group 579" transform="translate(10.927 13.809)">
      <path id="Path_798" data-name="Path 798" d="M0,0H2.734V25.887H0Z" transform="translate(2.734 25.887) rotate(180)" fill="#8d9ca8"/>
    </g>
    <g id="Group_580" data-name="Group 580" transform="translate(15.369 2.617)">
      <path id="Path_799" data-name="Path 799" d="M162,36.895h-18.8v-1.88a.854.854,0,0,1,.854-.854h17.087a.854.854,0,0,1,.854.854v1.88Z" transform="translate(-143.205 -34.161)" fill="#ffe177"/>
    </g>
    <g id="Group_581" data-name="Group 581" transform="translate(3.75 39.696)">
      <path id="Path_800" data-name="Path 800" d="M44.93,481.921H4.6a.854.854,0,0,1-.854-.854v-1.88H45.784v1.88A.854.854,0,0,1,44.93,481.921Z" transform="translate(-3.75 -479.187)" fill="#3c87d0"/>
    </g>
    <g id="Group_582" data-name="Group 582" transform="translate(43.05 39.696)">
      <path id="Path_801" data-name="Path 801" d="M477.317,481.921h-1.88v-2.734h2.734v1.88A.854.854,0,0,1,477.317,481.921Z" transform="translate(-475.437 -479.187)" fill="#0078c8"/>
    </g>
    <g id="Group_583" data-name="Group 583" transform="translate(31.431 2.617)">
      <path id="Path_802" data-name="Path 802" d="M335.982,34.161v2.734h2.734v-1.88a.854.854,0,0,0-.854-.854Z" transform="translate(-335.982 -34.161)" fill="#ffd15b"/>
    </g>
    <g id="Group_584" data-name="Group 584" transform="translate(33.14 5.351)">
      <path id="Path_803" data-name="Path 803" d="M359.224,101.319H356.49V66.974h1.88a.854.854,0,0,1,.854.854Z" transform="translate(-356.49 -66.974)" fill="#b6c4cf"/>
    </g>
    <g id="Group_585" data-name="Group 585" transform="translate(35.874 11.075)">
      <path id="Path_804" data-name="Path 804" d="M396.991,138.41H389.3v-2.734h6.835a.854.854,0,0,1,.854.854Z" transform="translate(-389.302 -135.676)" fill="#ffc344"/>
    </g>
    <g id="Group_586" data-name="Group 586" transform="translate(5.971 11.075)">
      <path id="Path_805" data-name="Path 805" d="M30.411,138.41H38.1v-2.734H31.265a.854.854,0,0,0-.854.854Z" transform="translate(-30.411 -135.676)" fill="#ffc344"/>
    </g>
    <g id="Group_588" data-name="Group 588" transform="translate(39.12 16.372)">
      <g id="Group_587" data-name="Group 587">
        <path id="Path_806" data-name="Path 806" d="M431,204.72h-2.05a.683.683,0,0,1-.683-.683v-4.1a.683.683,0,0,1,.683-.683H431a.683.683,0,0,1,.684.683v4.1A.683.683,0,0,1,431,204.72Z" transform="translate(-428.268 -199.252)" fill="#c8effe"/>
      </g>
    </g>
    <g id="Group_590" data-name="Group 590" transform="translate(39.12 24.489)">
      <g id="Group_589" data-name="Group 589">
        <path id="Path_807" data-name="Path 807" d="M431,302.133h-2.05a.683.683,0,0,1-.683-.683v-4.1a.683.683,0,0,1,.683-.683H431a.683.683,0,0,1,.684.683v4.1A.683.683,0,0,1,431,302.133Z" transform="translate(-428.268 -296.665)" fill="#c8effe"/>
      </g>
    </g>
    <g id="Group_592" data-name="Group 592" transform="translate(6.997 16.372)">
      <g id="Group_591" data-name="Group 591">
        <path id="Path_808" data-name="Path 808" d="M43.4,204.72h2.05a.683.683,0,0,0,.683-.683v-4.1a.683.683,0,0,0-.683-.683H43.4a.683.683,0,0,0-.683.683v4.1A.683.683,0,0,0,43.4,204.72Z" transform="translate(-42.716 -199.252)" fill="#c8effe"/>
      </g>
    </g>
    <g id="Group_594" data-name="Group 594" transform="translate(6.997 24.489)">
      <g id="Group_593" data-name="Group 593">
        <path id="Path_809" data-name="Path 809" d="M43.4,302.133h2.05a.683.683,0,0,0,.683-.683v-4.1a.683.683,0,0,0-.683-.683H43.4a.683.683,0,0,0-.683.683v4.1A.683.683,0,0,0,43.4,302.133Z" transform="translate(-42.716 -296.665)" fill="#c8effe"/>
      </g>
    </g>
    <g id="Group_604" data-name="Group 604" transform="translate(16.224 8.085)">
      <g id="Group_595" data-name="Group 595">
        <path id="Path_810" data-name="Path 810" d="M156.193,105.255h-2.05a.683.683,0,0,1-.683-.683v-4.1a.683.683,0,0,1,.683-.683h2.05a.683.683,0,0,1,.683.683v4.1A.683.683,0,0,1,156.193,105.255Z" transform="translate(-153.459 -99.787)" fill="#dff6fd"/>
      </g>
      <g id="Group_596" data-name="Group 596" transform="translate(6.835)">
        <path id="Path_811" data-name="Path 811" d="M238.226,105.255h-2.05a.683.683,0,0,1-.683-.683v-4.1a.683.683,0,0,1,.683-.683h2.05a.683.683,0,0,1,.683.683v4.1A.684.684,0,0,1,238.226,105.255Z" transform="translate(-235.492 -99.787)" fill="#dff6fd"/>
      </g>
      <g id="Group_597" data-name="Group 597" transform="translate(13.67)">
        <path id="Path_812" data-name="Path 812" d="M320.258,105.255h-2.05a.683.683,0,0,1-.683-.683v-4.1a.683.683,0,0,1,.683-.683h2.05a.683.683,0,0,1,.683.683v4.1A.683.683,0,0,1,320.258,105.255Z" transform="translate(-317.524 -99.787)" fill="#dff6fd"/>
      </g>
      <g id="Group_598" data-name="Group 598" transform="translate(0 8.202)">
        <path id="Path_813" data-name="Path 813" d="M156.193,203.694h-2.05a.683.683,0,0,1-.683-.683v-4.1a.683.683,0,0,1,.683-.683h2.05a.683.683,0,0,1,.683.683v4.1A.683.683,0,0,1,156.193,203.694Z" transform="translate(-153.459 -198.226)" fill="#dff6fd"/>
      </g>
      <g id="Group_599" data-name="Group 599" transform="translate(6.835 8.202)">
        <path id="Path_814" data-name="Path 814" d="M238.226,203.694h-2.05a.683.683,0,0,1-.683-.683v-4.1a.683.683,0,0,1,.683-.683h2.05a.683.683,0,0,1,.683.683v4.1A.684.684,0,0,1,238.226,203.694Z" transform="translate(-235.492 -198.226)" fill="#dff6fd"/>
      </g>
      <g id="Group_600" data-name="Group 600" transform="translate(13.67 8.202)">
        <path id="Path_815" data-name="Path 815" d="M320.258,203.694h-2.05a.683.683,0,0,1-.683-.683v-4.1a.683.683,0,0,1,.683-.683h2.05a.683.683,0,0,1,.683.683v4.1A.683.683,0,0,1,320.258,203.694Z" transform="translate(-317.524 -198.226)" fill="#dff6fd"/>
      </g>
      <g id="Group_601" data-name="Group 601" transform="translate(0 16.404)">
        <path id="Path_816" data-name="Path 816" d="M156.193,302.133h-2.05a.683.683,0,0,1-.683-.683v-4.1a.683.683,0,0,1,.683-.683h2.05a.683.683,0,0,1,.683.683v4.1A.683.683,0,0,1,156.193,302.133Z" transform="translate(-153.459 -296.665)" fill="#dff6fd"/>
      </g>
      <g id="Group_602" data-name="Group 602" transform="translate(6.835 16.404)">
        <path id="Path_817" data-name="Path 817" d="M238.226,302.133h-2.05a.683.683,0,0,1-.683-.683v-4.1a.683.683,0,0,1,.683-.683h2.05a.683.683,0,0,1,.683.683v4.1A.684.684,0,0,1,238.226,302.133Z" transform="translate(-235.492 -296.665)" fill="#dff6fd"/>
      </g>
      <g id="Group_603" data-name="Group 603" transform="translate(13.67 16.404)">
        <path id="Path_818" data-name="Path 818" d="M320.258,302.133h-2.05a.683.683,0,0,1-.683-.683v-4.1a.683.683,0,0,1,.683-.683h2.05a.683.683,0,0,1,.683.683v4.1A.683.683,0,0,1,320.258,302.133Z" transform="translate(-317.524 -296.665)" fill="#dff6fd"/>
      </g>
    </g>
  </g>
</svg>
