<svg xmlns="http://www.w3.org/2000/svg" width="42.087" height="42.6" viewBox="0 0 42.087 42.6">
  <g id="ic-part-time" transform="translate(-3.082)">
    <g id="Group_640" data-name="Group 640" transform="translate(30.586 4.496)">
      <circle id="Ellipse_58" data-name="Ellipse 58" cx="6.602" cy="6.602" r="6.602" fill="#ffe07d"/>
      <g id="Group_639" data-name="Group 639" transform="translate(0 0)">
        <path id="Path_889" data-name="Path 889" d="M336.175,65.839a6.6,6.6,0,1,1,9.269-9.269,6.6,6.6,0,0,0-9.269,9.269Z" transform="translate(-333.646 -54.042)" fill="#ffd064"/>
        <path id="Path_890" data-name="Path 890" d="M390.141,86.349a5.5,5.5,0,0,1-1.39-.644.412.412,0,0,1-.083-.382.577.577,0,0,1,.377-.456,1.07,1.07,0,0,1,.984.152.643.643,0,1,0,.822-.988,2.227,2.227,0,0,0-.891-.436v-.175a.643.643,0,1,0-1.286,0v.216h0a1.849,1.849,0,0,0-1.27,1.449,1.657,1.657,0,0,0,.553,1.632,6.389,6.389,0,0,0,1.756.845.663.663,0,0,1,.488.786.894.894,0,0,1-.887.754,1.53,1.53,0,0,1-1.111-.29.643.643,0,0,0-.7,1.076,2.628,2.628,0,0,0,1.176.47v.2a.643.643,0,1,0,1.286,0v-.264a2.212,2.212,0,0,0,1.508-1.731A1.954,1.954,0,0,0,390.141,86.349Z" transform="translate(-382.751 -80.385)" fill="#ffd064"/>
      </g>
    </g>
    <g id="Group_643" data-name="Group 643" transform="translate(3.082)">
      <path id="Path_891" data-name="Path 891" d="M85.894,14.221H68.522a1.583,1.583,0,0,1-1.583-1.583V6.031A6.038,6.038,0,0,1,72.97,0h8.475a6.038,6.038,0,0,1,6.031,6.031v6.606a1.583,1.583,0,0,1-1.583,1.583ZM70.105,11.055H84.311V6.031a2.869,2.869,0,0,0-2.865-2.865H72.97a2.869,2.869,0,0,0-2.865,2.865Z" transform="translate(-61.626)" fill="#98695e"/>
      <g id="Group_641" data-name="Group 641" transform="translate(5.313 0)">
        <path id="Path_892" data-name="Path 892" d="M68.624,12.638V6.031A6.038,6.038,0,0,1,74.655,0H72.97a6.038,6.038,0,0,0-6.031,6.031v6.606a1.583,1.583,0,0,0,1.583,1.583h1.685A1.583,1.583,0,0,1,68.624,12.638Z" transform="translate(-66.939 0)" fill="#845c52"/>
        <path id="Path_893" data-name="Path 893" d="M245.837,45.941V40.917a2.869,2.869,0,0,0-2.865-2.865h-1.685a2.869,2.869,0,0,1,2.865,2.865v5.023Z" transform="translate(-226.781 -34.886)" fill="#845c52"/>
      </g>
      <path id="Path_894" data-name="Path 894" d="M27.6,128.564H9.732a6.649,6.649,0,0,1-6.649-6.649V109.19a6.649,6.649,0,0,1,6.649-6.649H27.6a6.649,6.649,0,0,1,6.649,6.649v12.726A6.649,6.649,0,0,1,27.6,128.564Z" transform="translate(-3.083 -94.009)" fill="#98695e"/>
      <path id="Path_895" data-name="Path 895" d="M17.815,128.566H9.732a6.649,6.649,0,0,1-6.649-6.649V109.192a6.649,6.649,0,0,1,6.649-6.649h8.083a6.649,6.649,0,0,0-6.649,6.649v12.726A6.649,6.649,0,0,0,17.815,128.566Z" transform="translate(-3.083 -94.011)" fill="#845c52"/>
      <path id="Path_896" data-name="Path 896" d="M34.246,109.19v3.142a6.648,6.648,0,0,1-6.649,6.649H9.731a6.649,6.649,0,0,1-6.649-6.649V109.19a6.649,6.649,0,0,1,6.649-6.649H27.6A6.648,6.648,0,0,1,34.246,109.19Z" transform="translate(-3.082 -94.009)" fill="#b48e84"/>
      <path id="Path_897" data-name="Path 897" d="M17.814,118.981H9.731a6.649,6.649,0,0,1-6.649-6.649V109.19a6.649,6.649,0,0,1,6.649-6.649h8.083a6.649,6.649,0,0,0-6.649,6.649v3.142A6.649,6.649,0,0,0,17.814,118.981Z" transform="translate(-3.082 -94.009)" fill="#a77d73"/>
      <path id="Path_898" data-name="Path 898" d="M150.66,249.416h-1.81a2.78,2.78,0,0,1-2.78-2.78v-3.389a2.78,2.78,0,0,1,2.78-2.78h1.81a2.78,2.78,0,0,1,2.78,2.78v3.389A2.78,2.78,0,0,1,150.66,249.416Z" transform="translate(-134.173 -220.459)" fill="#ffe07d"/>
      <g id="Group_642" data-name="Group 642" transform="translate(11.897 20.007)">
        <path id="Path_899" data-name="Path 899" d="M150.536,249.411h-1.685a2.78,2.78,0,0,1-2.78-2.781v-3.388a2.78,2.78,0,0,1,2.78-2.781h1.685a2.78,2.78,0,0,0-2.78,2.781v3.388A2.78,2.78,0,0,0,150.536,249.411Z" transform="translate(-146.071 -240.462)" fill="#ffd064"/>
        <path id="Path_900" data-name="Path 900" d="M171.046,289.17a.511.511,0,0,1-.511-.511v-2.077a.511.511,0,0,1,.511-.511h2.278a.511.511,0,0,1,.511.511v2.077a.511.511,0,0,1-.511.511Z" transform="translate(-168.5 -282.276)" fill="#ffd064"/>
      </g>
    </g>
    <g id="Group_645" data-name="Group 645" transform="translate(23.467 20.897)">
      <path id="Path_901" data-name="Path 901" d="M269.784,262.011a10.74,10.74,0,0,1-.063,1.172,10.851,10.851,0,0,1-21.639-1.172,10.74,10.74,0,0,1,.063-1.172,10.851,10.851,0,0,1,21.576,0A10.742,10.742,0,0,1,269.784,262.011Z" transform="translate(-248.082 -251.16)" fill="#e28086"/>
      <path id="Path_902" data-name="Path 902" d="M259,272.8q.275.031.554.046c-.2.012-.41.018-.618.018a10.626,10.626,0,0,1-1.173-.064,10.851,10.851,0,0,1,0-21.575,10.622,10.622,0,0,1,1.173-.064c.208,0,.413.006.618.018q-.279.015-.554.046a10.851,10.851,0,0,0,0,21.575Z" transform="translate(-248.082 -251.156)" fill="#dd636e"/>
      <path id="Path_903" data-name="Path 903" d="M300.01,295.254a7.833,7.833,0,1,1-.046-.846A7.769,7.769,0,0,1,300.01,295.254Z" transform="translate(-281.325 -284.403)" fill="#f9f6f9"/>
      <path id="Path_904" data-name="Path 904" d="M293.149,303.028l-.125.015a7.834,7.834,0,1,1,0-15.577l.125.015a7.834,7.834,0,0,0,0,15.548Z" transform="translate(-281.326 -284.403)" fill="#dddaec"/>
      <g id="Group_644" data-name="Group 644" transform="translate(4.198 4.199)">
        <path id="Path_905" data-name="Path 905" d="M432.282,375.139H431.25a.643.643,0,1,1,0-1.286h1.032a.643.643,0,0,1,0,1.286Z" transform="translate(-419.619 -367.843)" fill="#545058"/>
        <path id="Path_906" data-name="Path 906" d="M300.216,375.139h-1.032a.643.643,0,0,1,0-1.286h1.032a.643.643,0,0,1,0,1.286Z" transform="translate(-298.541 -367.843)" fill="#545058"/>
        <path id="Path_907" data-name="Path 907" d="M371.417,303.937a.643.643,0,0,1-.643-.643v-1.032a.643.643,0,1,1,1.286,0v1.032A.643.643,0,0,1,371.417,303.937Z" transform="translate(-364.764 -301.62)" fill="#545058"/>
        <path id="Path_908" data-name="Path 908" d="M371.417,436a.643.643,0,0,1-.643-.643v-1.032a.643.643,0,0,1,1.286,0v1.032A.643.643,0,0,1,371.417,436Z" transform="translate(-364.764 -422.698)" fill="#545058"/>
        <path id="Path_909" data-name="Path 909" d="M338.834,342.553a.641.641,0,0,1-.455-.188l-2.151-2.151a.643.643,0,0,1,.909-.909l2.151,2.151a.643.643,0,0,1-.455,1.1Z" transform="translate(-332.92 -335.997)" fill="#545058"/>
        <path id="Path_910" data-name="Path 910" d="M380.3,355.563a.643.643,0,0,1-.455-1.1l.97-.97a.643.643,0,0,1,.909.909l-.97.97A.641.641,0,0,1,380.3,355.563Z" transform="translate(-372.908 -349.007)" fill="#545058"/>
      </g>
      <circle id="Ellipse_59" data-name="Ellipse 59" cx="1.045" cy="1.045" r="1.045" transform="translate(9.806 9.806)" fill="#6c6570"/>
    </g>
  </g>
</svg>
