<svg xmlns="http://www.w3.org/2000/svg" width="47.746" height="23.643" viewBox="0 0 47.746 23.643">
  <g id="ic-quote-left" transform="translate(1392.746 1780.643) rotate(180)">
    <rect id="Rectangle_348" data-name="Rectangle 348" width="47.746" height="23.643" transform="translate(1345 1757)" fill="#fff"/>
    <path id="Path_1408" data-name="Path 1408" d="M7.881-56.388c5.772-3.441,10.545-8.88,10.545-15.984,0-4.107-2-7.659-6.549-7.659a6.112,6.112,0,0,0-6.216,6.1,6,6,0,0,0,5.217,5.994,2.5,2.5,0,0,0,.777.111c-1.221,3.108-4,5.661-6.882,7.437Zm18.093,0c5.883-3.441,10.545-8.88,10.545-15.984,0-4.107-2-7.659-6.549-7.659a6.087,6.087,0,0,0-6.105,6.1,6,6,0,0,0,5.217,5.994,2.167,2.167,0,0,0,.777.111,17.372,17.372,0,0,1-6.993,7.437Z" transform="translate(1348.227 1837.031)" fill="#003b84"/>
  </g>
</svg>
