<svg xmlns="http://www.w3.org/2000/svg" width="48.3" height="43.017" viewBox="0 0 48.3 43.017">
  <g id="ic-school" transform="translate(0 -28)">
    <path id="Path_756" data-name="Path 756" d="M272.5,36.849v2.028l.708.9h2.264a.755.755,0,0,0,.755-.755V36.755a.755.755,0,0,0-.755-.755h-2.264Z" transform="translate(-246.793 -7.245)" fill="#ff8086"/>
    <path id="Path_757" data-name="Path 757" d="M256,36h2.264v3.773H256Z" transform="translate(-231.85 -7.245)" fill="#e5646e"/>
    <path id="Path_758" data-name="Path 758" d="M249.509,37.056H248v-8.3a.755.755,0,1,1,1.509,0Z" transform="translate(-224.605)" fill="#ffc269"/>
    <path id="Path_759" data-name="Path 759" d="M57.722,180H17.949a.755.755,0,0,0-.69.448l-2.149,4.835,1.923.613H58.825l1.735-.613-2.149-4.835A.755.755,0,0,0,57.722,180Z" transform="translate(-13.685 -137.661)" fill="#ff8086"/>
    <path id="Path_760" data-name="Path 760" d="M58.214,236.448l-.2-.448H12.566l-.2.448a.755.755,0,0,0,.69,1.061H13.4l.5.708H56.579l.6-.708h.348A.755.755,0,0,0,58.214,236.448Z" transform="translate(-11.141 -188.378)" fill="#e5646e"/>
    <path id="Path_761" data-name="Path 761" d="M76.527,175.018H33.667V154.641h8.9l12.075-10.974,12.075,10.974,9.811.755Z" transform="translate(-30.491 -104.755)" fill="#ffc269"/>
    <path id="Path_762" data-name="Path 762" d="M208,372.755V380.3h9.056v-7.547A.755.755,0,0,0,216.3,372h-3.019l-.723.818-.786-.818h-3.019A.755.755,0,0,0,208,372.755Z" transform="translate(-188.378 -311.548)" fill="#c38c66"/>
    <path id="Path_763" data-name="Path 763" d="M248,372h1.509v7.547H248Z" transform="translate(-224.605 -311.548)" fill="#b57f5f"/>
    <circle id="Ellipse_52" data-name="Ellipse 52" cx="4.5" cy="4.5" r="4.5" transform="translate(19.5 46)" fill="#fff0af"/>
    <circle id="Ellipse_53" data-name="Ellipse 53" cx="3" cy="3" r="3" transform="translate(21 47.5)" fill="#fff"/>
    <path id="Path_764" data-name="Path 764" d="M250.939,252.421a.756.756,0,0,0-1.013-.338l-1.509.755-.417.675v1.509a.755.755,0,0,0,1.509,0V253.98l1.092-.546A.755.755,0,0,0,250.939,252.421Z" transform="translate(-224.605 -202.872)" fill="#857e87"/>
    <path id="Path_765" data-name="Path 765" d="M192,444.755v2.264h12.075v-2.264a.755.755,0,0,0-.755-.755H192.755A.755.755,0,0,0,192,444.755Z" transform="translate(-173.887 -376.756)" fill="#c8c5c9"/>
    <path id="Path_766" data-name="Path 766" d="M57.961,136.075,45.886,124,33.811,136.075H24v21.131h1.509V139.094a1.509,1.509,0,0,1,1.509-1.509h7.546a2.265,2.265,0,0,0,1.6-.663l9.72-9.719,9.72,9.719a2.265,2.265,0,0,0,1.6.663H67.772v-1.509H57.961Z" transform="translate(-21.736 -86.944)" fill="#ffa95f"/>
    <path id="Path_767" data-name="Path 767" d="M144.9,129.584a.752.752,0,0,1-.534-.221l-11.541-11.541-11.541,11.541a.755.755,0,0,1-1.067-1.067L132.3,116.22a.754.754,0,0,1,1.067,0L145.438,128.3a.755.755,0,0,1-.534,1.288Z" transform="translate(-108.679 -79.698)" fill="#db4655"/>
    <path id="Path_768" data-name="Path 768" d="M47.545,469.509H.755a.755.755,0,0,1,0-1.509H47.545a.755.755,0,0,1,0,1.509Z" transform="translate(0 -398.492)" fill="#dad8db"/>
    <path id="Path_769" data-name="Path 769" d="M64.755,375.773h8.3a.755.755,0,0,0,.755-.755v-2.264a.755.755,0,0,0-.755-.755H69.283l-.786.535L67.773,372H64.755a.755.755,0,0,0-.755.755v2.264A.755.755,0,0,0,64.755,375.773Z" transform="translate(-57.962 -311.548)" fill="#edf4ff"/>
    <path id="Path_770" data-name="Path 770" d="M57.509,373.509V372h-.755a.755.755,0,0,0-.755.755v3.019a.755.755,0,0,0,.755.755h3.773l.755-.436.755.436h3.773a.755.755,0,0,0,.755-.755v-.755H59.019A1.509,1.509,0,0,1,57.509,373.509Z" transform="translate(-50.717 -311.548)" fill="#dbeaff"/>
    <path id="Path_771" data-name="Path 771" d="M104.719,375.467l-.719-.448V372h1.509v3.019Z" transform="translate(-94.189 -311.548)" fill="#ffe09f"/>
    <path id="Path_772" data-name="Path 772" d="M104,404h1.509v1.509H104Z" transform="translate(-94.189 -340.53)" fill="#ffc269"/>
    <circle id="Ellipse_54" data-name="Ellipse 54" cx="0.75" cy="0.75" r="0.75" transform="translate(23.5 50)" fill="#4b3f4e"/>
    <path id="Path_773" data-name="Path 773" d="M64.755,295.773h8.3a.755.755,0,0,0,.755-.755v-2.264a.755.755,0,0,0-.755-.755H69.283l-.786.535L67.773,292H64.755a.755.755,0,0,0-.755.755v2.264A.755.755,0,0,0,64.755,295.773Z" transform="translate(-57.962 -239.095)" fill="#edf4ff"/>
    <path id="Path_774" data-name="Path 774" d="M57.509,293.509V292h-.755a.755.755,0,0,0-.755.755v3.019a.755.755,0,0,0,.755.755h3.773l.755-.436.755.436h3.773a.755.755,0,0,0,.755-.755v-.755H59.019A1.509,1.509,0,0,1,57.509,293.509Z" transform="translate(-50.717 -239.095)" fill="#dbeaff"/>
    <path id="Path_775" data-name="Path 775" d="M104.719,295.467l-.719-.448V292h1.509v3.019Z" transform="translate(-94.189 -239.095)" fill="#ffe09f"/>
    <path id="Path_776" data-name="Path 776" d="M104,324h1.509v1.509H104Z" transform="translate(-94.189 -268.077)" fill="#ffc269"/>
    <path id="Path_777" data-name="Path 777" d="M352.755,375.773h8.3a.755.755,0,0,0,.755-.755v-2.264a.755.755,0,0,0-.755-.755h-3.773l-.786.535-.723-.535h-3.019a.755.755,0,0,0-.755.755v2.264A.755.755,0,0,0,352.755,375.773Z" transform="translate(-318.794 -311.548)" fill="#edf4ff"/>
    <path id="Path_778" data-name="Path 778" d="M345.509,373.509V372h-.755a.755.755,0,0,0-.755.755v3.019a.755.755,0,0,0,.755.755h3.773l.755-.436.755.436h3.773a.755.755,0,0,0,.755-.755v-.755h-7.547A1.509,1.509,0,0,1,345.509,373.509Z" transform="translate(-311.548 -311.548)" fill="#dbeaff"/>
    <path id="Path_779" data-name="Path 779" d="M392.719,375.467l-.719-.448V372h1.509v3.019Z" transform="translate(-355.02 -311.548)" fill="#ffe09f"/>
    <path id="Path_780" data-name="Path 780" d="M392,404h1.509v1.509H392Z" transform="translate(-355.02 -340.53)" fill="#ffc269"/>
    <path id="Path_781" data-name="Path 781" d="M352.755,295.773h8.3a.755.755,0,0,0,.755-.755v-2.264a.755.755,0,0,0-.755-.755h-3.773l-.786.535-.723-.535h-3.019a.755.755,0,0,0-.755.755v2.264A.755.755,0,0,0,352.755,295.773Z" transform="translate(-318.794 -239.095)" fill="#edf4ff"/>
    <path id="Path_782" data-name="Path 782" d="M345.509,293.509V292h-.755a.755.755,0,0,0-.755.755v3.019a.755.755,0,0,0,.755.755h3.773l.755-.436.755.436h3.773a.755.755,0,0,0,.755-.755v-.755h-7.547A1.509,1.509,0,0,1,345.509,293.509Z" transform="translate(-311.548 -239.095)" fill="#dbeaff"/>
    <path id="Path_783" data-name="Path 783" d="M392.719,295.467l-.719-.448V292h1.509v3.019Z" transform="translate(-355.02 -239.095)" fill="#ffe09f"/>
    <path id="Path_784" data-name="Path 784" d="M392,324h1.509v1.509H392Z" transform="translate(-355.02 -268.077)" fill="#ffc269"/>
  </g>
</svg>
