<svg xmlns="http://www.w3.org/2000/svg" width="26" height="24" viewBox="0 0 26 24">
  <g id="ic-twitter-share" transform="translate(-1536 -565)">
    <rect id="Rectangle_158" data-name="Rectangle 158" width="26" height="24" transform="translate(1536 565)" fill="none"/>
    <g id="Group_105" data-name="Group 105" transform="translate(1540.042 569.716)">
      <g id="Group_104" data-name="Group 104">
        <path id="Path_238" data-name="Path 238" d="M1253.19,1265.75a7.773,7.773,0,0,1-2.149.589,3.709,3.709,0,0,0,1.641-2.061,7.456,7.456,0,0,1-2.365.9,3.729,3.729,0,0,0-6.45,2.55,3.837,3.837,0,0,0,.086.85,10.554,10.554,0,0,1-7.686-3.9,3.73,3.73,0,0,0,1.146,4.984,3.683,3.683,0,0,1-1.685-.459v.041a3.746,3.746,0,0,0,2.988,3.664,3.72,3.72,0,0,1-.978.123,3.3,3.3,0,0,1-.706-.064,3.765,3.765,0,0,0,3.484,2.6,7.493,7.493,0,0,1-4.624,1.59,6.992,6.992,0,0,1-.892-.051,10.614,10.614,0,0,0,16.334-8.938c0-.165-.006-.324-.014-.482A7.437,7.437,0,0,0,1253.19,1265.75Z" transform="translate(-1235 -1264)" fill="#0cb5b5"/>
      </g>
    </g>
  </g>
</svg>
