<svg xmlns="http://www.w3.org/2000/svg" width="12.286" height="22" viewBox="0 0 12.286 22">
  <g id="ic-taiwan" transform="translate(-4.896)">
    <path id="Path_1404" data-name="Path 1404" d="M14.355,11.094c.273-1.208.179-2.842.937-3.527,1.68-1.523.084-3.982,1.89-5.28a1.533,1.533,0,0,0-.214-.372C16.293,1.073,15.075,1.09,14.3,0c-.751,1.588-2.7,1.122-3.436,2.377C10.1,3.688,9,4.713,8.208,5.972,7.255,7.479,5.99,8.9,5.488,10.547c-.58,1.9-1.057,3.971.208,6,.562.9.89,1.882,1.943,2.339a2.1,2.1,0,0,1,1.173,1.824c.079.57-.177,1.386.77,1.278.694-.076.686-.8.64-1.36a4.036,4.036,0,0,1,.972-3.251A11.764,11.764,0,0,0,14.355,11.094Z" fill="#345f94"/>
  </g>
</svg>
