<svg xmlns="http://www.w3.org/2000/svg" width="29" height="29" viewBox="0 0 29 29">
  <g id="ic-voice" transform="translate(-1604 -524)">
    <g id="speaker-filled-audio-tool" transform="translate(1607 520.435)">
      <path id="Path_1420" data-name="Path 1420" d="M11.257,25.515a1.022,1.022,0,0,1-1.674.786L4,21.673H1.022A1.021,1.021,0,0,1,0,20.652V16.581a1.022,1.022,0,0,1,1.022-1.022H4L9.583,10.93a1.022,1.022,0,0,1,1.674.787v13.8Zm3.927-1.6-.074,0a1.021,1.021,0,0,1-.722-.3l-.137-.137a1.021,1.021,0,0,1-.1-1.331A5.941,5.941,0,0,0,14,14.873a1.021,1.021,0,0,1,.07-1.366l.136-.137a1,1,0,0,1,.774-.3,1.023,1.023,0,0,1,.74.374,8.183,8.183,0,0,1,.213,10.065A1.022,1.022,0,0,1,15.183,23.919Zm4.224,3.158a1.023,1.023,0,0,1-.738.362h-.043a1.021,1.021,0,0,1-.723-.3l-.134-.134a1.022,1.022,0,0,1-.059-1.38A10.889,10.889,0,0,0,17.53,11.4a1.022,1.022,0,0,1,.041-1.4l.134-.134a1,1,0,0,1,.753-.3,1.022,1.022,0,0,1,.734.343,13.119,13.119,0,0,1,.215,17.168Z" transform="translate(0 0)" fill="#003b84"/>
    </g>
    <rect id="Rectangle_376" data-name="Rectangle 376" width="29" height="29" transform="translate(1604 524)" fill="none"/>
  </g>
</svg>
