<svg xmlns="http://www.w3.org/2000/svg" width="40.013" height="40.014" viewBox="0 0 40.013 40.014">
  <g id="ic-wfh" transform="translate(-0.007)">
    <g id="Group_615" data-name="Group 615" transform="translate(30.385 2.079)">
      <path id="Path_862" data-name="Path 862" d="M388.7,33.811l1.813,3.584,3.121,1.022V28.3l-1.671-1.691L388.7,28.3Z" transform="translate(-388.705 -26.606)" fill="#dddaec" fill-rule="evenodd"/>
    </g>
    <g id="Group_616" data-name="Group 616" transform="translate(28.794 0.189)">
      <path id="Path_863" data-name="Path 863" d="M369.943,6h5.737a.788.788,0,0,0,.787-.785V3.208a.788.788,0,0,0-.787-.785h-6.541a.788.788,0,0,0-.787.785V5.219a.788.788,0,0,0,.787.785h.8Z" transform="translate(-368.352 -2.423)" fill="#375e7d" fill-rule="evenodd"/>
    </g>
    <g id="Group_617" data-name="Group 617" transform="translate(30.385 3.77)">
      <path id="Path_864" data-name="Path 864" d="M388.7,50.05h2.586c.911,0,.783.744.783,1.636V56.9l1.566,1.461V48.242H388.7Z" transform="translate(-388.705 -48.242)" fill="#beb9dd" fill-rule="evenodd"/>
    </g>
    <g id="Group_618" data-name="Group 618" transform="translate(34.47 0.189)">
      <path id="Path_865" data-name="Path 865" d="M441.763,5.219a.79.79,0,0,1-.787.785h1.652a.788.788,0,0,0,.787-.785V3.208a.788.788,0,0,0-.787-.785h-1.652a.79.79,0,0,1,.787.785Z" transform="translate(-440.976 -2.423)" fill="#2b4d66" fill-rule="evenodd"/>
    </g>
    <g id="Group_619" data-name="Group 619" transform="translate(0.007 0)">
      <path id="Path_866" data-name="Path 866" d="M34.68,40.014a1.23,1.23,0,0,0,1.226-1.226V19.26h3.076c.607.007,1.029-.23,1.038-.609v-.025a1.165,1.165,0,0,0-.447-.76L35.319,13.89,21.2.7c-.5-.47-.844-.7-1.184-.7s-.682.233-1.184.7L.454,17.865a1.165,1.165,0,0,0-.447.76v.025c.009.379.431.616,1.038.609H4.124V38.789a1.228,1.228,0,0,0,1.223,1.226Z" transform="translate(-0.007 0)" fill="#ffd772" fill-rule="evenodd"/>
    </g>
    <g id="Group_620" data-name="Group 620" transform="translate(8.421 29.295)">
      <path id="Path_867" data-name="Path 867" d="M111.759,374.838l-1.016.313c-2.25.694-3.072,2.924-3.072,5.021v5.386h4.386C117.359,381.519,111.759,374.838,111.759,374.838Z" transform="translate(-107.672 -374.838)" fill="#3bc3a4" fill-rule="evenodd"/>
    </g>
    <g id="Group_621" data-name="Group 621" transform="translate(25.01 29.295)">
      <path id="Path_868" data-name="Path 868" d="M322.445,374.838s-5.438,4.856-.3,10.72h4.386v-5.386c0-2.1-.819-4.327-3.072-5.021Z" transform="translate(-319.937 -374.838)" fill="#3bc3a4" fill-rule="evenodd"/>
    </g>
    <g id="Group_622" data-name="Group 622" transform="translate(10.986 19.629)">
      <path id="Path_869" data-name="Path 869" d="M142.813,251.167h-1.257a1.061,1.061,0,0,0-1.061,1.057v.589c0,1.134,1.13,1.748,2.291,1.76h.244A2.872,2.872,0,0,0,142.813,251.167Z" transform="translate(-140.494 -251.167)" fill="#ffbc85" fill-rule="evenodd"/>
    </g>
    <g id="Group_623" data-name="Group 623" transform="translate(13.305 15.407)">
      <path id="Path_870" data-name="Path 870" d="M173.641,197.143c-.274,2.086-2.727,2.207-3.478,2.784V203.4a4.744,4.744,0,0,0,.217,1.372,8.416,8.416,0,0,0,3.065,4.135,7.338,7.338,0,0,0,1.746.947,4.351,4.351,0,0,0,3.362,0,7.252,7.252,0,0,0,1.746-.947,8.416,8.416,0,0,0,3.065-4.135,4.749,4.749,0,0,0,.219-1.372v-3.471c-1.88-3.953-7.118-.657-9.941-2.784Z" transform="translate(-170.163 -197.143)" fill="#ffe5c1" fill-rule="evenodd"/>
    </g>
    <g id="Group_624" data-name="Group 624" transform="translate(25.628 19.629)">
      <path id="Path_871" data-name="Path 871" d="M328.716,254.572h.244c1.162-.011,2.291-.625,2.291-1.76v-.589a1.06,1.06,0,0,0-1.061-1.057h-1.255C327.74,252.048,327.32,253.168,328.716,254.572Z" transform="translate(-327.839 -251.167)" fill="#ffbc85" fill-rule="evenodd"/>
    </g>
    <g id="Group_625" data-name="Group 625" transform="translate(17.009 17.717)">
      <path id="Path_872" data-name="Path 872" d="M227.272,228.608a3.31,3.31,0,0,0-2.316-1.912v2.99a5.07,5.07,0,0,1-.329,1.374,8.4,8.4,0,0,1-3.063,4.133,7.309,7.309,0,0,1-1.748.947,4.741,4.741,0,0,1-1.68.338,3.853,3.853,0,0,1-.58-.043,7.1,7.1,0,0,0,1.324.662,4.351,4.351,0,0,0,3.362,0,7.252,7.252,0,0,0,1.746-.947,8.415,8.415,0,0,0,3.065-4.135,4.748,4.748,0,0,0,.219-1.372Z" transform="translate(-217.557 -226.696)" fill="#fed1a3" fill-rule="evenodd"/>
    </g>
    <g id="Group_626" data-name="Group 626" transform="translate(12.884 11.979)">
      <path id="Path_873" data-name="Path 873" d="M165.2,160.931c.751-.577,3.2-.7,3.478-2.784.42-1.02.386-3.734-.632-4.866-2.476.434-3.537,2.346-3.209,4.87Z" transform="translate(-164.775 -153.281)" fill="#2b4d66" fill-rule="evenodd"/>
    </g>
    <g id="Group_627" data-name="Group 627" transform="translate(15.838 10.391)">
      <path id="Path_874" data-name="Path 874" d="M203.519,139.408c2.823,2.127,8.061-1.168,9.941,2.784.37-2.835.452-5.587-2.074-7.734-2.335-1.983-7.383-2.056-8.5.084C202.387,135.713,202.409,138.429,203.519,139.408Z" transform="translate(-202.573 -132.954)" fill="#375e7d" fill-rule="evenodd"/>
    </g>
    <g id="Group_628" data-name="Group 628" transform="translate(21.733 10.576)">
      <path id="Path_875" data-name="Path 875" d="M278.494,135.685c2.241,1.906,2.428,4.286,2.184,6.778a3.31,3.31,0,0,1,2.316,1.912c.37-2.835.452-5.587-2.074-7.734A6.654,6.654,0,0,0,278,135.322,4.946,4.946,0,0,1,278.494,135.685Z" transform="translate(-278.003 -135.322)" fill="#2b4d66" fill-rule="evenodd"/>
    </g>
    <g id="Group_629" data-name="Group 629" transform="translate(22.346 20.158)">
      <path id="Path_876" data-name="Path 876" d="M286.446,259.658a.6.6,0,0,1-.6-.6v-.525a.6.6,0,0,1,1.208,0v.525A.6.6,0,0,1,286.446,259.658Z" transform="translate(-285.842 -257.926)" fill="#375e7d"/>
    </g>
    <g id="Group_630" data-name="Group 630" transform="translate(16.659 20.158)">
      <path id="Path_877" data-name="Path 877" d="M213.676,259.658a.6.6,0,0,1-.6-.6v-.525a.6.6,0,0,1,1.208,0v.525A.6.6,0,0,1,213.676,259.658Z" transform="translate(-213.072 -257.926)" fill="#375e7d"/>
    </g>
    <g id="Group_631" data-name="Group 631" transform="translate(18.569 23.505)">
      <path id="Path_878" data-name="Path 878" d="M239.05,302.358a1.91,1.91,0,0,1-1.36-.564.6.6,0,0,1,.854-.854.711.711,0,0,0,.506.21h0a.706.706,0,0,0,.5-.209.6.6,0,1,1,.856.852,1.905,1.905,0,0,1-1.357.565Z" transform="translate(-237.513 -300.764)" fill="#ffbc85"/>
    </g>
    <g id="Group_632" data-name="Group 632" transform="translate(12.509 26.846)">
      <path id="Path_879" data-name="Path 879" d="M174.982,353.76h-15.01v-9.368a.892.892,0,0,1,.89-.888h13.232a.89.89,0,0,1,.888.888Z" transform="translate(-159.972 -343.504)" fill="#dddaec" fill-rule="evenodd"/>
    </g>
    <g id="Group_633" data-name="Group 633" transform="translate(22.915 26.846)">
      <path id="Path_880" data-name="Path 880" d="M293.4,344a10.959,10.959,0,0,1-.018,9.756h4.35v-9.368a.89.89,0,0,0-.888-.888H293.13C293.226,343.667,293.315,343.834,293.4,344Z" transform="translate(-293.13 -343.503)" fill="#beb9dd" fill-rule="evenodd"/>
    </g>
    <g id="Group_634" data-name="Group 634" transform="translate(11.536 37.102)">
      <path id="Path_881" data-name="Path 881" d="M159.164,474.738h-11.2a.431.431,0,0,0-.429.429v1.164a1.326,1.326,0,0,0,1.271,1.319h14.412a1.326,1.326,0,0,0,1.271-1.319v-1.164a.43.43,0,0,0-.429-.429h-4.893Z" transform="translate(-147.532 -474.738)" fill="#beb9dd" fill-rule="evenodd"/>
    </g>
    <g id="Group_635" data-name="Group 635" transform="translate(22.87 37.102)">
      <path id="Path_882" data-name="Path 882" d="M293.817,475.167v1.164a1.324,1.324,0,0,1-1.271,1.319h4.35a1.326,1.326,0,0,0,1.271-1.319v-1.164a.43.43,0,0,0-.429-.429h-4.35A.43.43,0,0,1,293.817,475.167Z" transform="translate(-292.546 -474.738)" fill="#a7a2d3" fill-rule="evenodd"/>
    </g>
    <g id="Group_636" data-name="Group 636" transform="translate(18.176 31.505)">
      <path id="Path_883" data-name="Path 883" d="M235.562,404.326h-2.467a.6.6,0,1,1,0-1.208h2.467a.6.6,0,1,1,0,1.208Z" transform="translate(-232.491 -403.118)" fill="#375e7d"/>
    </g>
    <g id="Group_637" data-name="Group 637" transform="translate(17.05 0)">
      <path id="Path_884" data-name="Path 884" d="M218.082,2.364a21.1,21.1,0,0,1,4.678,8.209s0,0,0,0a6.653,6.653,0,0,1,2.917,1.319c2.526,2.148,2.444,4.9,2.074,7.734h1.255a1.06,1.06,0,0,1,1.061,1.057v.589c0,1.134-1.13,1.748-2.291,1.76h-.244a8.288,8.288,0,0,1-2.572,3.75.558.558,0,0,0,0,.062h2.7a.89.89,0,0,1,.888.888v1.561l1.016.313c2.253.694,3.072,2.921,3.072,5.021v5.386h3.074a1.23,1.23,0,0,0,1.226-1.226V19.26h3.076c.607.007,1.029-.23,1.038-.609v-.025a1.165,1.165,0,0,0-.447-.76l-4.254-3.976-4.934-4.606L222.231.7c-.5-.47-.844-.7-1.184-.7s-.682.233-1.184.7Z" transform="translate(-218.082 0)" fill="#fbba58" fill-rule="evenodd"/>
    </g>
  </g>
</svg>
