<svg xmlns="http://www.w3.org/2000/svg" width="35" height="33" viewBox="0 0 35 33">
  <g id="ic-youtuber" transform="translate(-0.323)">
    <path id="Path_226" data-name="Path 226" d="M1803.461,144.5c-1.879-.5-9.413-.5-9.413-.5s-7.535,0-9.414.5a3.017,3.017,0,0,0-2.13,2.13,33.64,33.64,0,0,0,0,11.6,3.018,3.018,0,0,0,2.13,2.13c1.879.5,9.414.5,9.414.5s7.535,0,9.413-.5a3.017,3.017,0,0,0,2.13-2.13,33.656,33.656,0,0,0,0-11.6A3.017,3.017,0,0,0,1803.461,144.5Zm-11.823,11.544v-7.228l6.26,3.614Z" transform="translate(-1776.909 -135.788)" fill="#e55c5c"/>
    <rect id="Rectangle_154" data-name="Rectangle 154" width="35" height="33" transform="translate(0.323)" fill="none"/>
  </g>
</svg>
