<svg xmlns="http://www.w3.org/2000/svg" xmlns:xlink="http://www.w3.org/1999/xlink" width="242" height="237" viewBox="0 0 242 237">
  <defs>
    <clipPath id="clip-path">
      <rect id="Rectangle_308" data-name="Rectangle 308" width="17.804" height="11.425" fill="none"/>
    </clipPath>
    <clipPath id="clip-path-2">
      <rect id="Rectangle_309" data-name="Rectangle 309" width="22.121" height="0.437" fill="none"/>
    </clipPath>
    <clipPath id="clip-path-3">
      <rect id="Rectangle_310" data-name="Rectangle 310" width="26.497" height="15.802" fill="none"/>
    </clipPath>
  </defs>
  <g id="index-p8" transform="translate(-5844 -6289)">
    <path id="Path_1402" data-name="Path 1402" d="M94.5,0A94.5,94.5,0,1,1,0,94.5,94.5,94.5,0,0,1,94.5,0Z" transform="translate(5870 6289.349)" fill="#93e1e1"/>
    <g id="Group_673" data-name="Group 673" transform="translate(5849.627 6320)">
      <g id="Group_667" data-name="Group 667">
        <g id="Group_674" data-name="Group 674">
          <path id="Path_969" data-name="Path 969" d="M181.27,236.712l1.293-2.556,7.7.279.173,2.277-3.62,6.28-6.516-5.024Z" transform="translate(-31.598 -41.035)" fill="#f0979d"/>
          <path id="Path_970" data-name="Path 970" d="M187.174,234.327l.323,5.933a27.937,27.937,0,0,0,4.341-3.232l-.321-3.359Z" transform="translate(-32.802 -40.95)" fill="#e66971"/>
          <path id="Path_971" data-name="Path 971" d="M178.241,237.149a8.619,8.619,0,0,1,4.9,1.954c1.568,1.189,3.936-1.264,4.661-1.9.148-.129.348-.013.374.216l.911,8.294H166.157a.57.57,0,0,1-.483-.628v-1.746a.638.638,0,0,1,.331-.6Z" transform="translate(-29.034 -41.56)" fill="#264373"/>
          <line id="Line_4" data-name="Line 4" x2="3.691" y2="2.135" transform="translate(147.918 196.024)" fill="none" stroke="#fff" stroke-miterlimit="10" stroke-width="0.395"/>
          <line id="Line_5" data-name="Line 5" x2="3.691" y2="2.135" transform="translate(146.31 196.847)" fill="none" stroke="#fff" stroke-miterlimit="10" stroke-width="0.395"/>
          <path id="Path_972" data-name="Path 972" d="M226.56,236.487l1.293-2.556,7.071-1.061.807,3.617-3.62,6.28-6.516-5.024Z" transform="translate(-39.535 -40.81)" fill="#f0979d"/>
          <path id="Path_973" data-name="Path 973" d="M233.259,234.163l-.642,5.6a27.914,27.914,0,0,0,4.341-3.233l-.643-2.865Z" transform="translate(-40.766 -40.95)" fill="#e66971"/>
          <path id="Path_974" data-name="Path 974" d="M223.531,237.149a8.619,8.619,0,0,1,4.9,1.954c1.568,1.189,3.936-1.264,4.661-1.9.148-.129.348-.013.374.216l.911,8.294H211.447a.57.57,0,0,1-.483-.628v-1.746a.638.638,0,0,1,.331-.6Z" transform="translate(-36.971 -41.56)" fill="#264373"/>
          <line id="Line_6" data-name="Line 6" x2="3.691" y2="2.135" transform="translate(184.753 196.189)" fill="none" stroke="#fff" stroke-miterlimit="10" stroke-width="0.395"/>
          <line id="Line_7" data-name="Line 7" x2="3.691" y2="2.135" transform="translate(183.144 197.012)" fill="none" stroke="#fff" stroke-miterlimit="10" stroke-width="0.395"/>
          <path id="Path_975" data-name="Path 975" d="M194.125,10.424a3.147,3.147,0,0,0,1.219,1.094c1.07.426,2.436-.464,3.631-1.392,1.175-.912,3.419.574,3.767.817l2.7,8.736-.211.113.08.155.079.154,2.711-1.46.021-.069c1.992-6.553,1.866-8.025.916-10.882-2.511-4.065-10.458-6.245-11.058-6.743a4.039,4.039,0,0,0-4.629-.4c-2.784,1.69-2.26,5.482-.668,8.019a3.621,3.621,0,0,0,1.439,1.853m2.856-8.9a3.569,3.569,0,0,0-4.6,2.681,3.1,3.1,0,0,1,1.485-2.743,2.965,2.965,0,0,1,3.11.062m9.639,17.526-.589.317a2.9,2.9,0,0,1,1.186-.729Z" transform="translate(-33.539 0)" fill="#264373"/>
          <path id="Path_976" data-name="Path 976" d="M182.519,115.541s-2.949,35.268-3.226,45.013,1.679,53.186,1.679,53.186l9.868.217s10.965-72.878,22.878-96.38Z" transform="translate(-31.416 -20.248)" fill="#d14c62"/>
          <path id="Path_977" data-name="Path 977" d="M199.2,117.8s-8.389,40.744-8.389,47-1.239,49.244-1.239,49.244" transform="translate(-33.222 -20.644)" fill="none" stroke="#fff" stroke-miterlimit="10" stroke-width="0.395"/>
          <line id="Line_8" data-name="Line 8" x1="10.644" transform="translate(149.45 188.963)" fill="none" stroke="#fff" stroke-miterlimit="10" stroke-width="0.395"/>
          <path id="Path_978" data-name="Path 978" d="M185.719,115.6s4.723,29.351,11.648,50.151c5.6,16.808,20.286,48.776,20.286,48.776l11.457-.125-11.945-48.152a41.832,41.832,0,0,1-1.2-7.66c-.614-9.767,1.394-29.5,2.233-42.148Z" transform="translate(-32.547 -20.258)" fill="#ff5c77"/>
          <path id="Path_979" data-name="Path 979" d="M211.816,116.2s-3.221,38.106-.326,44.033,17.015,54.182,17.015,54.182" transform="translate(-36.851 -20.364)" fill="none" stroke="#000d2b" stroke-miterlimit="10" stroke-width="0.395"/>
          <line id="Line_9" data-name="Line 9" x1="11.864" transform="translate(183.32 189.784)" fill="none" stroke="#000d2b" stroke-miterlimit="10" stroke-width="0.395"/>
          <line id="Line_10" data-name="Line 10" x2="10.27" y2="13.467" transform="translate(163.411 95.511)" fill="none" stroke="#000d2b" stroke-miterlimit="10" stroke-width="0.395"/>
          <path id="Path_980" data-name="Path 980" d="M194.02,41.354s.39-3.165-2.535-3.625-10.813-2.551-30.864,4.3c0,0-3.474-19.415-3.508-20.985-.088-4.087-1.384-9.393-4.547-12.195-.259-.23-.447,10.136-.561,15.667,0,0-2.67,27.85.586,30.649S197.258,50.9,194.02,41.354" transform="translate(-26.458 -1.549)" fill="#f0979d"/>
          <path id="Path_981" data-name="Path 981" d="M168.059,42.167s30.365-7.6,30.034,1.228S153.557,68.756,149.86,63.828c-5.871-7.824.558-34.613.558-34.613l7.257-3.238,2.122,18.2Z" transform="translate(-25.829 -4.552)" fill="#264373"/>
          <path id="Path_982" data-name="Path 982" d="M175,63.492c1.759,2.111,18.978-2.32,20.865-5.2,0,0,.294-9.638-.439-9.837C187.955,46.435,175,63.492,175,63.492" transform="translate(-30.669 -8.463)" fill="#203961"/>
          <path id="Path_983" data-name="Path 983" d="M209.282,40.867s15.4,1.573,16.371,14.327-6.986,52.606-6.986,52.606l-38.633.671,2.155-50.262a18.58,18.58,0,0,1,2.9-9.123c1.611-2.514,3.5-5.364,4.567-5.5l16.168-4.344Z" transform="translate(-31.55 -6.877)" fill="#264373"/>
          <path id="Path_984" data-name="Path 984" d="M212.51,46.807c9.358-3.753,12.705,3.15,13.19,9.526.97,12.754-7.21,52.383-7.21,52.383L180.3,109.833" transform="translate(-31.598 -8.017)" fill="#203961"/>
          <path id="Path_985" data-name="Path 985" d="M207.631,26.921l1.616,9.912-9.65,6.209-1.316-3.869.693-7.165,7.2-6.52a7.024,7.024,0,0,1,1.246,1.075,1.61,1.61,0,0,0,.208.358" transform="translate(-34.748 -4.467)" fill="#f0979d"/>
          <path id="Path_986" data-name="Path 986" d="M206.216,25.488l-7.2,6.52-.509,4.262s6.539-1.8,6.766-7.205" transform="translate(-34.787 -4.467)" fill="#000d2b"/>
          <path id="Path_987" data-name="Path 987" d="M179.224,86.538,170.639,59.6a5.356,5.356,0,0,0-2.958-3.3L150.1,48.7a.665.665,0,0,0-.872.844l8.674,26.392a5.358,5.358,0,0,0,2.8,3.2l17.624,8.236a.664.664,0,0,0,.892-.83" transform="translate(-26.146 -8.525)" fill="#264373"/>
          <path id="Path_988" data-name="Path 988" d="M177.435,88.451l-8.585-26.94a5.356,5.356,0,0,0-2.958-3.3l-17.579-7.592a.665.665,0,0,0-.873.843l8.675,26.393a5.356,5.356,0,0,0,2.8,3.194l17.624,8.236a.664.664,0,0,0,.892-.83" transform="translate(-25.832 -8.861)" fill="#dadef1"/>
          <path id="Path_989" data-name="Path 989" d="M177.109,72.593l-6.473,1.918,8.176,3.312Z" transform="translate(-29.903 -12.722)" fill="#000d2b"/>
          <path id="Path_990" data-name="Path 990" d="M177.109,72.593l-6.473,1.918,8.176,3.312Z" transform="translate(-29.903 -12.722)" fill="none" stroke="#19224a" stroke-miterlimit="10" stroke-width="0"/>
          <path id="Path_991" data-name="Path 991" d="M170.079,76.328c.95.854,20.772,22.688,30.932,25.368,2.963.781,5.151-1.791,6.7-4.467l10.216-19.816L204.313,66.851c-.1.15-7.211,12.243-8.849,18.309-.539,2-1.473,1.842-3.092.851l-12.422-7.658a14.04,14.04,0,0,0-.256-2.993c-.525-1.561-3.016-3.658-3.016-3.658l1.079,3.313c.195.558.831.961-.173,1.081l-7.889-5.847s-.719-.058-.038.717a8.355,8.355,0,0,1,1.325,1.646c-.095.059-2.252-1.452-2.347-.872s1.76,1.976,1.684,2.034-2.1-1.607-2.214-1.065,1.419,1.588,1.494,1.8-1.665-1.123-1.741-.833,1.677,2.162,2.22,2.65" transform="translate(-29.416 -11.715)" fill="#f0979d"/>
          <path id="Path_992" data-name="Path 992" d="M209.98,52.293s3.879-10.891,11.358-6.305.778,26.11-2.216,31.526c-2.465,4.46-5.417,13.284-9.461,19.1-2.824,4.063-10.888,3.547-14.465.13l-15.57-14.869,3.684-7.034,12.952,5.583Z" transform="translate(-31.479 -7.862)" fill="#264373"/>
          <path id="Path_993" data-name="Path 993" d="M206.071,20.516a.33.33,0,0,0,.542.127c.586-.576,1.754-1.365,2.173.927.568,3.113-2.68,2.578-2.939,3-.525.849-2.21,3.706-4.719,4.813a4.962,4.962,0,0,1-5.466-.821c-1.671-1.6-2.418-.506-1.717-17.656a4.26,4.26,0,0,0,1.866,1.857c1.1.381,2.864-1.146,4.118-1.5,1.018-.284,2.991-1.03,4.2,2.511.553,1.626,1.435,5.391,1.946,6.741" transform="translate(-33.942 -1.911)" fill="#f0979d"/>
          <path id="Path_994" data-name="Path 994" d="M194.068,25.865a7.073,7.073,0,0,0,3.471.27s-1.325,1.8-2.3,1.448-1.175-1.718-1.175-1.718" transform="translate(-34.01 -4.533)" fill="#fff"/>
          <path id="Path_995" data-name="Path 995" d="M211.039,23.433l-1.715,1.293s.639-3.128,1.715-1.293" transform="translate(-36.683 -4.006)" fill="#e66971"/>
          <path id="Path_996" data-name="Path 996" d="M196.508,21.312c0,.374.148.678.332.678s.331-.3.331-.678-.148-.679-.331-.679-.332.3-.332.679" transform="translate(-34.438 -3.616)" fill="#000d2b"/>
          <path id="Path_997" data-name="Path 997" d="M193.892,20.909c0,.374.148.678.332.678s.331-.3.331-.678-.148-.678-.331-.678-.332.3-.332.678" transform="translate(-33.979 -3.545)" fill="#000d2b"/>
          <path id="Path_998" data-name="Path 998" d="M199.373,17.608c.492.343-.277-1.208-.944-1.381a1.167,1.167,0,0,0-1.473.756,3.588,3.588,0,0,1,2.417.625" transform="translate(-34.516 -2.836)" fill="#000d2b"/>
          <path id="Path_999" data-name="Path 999" d="M193.766,17.514a3.6,3.6,0,0,1,1.209.033,1.219,1.219,0,0,0-1.221-.965" transform="translate(-33.955 -2.906)" fill="#000d2b"/>
          <path id="Path_1000" data-name="Path 1000" d="M194.907,21.02l-1.01,2.873a.075.075,0,0,0,.059.1l1.192.09a.072.072,0,0,0,.073-.079l-.182-2.964a.068.068,0,0,0-.132-.021" transform="translate(-33.979 -3.675)" fill="#e66971"/>
          <path id="Path_1001" data-name="Path 1001" d="M208.907,35.588l-9.379,7.034.223,7.7,12.17-10.942Z" transform="translate(-34.967 -6.237)" fill="#fff"/>
          <path id="Path_1002" data-name="Path 1002" d="M197.533,37.754l1,5.583-1.786,6.03-2.233-7.034Z" transform="translate(-34.089 -6.616)" fill="#fff"/>
          <path id="Path_1004" data-name="Path 1004" d="M84.793,52.178,97.73,32.969c.662-.949.257-4.467-.3-5.5a11.539,11.539,0,0,0-7.081-5.8c-13-3.264-63.43,11.526-63.43,11.526S35.7,72.694,75.957,70.5" transform="translate(-4.718 -3.716)" fill="#02192b"/>
          <path id="Path_1005" data-name="Path 1005" d="M84.793,52.178,97.73,32.969c.662-.949.257-4.467-.3-5.5a11.539,11.539,0,0,0-7.081-5.8c-13-3.264-63.43,11.526-63.43,11.526S35.7,72.694,75.957,70.5" transform="translate(-4.718 -3.716)" fill="none" stroke="#02192b" stroke-miterlimit="10" stroke-width="0.401"/>
          <path id="Path_1006" data-name="Path 1006" d="M97.493,32.927a.246.246,0,0,1-.354.11,1.939,1.939,0,0,0-2.827.421c-.976,1.4.819,2.878,1.592,3.424a1.1,1.1,0,0,1,.436.685c.179.864.527,4.078.689,6.9.142,2.459-1.756,7.806-1.756,7.806s8.821,3.468,9.805.454c0,0-2.129-8.126-1.4-10.091.016-.044,3.77.869,5.678-5.622,1.8-6.117-2.531-8.238-3.544-8.635-.854-.336-4.911-2.335-8.325,4.549" transform="translate(-16.478 -4.881)" fill="#f0a7a5"/>
          <path id="Path_1007" data-name="Path 1007" d="M109.535,28.806s-6.613,7.83-11.741,3.916c0,0,3.56-9.286,11.741-3.916" transform="translate(-17.138 -4.755)" fill="#02192b"/>
          <path id="Path_1008" data-name="Path 1008" d="M109.535,28.806s-6.613,7.83-11.741,3.916C97.794,32.722,101.354,23.436,109.535,28.806Z" transform="translate(-17.138 -4.755)" fill="none" stroke="#02192b" stroke-miterlimit="10" stroke-width="0.401"/>
          <path id="Path_1009" data-name="Path 1009" d="M108.114,29.443a37.454,37.454,0,0,1-5.513,4.545c-.74.489-1.829,1.217-2.77.968-.579-.153-.462-.756-.435-1.238a13.933,13.933,0,0,1,.259-1.946c.126-.623-.83-.889-.957-.263a15.633,15.633,0,0,0-.3,2.3,2.1,2.1,0,0,0,.4,1.682c.842.849,2.22.446,3.152.009a18.553,18.553,0,0,0,3.483-2.379,42.223,42.223,0,0,0,3.376-2.979c.457-.447-.245-1.148-.7-.7" transform="translate(-17.242 -5.135)" fill="#02192b"/>
          <path id="Path_1010" data-name="Path 1010" d="M104.53,37.089a1.629,1.629,0,1,1-2.228.582,1.628,1.628,0,0,1,2.228-.582" transform="translate(-17.889 -6.461)" fill="#f08884"/>
          <path id="Path_1011" data-name="Path 1011" d="M110.382,40.832l-3.485-.811s.481,1.876,1.531,1.935,1.954-1.124,1.954-1.124" transform="translate(-18.733 -7.014)" fill="#fff"/>
          <path id="Path_1012" data-name="Path 1012" d="M109.923,37.908l-.6,1.715.934.129a.23.23,0,0,0,.246-.308Z" transform="translate(-19.159 -6.643)" fill="#cd5671"/>
          <path id="Path_1013" data-name="Path 1013" d="M107.462,34.082c-.366.154.339-.735.8-.756a.783.783,0,0,1,.865.68,2.449,2.449,0,0,0-1.664.076" transform="translate(-18.815 -5.84)" fill="#02192b"/>
          <path id="Path_1014" data-name="Path 1014" d="M112.913,34.621a.815.815,0,0,0-1.086.3,2.417,2.417,0,0,1,1.113.381" transform="translate(-19.597 -6.052)" fill="#02192b"/>
          <path id="Path_1015" data-name="Path 1015" d="M108.28,37.09c-.054.316.026.592.18.619s.32-.209.374-.524-.027-.593-.18-.619-.321.208-.374.524" transform="translate(-18.973 -6.408)" fill="#02192b"/>
          <path id="Path_1016" data-name="Path 1016" d="M110.917,37.55c-.051.3.026.566.172.591s.306-.2.357-.5-.025-.566-.172-.591-.306.2-.357.5" transform="translate(-19.435 -6.493)" fill="#02192b"/>
          <path id="Path_1017" data-name="Path 1017" d="M95.1,35.594s.915-2.091,2.077.711" transform="translate(-16.667 -6.106)" fill="#cf4c48"/>
          <path id="Path_1018" data-name="Path 1018" d="M96.064,38.263s-4.027,3.087-.3,6.512a.423.423,0,0,0,.588-.018c.8-.828,2.779-3.423-.293-6.494" transform="translate(-16.505 -6.705)" fill="#fff"/>
          <path id="Path_1019" data-name="Path 1019" d="M94.019,37.85l2.007,2.879,1.885-3Z" transform="translate(-16.477 -6.612)" fill="#ff578c"/>
          <path id="Path_1020" data-name="Path 1020" d="M105.12,45.611a9.769,9.769,0,0,1-1.868-.311,6.541,6.541,0,0,1-1.393-.549.315.315,0,0,0-.4.464s2.957,4.677,3.508,3.667c.419-.769-.408-2.6.156-3.27" transform="translate(-17.769 -7.836)" fill="#02192b"/>
          <path id="Path_1021" data-name="Path 1021" d="M97.182,227.547l-2.9,10.577s1.739,6.346,3.353,3.89a17.817,17.817,0,0,1,3.212-3.755l3.4-10.836Z" transform="translate(-16.523 -39.855)" fill="#ffb5ad"/>
          <path id="Path_1022" data-name="Path 1022" d="M100.825,240.143l9.81,5.6c.439.25.2.774-.351.77-4.53-.025-16.733-.15-19.941-.191-.389,0-.658-.288-.535-.562.68-1.521,2.988-7.278,3.251-7.319,0,0,2.29,3.707,3.627,3.334a11.7,11.7,0,0,0,3.215-1.6.754.754,0,0,1,.925-.024" transform="translate(-15.733 -41.786)" fill="#2d4a73"/>
          <line id="Line_11" data-name="Line 11" x1="1.666" y2="1.524" transform="translate(85.409 198.997)" fill="#b3009c"/>
          <line id="Line_12" data-name="Line 12" x1="1.666" y2="1.524" transform="translate(85.409 198.997)" fill="none" stroke="#fff" stroke-linecap="round" stroke-miterlimit="10" stroke-width="0.582"/>
          <line id="Line_13" data-name="Line 13" x1="1.666" y2="1.524" transform="translate(86.51 199.878)" fill="#b3009c"/>
          <line id="Line_14" data-name="Line 14" x1="1.666" y2="1.524" transform="translate(86.51 199.878)" fill="none" stroke="#fff" stroke-linecap="round" stroke-miterlimit="10" stroke-width="0.582"/>
          <path id="Path_1023" data-name="Path 1023" d="M46.166,219.721l-3.991,9.832s-1.3,6.45,1.247,4.982a17.789,17.789,0,0,1,4.558-1.911l5.614-9.306Z" transform="translate(-7.333 -38.506)" fill="#ffb5ad"/>
          <path id="Path_1024" data-name="Path 1024" d="M47.483,234.666l6.247,9.409c.28.421-.167.782-.66.531-4.036-2.058-14.88-7.655-17.728-9.133-.346-.179-.458-.553-.224-.743,1.29-1.053,5.94-5.159,6.192-5.077,0,0,.381,4.341,1.742,4.608a11.667,11.667,0,0,0,3.594.012.752.752,0,0,1,.836.394" transform="translate(-6.133 -40.246)" fill="#2d4a73"/>
          <line id="Line_15" data-name="Line 15" x1="2.173" y2="0.613" transform="translate(40.661 195.884)" fill="#b3009c"/>
          <line id="Line_16" data-name="Line 16" x1="2.173" y2="0.613" transform="translate(40.661 195.884)" fill="none" stroke="#fff" stroke-linecap="round" stroke-miterlimit="10" stroke-width="0.582"/>
          <line id="Line_17" data-name="Line 17" x1="2.173" y2="0.613" transform="translate(41.248 197.166)" fill="#b3009c"/>
          <line id="Line_18" data-name="Line 18" x1="2.173" y2="0.613" transform="translate(41.248 197.166)" fill="none" stroke="#fff" stroke-linecap="round" stroke-miterlimit="10" stroke-width="0.582"/>
          <g id="Group_659" data-name="Group 659" transform="translate(36.325 173.691)" opacity="0.5">
            <g id="Group_658" data-name="Group 658">
              <g id="Group_657" data-name="Group 657" clip-path="url(#clip-path)">
                <line id="Line_19" data-name="Line 19" x1="17.615" y1="11.125" transform="translate(0.095 0.15)" fill="none" stroke="#fff" stroke-miterlimit="10" stroke-width="0.43"/>
              </g>
            </g>
          </g>
          <g id="Group_662" data-name="Group 662" transform="translate(70.722 183.862)" opacity="0.5">
            <g id="Group_661" data-name="Group 661">
              <g id="Group_660" data-name="Group 660" clip-path="url(#clip-path-2)">
                <line id="Line_20" data-name="Line 20" x1="22.12" y1="0.082" transform="translate(0.001 0.177)" fill="none" stroke="#fff" stroke-miterlimit="10" stroke-width="0.43"/>
              </g>
            </g>
          </g>
          <path id="Path_1025" data-name="Path 1025" d="M78.053,93.685c-2.969,6.3-4.159,8.621-6.015,16.263-2.152,8.862-4.572,27.652-6.739,37.8-2.7,12.62-14.978,41.528-21.7,53.638.5.751,3.932,3.33,7.185,5.331C61,194.121,76.649,168.044,81.839,152.473c3.84-11.519,4.431-18.312,5.745-24.972a1.129,1.129,0,0,1,2.251-.033c.475,5.418-.088,12.554-.811,27.1-.83,16.693-4.781,44.589-4.172,55.164,1.738,0,7,.232,9.5.232,3.749-18.323,11.739-51.681,12.284-57.249,2.124-21.694,5.343-37.351-7.861-58.425-7.987.191-14.149-.473-20.725-.6" transform="translate(-7.64 -16.418)" fill="#2d4a73"/>
          <g id="Group_665" data-name="Group 665" transform="translate(71.186 76.787)" style="mix-blend-mode: multiply;isolation: isolate">
            <g id="Group_664" data-name="Group 664">
              <g id="Group_663" data-name="Group 663" clip-path="url(#clip-path-3)">
                <path id="Path_1026" data-name="Path 1026" d="M86.312,93.583l26.5,15.322A70.128,70.128,0,0,0,105.6,93.1Z" transform="translate(-86.312 -93.103)" fill="#2d4a73"/>
              </g>
            </g>
          </g>
          <path id="Path_1027" data-name="Path 1027" d="M102.857,56.1a30.87,30.87,0,0,1,2.359,2.584c.83,2.724,2.572,5.038,3.4,10.68,1.251,8.529-.671,12.963-3.576,17.209L85.149,86.8S81,60.345,83.828,55.166c0,0,9.009-1.659,10.582-1.514,0,0,8.455,6.664,8.447,2.452" transform="translate(-14.518 -9.401)" fill="#fff"/>
          <path id="Path_1028" data-name="Path 1028" d="M106.406,79.73l5.169,44.214L123,125.467l-9.293-46.781a23.875,23.875,0,0,0,0-7.069c-1.391-11.7-5.1-13.907-5.33-14.139s-1.97,22.251-1.97,22.251" transform="translate(-18.647 -10.073)" fill="#ff6b99"/>
          <path id="Path_1029" data-name="Path 1029" d="M106.753,53.685l-.348,25.379,3.824-17.731-1.854-1.391,1.739-1.507Z" transform="translate(-18.647 -9.408)" fill="#f995b4"/>
          <path id="Path_1030" data-name="Path 1030" d="M98.528,79.09c-.115-.232-.594,44.214-.594,44.214s-20.335,2.018-25.9-6.094c0,0,7.718-30.008,9.109-32.789s-.7-19.006-.7-19.006l8.228-11.589Z" transform="translate(-12.624 -9.433)" fill="#ff6b99"/>
          <path id="Path_1031" data-name="Path 1031" d="M95.907,50.313S99.268,64.22,101.7,78.59L92.663,62.365l1.854-1.854-3.709-7.185Z" transform="translate(-15.914 -8.817)" fill="#f995b4"/>
          <rect id="Rectangle_311" data-name="Rectangle 311" width="34.539" height="50.022" transform="matrix(0.609, -0.793, 0.793, 0.609, 0, 118.226)" fill="#8ebff4"/>
          <rect id="Rectangle_312" data-name="Rectangle 312" width="11.502" height="50.022" transform="matrix(0.609, -0.793, 0.793, 0.609, 0, 118.226)" fill="#7aa4d1"/>
          <path id="Rectangle_313" data-name="Rectangle 313" d="M6.513,0h4.768A6.514,6.514,0,0,1,17.8,6.514V11.28a6.514,6.514,0,0,1-6.514,6.514H6.514A6.514,6.514,0,0,1,0,11.28V6.513A6.513,6.513,0,0,1,6.513,0Z" transform="translate(26.471 109.22) rotate(-52.5)" fill="none" stroke="#8ebff4" stroke-miterlimit="10" stroke-width="4.071"/>
          <path id="Path_1032" data-name="Path 1032" d="M15.489,140.791l1.533,1.176a.671.671,0,0,0,.941-.124l2.083-2.714a.67.67,0,0,0-.124-.941l-1.533-1.177a.671.671,0,0,0-.941.125l-2.083,2.713a.672.672,0,0,0,.124.942" transform="translate(-2.668 -23.987)" fill="#fff"/>
          <path id="Path_1033" data-name="Path 1033" d="M42.126,161.229l1.533,1.176a.671.671,0,0,0,.941-.124l2.083-2.714a.67.67,0,0,0-.124-.941l-1.533-1.177a.671.671,0,0,0-.941.125L42,160.288a.671.671,0,0,0,.124.942" transform="translate(-7.336 -27.568)" fill="#fff"/>
          <path id="Path_1034" data-name="Path 1034" d="M46.034,109.7c2.115-3.56,25.372-44.107,25.372-44.107l6.654,7.457c-1.452,5.551-21.421,36.673-22.174,37.384a33.332,33.332,0,0,1-.283,3.882c-.137-.193-2.551-2.752-2.745-2.614s-3.714,4.824-4.321,4.38,1.418-3.339,1.115-3.56-1.887,3.089-2.521,2.811,1.114-3.56.783-3.617-1.555,3.145-2.024,2.895,1.114-3.56.977-3.753-1.361,3.007-2.024,2.895c-.5-.084.652-3.144,1.192-4.052" transform="translate(-7.837 -11.495)" fill="#ffb5ad"/>
          <path id="Path_1035" data-name="Path 1035" d="M65.708,101.653l8.536-31.274,4.7,9.487Z" transform="translate(-11.515 -12.334)" fill="#ff9385"/>
          <path id="Path_1036" data-name="Path 1036" d="M84.333,53.893c-.736-.817-6.142-.348-9.156,3.245S53.854,96.076,53.854,96.076l9.156,5.215S84.542,69.651,86.071,64.786c1.274-4.056.347-8.576-1.739-10.893" transform="translate(-9.438 -9.384)" fill="#ff6b99"/>
          <path id="Path_1037" data-name="Path 1037" d="M50.18,107.55,59.622,113a.918.918,0,1,0,.918-1.59L51.1,105.96a.918.918,0,1,0-.918,1.59" transform="translate(-8.713 -18.548)" fill="#ff578c"/>
          <path id="Path_1038" data-name="Path 1038" d="M134.265,47.132c1.848-7.17,3.993-15.609,4.106-21.485.1-4.984.72-12.6.238-14.008-.138-.4-4.313,3.243-4.857,6.145a38.9,38.9,0,0,0-.371,6.34s-5.531,14.011-7.777,18.143a16.67,16.67,0,0,1-8.417,7.476c-4.37,1.835.615.348.615.348l5.25,8.82s8.912-2.859,11.212-11.779" transform="translate(-20.222 -2.034)" fill="#ffb5ad"/>
          <path id="Path_1039" data-name="Path 1039" d="M135.58,52.791c-1.676,11.957-12.945,14.3-12.945,14.3l-1.342-2.833s5.678-.116,14.287-11.465" transform="translate(-21.256 -9.251)" fill="#ff9385"/>
          <path id="Path_1040" data-name="Path 1040" d="M110.48,53.661s7.417-.232,11.82-6.026,8-16.572,8-16.572l7.881,2.666s-1.043,33.26-24.569,32.681Z" transform="translate(-19.361 -5.444)" fill="#ff578c"/>
        </g>
      </g>
    </g>
    <rect id="Rectangle_378" data-name="Rectangle 378" width="242" height="237" transform="translate(5844 6289)" fill="none"/>
  </g>
</svg>
