<svg xmlns="http://www.w3.org/2000/svg" xmlns:xlink="http://www.w3.org/1999/xlink" width="242" height="237" viewBox="0 0 242 237">
  <defs>
    <clipPath id="clip-path">
      <rect id="Rectangle_325" data-name="Rectangle 325" width="182.321" height="169.718" fill="none"/>
    </clipPath>
    <clipPath id="clip-path-3">
      <rect id="Rectangle_323" data-name="Rectangle 323" width="2.769" height="1.844" fill="none"/>
    </clipPath>
  </defs>
  <g id="index-p6" transform="translate(-5252 -6289)">
    <path id="Path_1402" data-name="Path 1402" d="M94.5,0A94.5,94.5,0,1,1,0,94.5,94.5,94.5,0,0,1,94.5,0Z" transform="translate(5278 6289.349)" fill="#93e1e1"/>
    <g id="Group_686" data-name="Group 686" transform="translate(5285.262 6343.982)">
      <g id="Group_685" data-name="Group 685" clip-path="url(#clip-path)">
        <g id="Group_684" data-name="Group 684">
          <g id="Group_683" data-name="Group 683" clip-path="url(#clip-path)">
            <path id="Path_1296" data-name="Path 1296" d="M304.8,278.4a1.01,1.01,0,0,0,.939-1.38l-20.193-51.3a1.01,1.01,0,0,0-1.879.74l20.192,51.3a1.011,1.011,0,0,0,.94.64" transform="translate(-143.372 -113.786)" fill="#1e453e"/>
            <path id="Path_1297" data-name="Path 1297" d="M217.237,278.4a1.011,1.011,0,0,0,.94-.64l20.192-51.3a1.01,1.01,0,0,0-1.879-.74l-20.193,51.3a1.01,1.01,0,0,0,.939,1.379" transform="translate(-109.314 -113.786)" fill="#1e453e"/>
            <path id="Path_1298" data-name="Path 1298" d="M236.133,271.88a1.009,1.009,0,0,0,.334-.057l30.6-10.724a1.01,1.01,0,1,0-.668-1.906l-30.6,10.724a1.01,1.01,0,0,0,.334,1.962" transform="translate(-118.867 -131.007)" fill="#1e453e"/>
            <path id="Path_1299" data-name="Path 1299" d="M275.269,271.88a1.01,1.01,0,0,0,.334-1.962l-30.6-10.724a1.01,1.01,0,1,0-.668,1.906l30.6,10.724a1.011,1.011,0,0,0,.334.057" transform="translate(-123.184 -131.006)" fill="#1e453e"/>
            <path id="Path_1300" data-name="Path 1300" d="M228.474,278.4a1.01,1.01,0,0,0,.939-1.38l-20.192-51.3a1.01,1.01,0,1,0-1.879.74l20.192,51.3a1.011,1.011,0,0,0,.94.64" transform="translate(-104.786 -113.786)" fill="#1e453e"/>
            <path id="Path_1301" data-name="Path 1301" d="M140.913,278.4a1.01,1.01,0,0,0,.94-.64l20.192-51.3a1.01,1.01,0,0,0-1.879-.74l-20.193,51.3a1.01,1.01,0,0,0,.939,1.379" transform="translate(-70.728 -113.786)" fill="#1e453e"/>
            <path id="Path_1302" data-name="Path 1302" d="M159.809,271.88a1.01,1.01,0,0,0,.334-.057l30.6-10.724a1.01,1.01,0,1,0-.668-1.906l-30.6,10.724a1.01,1.01,0,0,0,.334,1.962" transform="translate(-80.281 -131.007)" fill="#1e453e"/>
            <path id="Path_1303" data-name="Path 1303" d="M198.945,271.88a1.01,1.01,0,0,0,.334-1.962l-30.6-10.724a1.01,1.01,0,1,0-.668,1.906l30.6,10.724a1.01,1.01,0,0,0,.334.057" transform="translate(-84.598 -131.006)" fill="#1e453e"/>
            <path id="Path_1304" data-name="Path 1304" d="M147.986,170.831s42.575,24.364,69.594,4.657a37.482,37.482,0,0,0,3.149-2.567q.528-.477,1.045-.983c23.036-22.513-6.338-58.623-6.338-58.623q-1.151.483-2.282.985-.4.177-.8.356c-42.067,18.97-64.367,56.175-64.367,56.175" transform="translate(-74.814 -57.286)" fill="#396c61"/>
            <path id="Path_1305" data-name="Path 1305" d="M286.363,128.831c3.514,7.039,7.372,17.572,5.8,27.767-1.369,8.882-4.574,15.3-8.77,19.9a37.48,37.48,0,0,0,3.149-2.567,40.21,40.21,0,0,0,6.495-17.2,38.61,38.61,0,0,0-.9-15.02,63.9,63.9,0,0,0-4.994-13.292,81.026,81.026,0,0,0-8.178-13.111q-.4.177-.8.356a.428.428,0,0,0,.082.158,79.743,79.743,0,0,1,8.116,13.009" transform="translate(-140.626 -58.294)" fill="#1e453e"/>
            <path id="Path_1306" data-name="Path 1306" d="M214.953,157.285s8.218,22.366.4,32.463-25.907,14.891-52.1-.4Z" transform="translate(-82.528 -79.515)" fill="#1e453e"/>
            <path id="Path_1307" data-name="Path 1307" d="M238.331,5.43c.311,4.912,2.013,11.921,4.528,18.59,3.361,8.91,8.17,17.21,13.042,19.079,8.516,3.267,12.872-2.784,12.872-2.784-12.581,2.515-13.162-11.131-12.291-21.341S254.545.731,247.074.053c-5.157-.468-7.36,2.272-8.231,4.013a6.331,6.331,0,0,0-.512,1.364" transform="translate(-120.488 0)" fill="#26120c"/>
            <path id="Path_1308" data-name="Path 1308" d="M238.331,9.588c.311,4.912,2.013,11.921,4.528,18.59l7.923,1.178s3.561-8.282-.162-14.848c-2.784-4.91-8.751-6.222-11.776-6.283a6.331,6.331,0,0,0-.512,1.364" transform="translate(-120.488 -4.158)" fill="#f4ad4b"/>
            <path id="Path_1309" data-name="Path 1309" d="M167.931,85.365l-.05.37-.072.479q-.08.495-.172,1c-.118.679-.255,1.369-.4,2.059-.293,1.382-.634,2.769-1.011,4.15a79.8,79.8,0,0,1-2.683,8.181c-.528,1.336-1.076,2.663-1.661,3.973s-1.212,2.6-1.873,3.869c-.159.321-.333.634-.5.95s-.334.633-.511.944c-.354.621-.7,1.249-1.069,1.858-.184.306-.362.616-.551.919l-.57.906-.142.227-.071.113-.018.028c0,.008-.016.026-.007.011l.03-.042a1.66,1.66,0,0,1,.111-.133.909.909,0,0,1,.07-.072c.079-.067.044-.019-.036.049a6.391,6.391,0,0,1-1.044.648c-.474.247-1.029.5-1.62.736-1.186.478-2.508.919-3.87,1.326s-2.777.778-4.211,1.124-2.89.674-4.359.978c-2.939.607-5.923,1.15-8.925,1.644q-2.25.376-4.512.71l-2.26.324-1.126.158-1.1.148.886,10.233,1.223-.07,1.2-.076c.795-.054,1.587-.117,2.378-.18q2.376-.192,4.749-.428c3.165-.325,6.333-.711,9.518-1.2s6.383-1.077,9.657-1.888a52.136,52.136,0,0,0,5.022-1.492c.865-.311,1.746-.658,2.673-1.089a18.826,18.826,0,0,0,2.977-1.706,12.441,12.441,0,0,0,1.725-1.476c.149-.152.307-.331.459-.506s.309-.376.466-.6l.172-.242.089-.13.179-.26.715-1.041c.237-.348.462-.7.694-1.054.467-.7.9-1.419,1.346-2.134.223-.356.43-.721.645-1.082s.43-.722.632-1.09l.614-1.1c.2-.367.395-.74.592-1.11.4-.739.764-1.493,1.143-2.241.734-1.507,1.433-3.03,2.08-4.575A92.854,92.854,0,0,0,178.9,97q.7-2.419,1.255-4.9c.185-.829.36-1.663.518-2.515q.116-.639.222-1.3l.1-.674.049-.354.054-.432Z" transform="translate(-62.545 -43.156)" fill="#f4ad4b"/>
            <path id="Path_1310" data-name="Path 1310" d="M193.858,149.15a.381.381,0,0,0,.354-.631,31.938,31.938,0,0,0-3.526-3.3.381.381,0,1,0-.468.6,31.917,31.917,0,0,1,3.433,3.216.38.38,0,0,0,.208.117" transform="translate(-96.09 -73.374)" fill="#d57635"/>
            <path id="Path_1311" data-name="Path 1311" d="M193.446,146.332a.381.381,0,0,0,.173-.741c-.014,0-1.458-.4-2.692-.638a.381.381,0,1,0-.146.747c1.206.235,2.622.622,2.636.626l.029.006" transform="translate(-96.294 -73.277)" fill="#d57635"/>
            <path id="Path_1312" data-name="Path 1312" d="M136.324,170.425a.369.369,0,0,0,.11,0,.381.381,0,0,0,.342-.416l-1.168-12.029a.381.381,0,0,0-.758.074l1.168,12.029a.381.381,0,0,0,.306.337" transform="translate(-68.172 -79.696)" fill="#d57635"/>
            <path id="Path_1313" data-name="Path 1313" d="M125.33,176.484a.379.379,0,0,0,.116,0l5.517-.631a.381.381,0,0,0-.087-.757l-5.517.631a.381.381,0,0,0-.03.752" transform="translate(-63.205 -88.521)" fill="#d57635"/>
            <path id="Path_1314" data-name="Path 1314" d="M128.953,169.493a.88.88,0,1,0,1.151-.473.88.88,0,0,0-1.151.473" transform="translate(-65.158 -85.414)" fill="#d57635"/>
            <path id="Path_1315" data-name="Path 1315" d="M89.866,286.92l-1.879,9.534-8.693,3c-3.652,1.261-12.343,1.2-13.3,3.647-.606,1.546,6.754,3.4,10,3.54s11.11,2.187,15.671,2.09,3.63-7.34,4.38-9.5,2.478-11.373,2.478-11.373Z" transform="translate(-33.344 -145.052)" fill="#f69d84"/>
            <path id="Path_1316" data-name="Path 1316" d="M83.079,305.42s-1.146,6.61,1.971,12.221c0,0-17.944-.636-21.309-4.551-1.242-1.444-.437-2.753,1.627-3.872.262-.142.543-.281.845-.418a22.586,22.586,0,0,1,2.495-.928c.249-.079.5-.154.763-.229.769-.221,1.589-.429,2.448-.623.255-.059.512-.115.774-.171.764-.16,1.555-.311,2.364-.451q.386-.067.776-.13c.762-.123,1.538-.236,2.322-.34.251-.033.5-.064.757-.1.77-.1,1.547-.18,2.324-.253.247-.024.493-.047.74-.069q.552-.05,1.1-.091" transform="translate(-31.926 -154.405)" fill="#396c61"/>
            <path id="Path_1317" data-name="Path 1317" d="M68.275,312.255a7.09,7.09,0,0,0-.018,4.27.35.35,0,0,1,0,.238.345.345,0,0,1-.208.213.351.351,0,0,1-.452-.2,7.649,7.649,0,0,1-.17-4.1c.262-.142.543-.281.845-.418" transform="translate(-33.989 -157.86)" fill="#1e453e"/>
            <path id="Path_1318" data-name="Path 1318" d="M74.747,309.916a.336.336,0,0,1-.011.189.06.06,0,0,1-.005.016,8.9,8.9,0,0,0,.047,5.612.352.352,0,1,1-.654.258,9.558,9.558,0,0,1-.139-5.846c.249-.079.5-.154.763-.229" transform="translate(-37.203 -156.678)" fill="#1e453e"/>
            <path id="Path_1319" data-name="Path 1319" d="M81.179,308.309a.321.321,0,0,1-.019.123l-.01.031a10.855,10.855,0,0,0,.145,6.855.349.349,0,0,1,.005.245.35.35,0,0,1-.657.017,11.383,11.383,0,0,1-.238-7.1c.255-.058.512-.115.774-.171" transform="translate(-40.413 -155.866)" fill="#1e453e"/>
            <path id="Path_1320" data-name="Path 1320" d="M87.531,307.135a12.812,12.812,0,0,0,.282,7.983.346.346,0,0,1,.007.248.357.357,0,0,1-.2.211.352.352,0,0,1-.458-.191,13.371,13.371,0,0,1-.41-8.12c.258-.044.517-.089.776-.131" transform="translate(-43.626 -155.272)" fill="#1e453e"/>
            <path id="Path_1321" data-name="Path 1321" d="M93.821,306.255a14.909,14.909,0,0,0,.511,8.815.351.351,0,1,1-.648.27,15.4,15.4,0,0,1-.62-8.989c.251-.033.5-.064.757-.1" transform="translate(-46.836 -154.827)" fill="#1e453e"/>
            <path id="Path_1322" data-name="Path 1322" d="M100.094,305.6a17.027,17.027,0,0,0,.755,9.532.353.353,0,0,1,.008.252.352.352,0,0,1-.655.021,17.491,17.491,0,0,1-.847-9.737c.247-.024.493-.047.74-.069" transform="translate(-50.046 -154.498)" fill="#1e453e"/>
            <path id="Path_1323" data-name="Path 1323" d="M84.252,322.513s6.085,1.081,10.114-.224a3.9,3.9,0,0,1-1.1,3.759s-14.259-.012-19.9-1.168-9.563-2.343-9.489-4.545Z" transform="translate(-32.296 -161.945)" fill="#396c61"/>
            <path id="Path_1324" data-name="Path 1324" d="M84.4,322.651a.351.351,0,0,1-.333.236,94.157,94.157,0,0,1-19.4-2.442.351.351,0,1,1,.17-.681,93.406,93.406,0,0,0,19.235,2.421.351.351,0,0,1,.349.353.358.358,0,0,1-.019.113" transform="translate(-32.555 -161.651)" fill="#1e453e"/>
            <path id="Path_1325" data-name="Path 1325" d="M29.5,278.122l-3.944,5.435s-5.5,1.17-9.829.083c-3.747-.941-10.989-5.746-13.133-4.219-1.352.963,3.8,6.539,6.435,8.429s8.108,7.9,11.98,10.316,7.395-3.806,8.86-5.557c2.558-3.057,6.076-7.9,6.076-7.9Z" transform="translate(-1.197 -140.604)" fill="#f69d84"/>
            <path id="Path_1326" data-name="Path 1326" d="M21.057,282.618s-4.573,4.908-5.031,11.311c0,0-14.678-10.342-15.355-15.46-.25-1.888,1.139-2.544,3.479-2.353.3.024.609.062.936.112a22.528,22.528,0,0,1,2.6.587c.251.07.5.145.763.226.765.234,1.565.509,2.39.816.246.09.492.184.742.28.727.284,1.471.59,2.226.915.24.1.481.208.721.315.705.313,1.417.643,2.13.985.228.109.457.221.686.333q1.045.512,2.084,1.059.33.172.657.347.489.26.974.528" transform="translate(-0.325 -139.574)" fill="#396c61"/>
            <path id="Path_1327" data-name="Path 1327" d="M6.52,276.261a7.087,7.087,0,0,0-2.349,3.565.354.354,0,0,1-.129.2.345.345,0,0,1-.291.065.351.351,0,0,1-.267-.418,7.637,7.637,0,0,1,2.1-3.524c.3.024.609.061.936.111" transform="translate(-1.758 -139.608)" fill="#1e453e"/>
            <path id="Path_1328" data-name="Path 1328" d="M12.49,277.788a.342.342,0,0,1-.113.153.056.056,0,0,1-.013.01,8.911,8.911,0,0,0-3.029,4.725.349.349,0,0,1-.129.207.351.351,0,0,1-.559-.349,9.56,9.56,0,0,1,3.079-4.972c.252.07.5.145.764.225" transform="translate(-4.368 -140.322)" fill="#1e453e"/>
            <path id="Path_1329" data-name="Path 1329" d="M18.232,279.949a.32.32,0,0,1-.083.092l-.025.02A10.852,10.852,0,0,0,14.5,285.88a.35.35,0,0,1-.13.209.35.35,0,0,1-.559-.345,11.384,11.384,0,0,1,3.681-6.075c.246.09.492.184.742.28" transform="translate(-6.978 -141.387)" fill="#1e453e"/>
            <path id="Path_1330" data-name="Path 1330" d="M23.789,282.4a12.816,12.816,0,0,0-4.128,6.839.343.343,0,0,1-.129.212.356.356,0,0,1-.281.068.352.352,0,0,1-.279-.411,13.379,13.379,0,0,1,4.1-7.023q.36.155.721.315" transform="translate(-9.588 -142.609)" fill="#1e453e"/>
            <path id="Path_1331" data-name="Path 1331" d="M29.215,285.05a14.9,14.9,0,0,0-4.391,7.66.351.351,0,1,1-.69-.128,15.4,15.4,0,0,1,4.4-7.866c.228.109.457.221.686.334" transform="translate(-12.198 -143.938)" fill="#1e453e"/>
            <path id="Path_1332" data-name="Path 1332" d="M34.566,287.878a17.026,17.026,0,0,0-4.579,8.395.35.35,0,0,1-.132.215.351.351,0,0,1-.56-.341,17.488,17.488,0,0,1,4.613-8.616q.331.173.657.347" transform="translate(-14.808 -145.361)" fill="#1e453e"/>
            <path id="Path_1333" data-name="Path 1333" d="M16.183,293.116s4.5,4.231,8.592,5.342a3.9,3.9,0,0,1-2.973,2.548S9.87,293.2,5.78,289.15s-6.727-7.19-5.461-8.993Z" transform="translate(0 -141.633)" fill="#396c61"/>
            <path id="Path_1334" data-name="Path 1334" d="M16.3,293.448a.35.35,0,0,1-.408.015A94.189,94.189,0,0,1,.981,280.813a.351.351,0,0,1,.515-.477,93.435,93.435,0,0,0,14.783,12.542.351.351,0,0,1,.1.486.345.345,0,0,1-.078.085" transform="translate(-0.448 -141.667)" fill="#1e453e"/>
            <path id="Path_1335" data-name="Path 1335" d="M84.32,176.041c3.086-2.045,46.364-4.444,59.2,1.986.972,3.295-20.259,11.938-26.485,18-18.4-.557-29.525,3.5-29.525,3.5s-9.169,13.384-13.971,18.016-14.861,18.126-14.861,18.126l-8.943-6.6s26.187-47.468,34.59-53.037" transform="translate(-25.141 -87.892)" fill="#b11722"/>
            <path id="Path_1336" data-name="Path 1336" d="M65.587,281.173a.381.381,0,0,0,.288-.688l-9.256-6.341a.381.381,0,0,0-.43.628l9.255,6.34a.389.389,0,0,0,.142.06" transform="translate(-28.323 -138.56)" fill="#870020"/>
            <path id="Path_1337" data-name="Path 1337" d="M70.194,250.6a.38.38,0,0,0,.385-.156c.044-.062,1.172-1.632,8.824-10.006,8.336-9.123,17.581-22.807,17.673-22.944a.381.381,0,0,0-.632-.425c-.092.136-9.306,13.775-17.6,22.856-7.736,8.466-8.843,10.022-8.886,10.084a.381.381,0,0,0,.239.592" transform="translate(-35.331 -109.655)" fill="#870020"/>
            <path id="Path_1338" data-name="Path 1338" d="M189.091,181.193s8.037,33.627-30.995,28.37c-17.616-2.373-25.412-6.694-25.412-6.694s-3.419,15.324-5.495,21.665-6.748,17.46-6.748,17.46L110,239.961s5.061-48.307,14.494-51.862,24.795-4.611,45.974-2.559c0,0,15.271-3.458,18.622-4.347" transform="translate(-55.611 -91.602)" fill="#e05042"/>
            <path id="Path_1339" data-name="Path 1339" d="M130.382,238.907a.381.381,0,0,0,.424-.228c2.957-7.163,5.269-16.344,7.127-23.72,1.54-6.117,3-11.895,3.926-12.442.754-.443,3.339.52,6.611,1.74,6.509,2.426,16.346,6.092,28.063,5.666,6.382-.232,11.448-2.324,15.057-6.219,6.224-6.716,5.908-16.605,5.9-16.7a.381.381,0,0,0-.761.03c0,.1.3,9.682-5.705,16.161-3.467,3.738-8.352,5.747-14.523,5.971-11.566.42-21.317-3.214-27.769-5.618-3.864-1.44-6.2-2.31-7.262-1.683-1.152.677-2.259,4.893-4.279,12.912-1.852,7.353-4.156,16.5-7.092,23.615a.38.38,0,0,0,.207.5.4.4,0,0,0,.073.022" transform="translate(-65.758 -94.353)" fill="#b11722"/>
            <path id="Path_1340" data-name="Path 1340" d="M111.481,287.9l.008,0,11.659,2.011a.38.38,0,0,0,.44-.311.376.376,0,0,0-.311-.44l-11.659-2.01a.381.381,0,0,0-.137.749" transform="translate(-56.204 -145.168)" fill="#b11722"/>
            <path id="Path_1341" data-name="Path 1341" d="M170.882,186.007l-41.109-1.694a.568.568,0,0,1-.544-.591l.18-4.369a.568.568,0,0,1,.591-.545l41.109,1.694a.569.569,0,0,1,.545.591l-.18,4.369a.569.569,0,0,1-.592.545" transform="translate(-65.332 -90.396)" fill="#26120c"/>
            <path id="Path_1342" data-name="Path 1342" d="M110,152.588a3.514,3.514,0,0,1-3.285-2.744l-6.681-29.912a2.85,2.85,0,0,1,2.9-3.469l18.914.78a2.849,2.849,0,0,1,2.656,2.19l8.076,34.086Z" transform="translate(-50.54 -58.876)" fill="#26120c"/>
            <path id="Path_1343" data-name="Path 1343" d="M124.127,150.471A4.988,4.988,0,0,0,128.1,154.3c1.758.154,2.828-1.311,2.391-3.272a4.987,4.987,0,0,0-3.975-3.828c-1.758-.154-2.829,1.311-2.391,3.271" transform="translate(-62.703 -74.411)" fill="#f4ad4b"/>
            <path id="Path_1344" data-name="Path 1344" d="M131.379,152.407c.088.392.282.721.435.734s.206-.294.119-.686-.282-.721-.435-.734-.206.294-.119.686" transform="translate(-66.397 -76.703)" fill="#26120c"/>
            <path id="Path_1345" data-name="Path 1345" d="M128.02,152.114c.087.392.282.721.435.734s.206-.294.119-.686-.283-.721-.436-.734-.206.294-.118.686" transform="translate(-64.699 -76.554)" fill="#26120c"/>
            <path id="Path_1346" data-name="Path 1346" d="M129.3,155.975c1.369.12,1.342-1.379,1.341-1.394a.223.223,0,0,0-.147-.193.1.1,0,0,0-.138.1c0,.054.017,1.275-1.125,1.175a2.34,2.34,0,0,1-1.7-1.423.2.2,0,0,0-.191-.132c-.071.012-.1.089-.065.175a2.821,2.821,0,0,0,2.029,1.689" transform="translate(-64.334 -77.91)" fill="#26120c"/>
            <path id="Path_1347" data-name="Path 1347" d="M146.884,120.231l8.009,33.8,2.161.089-8.009-33.8a2.854,2.854,0,0,0-2.657-2.192l-2.161-.089a2.854,2.854,0,0,1,2.657,2.192" transform="translate(-72.914 -59.675)" fill="#26120c"/>
            <path id="Path_1348" data-name="Path 1348" d="M156.722,153.858a.31.31,0,0,1-.3-.238l-7.437-31.391a.309.309,0,0,1,.6-.142l7.437,31.391a.309.309,0,0,1-.229.372.326.326,0,0,1-.072.008" transform="translate(-75.315 -61.6)" fill="#564c54"/>
            <path id="Path_1349" data-name="Path 1349" d="M198.7,103.628c.012.037.018.067.03.1a9.711,9.711,0,0,0,.418,1.164,18.321,18.321,0,0,0,3.287,4.919c.182.2.292.307.292.307s-.006.025-.006.043c-.013.116-.025.232-.038.361a16.39,16.39,0,0,1-.263,1.725c-1.617,7.441-2.015,8.687-2.669,11.848,9.759,14.064,32.885,5.149,34.108,3.4,1.058-7.539,1.058-7.539,2.179-14.835A81.532,81.532,0,0,1,239.93,98.6c.074-.208.148-.415.229-.624.574-1.546,1.186-3.086,1.827-4.564,2.807-6.476,2.15-12.3-1.634-14.95-1.286-.9-5.233-2.079-6.982-2.446-.471-.1-.936-.193-1.376-.28-2.464-.474-4.391-.744-4.391-.744l-11.822.105c-1.163.131-2.21.274-3.153.448-.827.144-1.574.312-2.247.5-6.027,1.656-6.259,4.824-7.362,10.536a43.291,43.291,0,0,1-1.252,4.769c-.161.483-.322.959-.483,1.436-1.546,4.535-3.242,8.433-2.583,10.84" transform="translate(-100.379 -37.913)" fill="#f4ad4b"/>
            <path id="Path_1350" data-name="Path 1350" d="M252,75.207s6.156.984,6.123,4.51-12.592,3.244-12.592,3.244S251.358,79.1,252,75.207" transform="translate(-124.129 -38.021)" fill="#fff"/>
            <path id="Path_1351" data-name="Path 1351" d="M227.687,75.207s-6.157.984-6.124,4.51,8.69,3.581,8.69,3.581a37.7,37.7,0,0,1-2.566-8.092" transform="translate(-112.011 -38.021)" fill="#fff"/>
            <path id="Path_1352" data-name="Path 1352" d="M233.588,74.23l-.427,4.184a4.144,4.144,0,0,0,6.29,3.949c3.412-2.083,6.474-4.929,6.513-7.623Z" transform="translate(-117.863 -37.527)" fill="#f69d84"/>
            <path id="Path_1353" data-name="Path 1353" d="M206.7,145.42c0,.012-.006.024-.006.043-.012.116-.025.232-.038.36a20.14,20.14,0,0,0,8.206-.057,18.645,18.645,0,0,1,11.755,1.785.322.322,0,0,0,.165.044.316.316,0,0,0,.276-.165.321.321,0,0,0-.115-.441,19.017,19.017,0,0,0-12.207-1.861,19.177,19.177,0,0,1-8.328-.017c.183.2.293.307.293.307" transform="translate(-104.347 -73.211)" fill="#d57635"/>
            <path id="Path_1354" data-name="Path 1354" d="M223.449,106.985c3.945.014,12.015-5.609,12.357-5.848a.324.324,0,0,0-.372-.531c-.082.057-8.242,5.744-11.983,5.73-3.579-.012-4.359-3.924-4.366-3.964a.324.324,0,1,0-.637.12c.008.044.892,4.478,5,4.492" transform="translate(-110.434 -50.832)" fill="#d57635"/>
            <path id="Path_1355" data-name="Path 1355" d="M200.37,147.595a.38.38,0,0,0,.435-.259c.929-2.937,2.037-8.152,2.048-8.2a.381.381,0,0,0-.147-.385,11.034,11.034,0,0,1-3.873-6.3.381.381,0,1,0-.75.132,11.593,11.593,0,0,0,3.974,6.624c-.225,1.041-1.173,5.351-1.979,7.9a.38.38,0,0,0,.248.478l.043.011" transform="translate(-100.138 -66.8)" fill="#d57635"/>
            <path id="Path_1356" data-name="Path 1356" d="M213.3,29.133s-1.952,5.735,1.123,7.958l.27-7.876Z" transform="translate(-107.526 -14.728)" fill="#26120c"/>
            <path id="Path_1357" data-name="Path 1357" d="M220.652,13.047s7.3-7.2,15.975-1.257c8.822,6.045,7.835,21.477-.083,23.354,0,0-13.182-11.481-15.892-22.1" transform="translate(-111.551 -4.772)" fill="#26120c"/>
            <path id="Path_1358" data-name="Path 1358" d="M217.794,46.649s-2.135-1.77-2.761.492.892,6.343,3.454,5.175Z" transform="translate(-108.639 -23.25)" fill="#ff7c66"/>
            <path id="Path_1359" data-name="Path 1359" d="M232.871,62.357l.777,5.717s4.208,5.75,12.181-1.874c-1.547-2.281-2.813-6.532-2.513-8.86a11.276,11.276,0,0,0-1.59,1.189,6.114,6.114,0,0,1-.665.441c-2.092,1.352-5.289,3.1-8.19,3.386" transform="translate(-117.728 -28.989)" fill="#f69d84"/>
            <path id="Path_1360" data-name="Path 1360" d="M232.871,63.573l.368,2.711c2.361-.985,6.545-3.114,8.487-6.538-.206.14-.428.288-.665.441-2.092,1.352-5.289,3.1-8.19,3.386" transform="translate(-117.728 -30.204)" fill="#26120c"/>
            <path id="Path_1361" data-name="Path 1361" d="M218.642,41.723c5.093,4.885,15.422-3.472,15.732-3.727l.008-.007q.029-.7.031-1.378A35.536,35.536,0,0,0,232.9,26.1a8.034,8.034,0,0,0-6.531-6.95c-3.59-.627-6.349,1.393-8.065,2.276-2.591,1.334-3.684,5.184-2.8,10.235,1.085,6.2,1.732,8.707,3.14,10.058" transform="translate(-108.795 -9.623)" fill="#f69d84"/>
            <path id="Path_1362" data-name="Path 1362" d="M229.158,32.489s-.984.278-.469,1.134,2.346-.515,4.086.921c0,0,.22-2.313-3.617-2.055" transform="translate(-115.538 -16.414)" fill="#26120c"/>
            <path id="Path_1363" data-name="Path 1363" d="M217.732,34.143s1.02-.079.832.9-2.379.327-3.517,2.275c0,0-1-2.094,2.685-3.177" transform="translate(-108.654 -17.26)" fill="#26120c"/>
            <path id="Path_1364" data-name="Path 1364" d="M233.017,45.541c.084.468,1.114.675,2.3.463s2.084-.762,2-1.23-1.114-.675-2.3-.463-2.083.762-2,1.23" transform="translate(-117.799 -22.36)" fill="#ff7c66"/>
            <g id="Group_682" data-name="Group 682" transform="translate(106.359 23.72)" opacity="0.8">
              <g id="Group_681" data-name="Group 681">
                <g id="Group_680" data-name="Group 680" clip-path="url(#clip-path-3)">
                  <path id="Path_1365" data-name="Path 1365" d="M215.347,49.817c.169-.013.345-.036.523-.067,1.187-.212,2.083-.762,2-1.23s-1.113-.675-2.3-.464c-.161.029-.316.064-.464.1Z" transform="translate(-215.105 -47.972)" fill="#ff7c66"/>
                </g>
              </g>
            </g>
            <path id="Path_1366" data-name="Path 1366" d="M248.814,52.867a5.937,5.937,0,0,0,2.553,2.233h0l0-.007q.03-.7.032-1.378a4.986,4.986,0,0,1-2.592-.848" transform="translate(-125.788 -26.727)" fill="#26120c"/>
            <path id="Path_1367" data-name="Path 1367" d="M249.587,41.075s1.953-3.906,4.317-1.531c1.948,1.958.054,8.3-3.369,6.852Z" transform="translate(-126.179 -19.604)" fill="#f69d84"/>
            <path id="Path_1368" data-name="Path 1368" d="M254.426,51s-1.54,4.29-.224,4.612c2.419.591.224-4.612.224-4.612" transform="translate(-128.243 -25.782)" fill="#fff"/>
            <path id="Path_1369" data-name="Path 1369" d="M251.5,47.057a.269.269,0,0,0,.221-.282,4.483,4.483,0,0,1,1.931-4.014.268.268,0,0,0-.284-.455,5.02,5.02,0,0,0-2.183,4.506.268.268,0,0,0,.286.25l.029,0" transform="translate(-126.982 -21.367)" fill="#26120c"/>
            <path id="Path_1370" data-name="Path 1370" d="M254.17,46.9a.268.268,0,0,0,.084-.5,2.587,2.587,0,0,0-1.958-.3.268.268,0,0,0,.222.489,2.1,2.1,0,0,1,1.475.281.27.27,0,0,0,.177.029" transform="translate(-127.468 -23.252)" fill="#26120c"/>
            <path id="Path_1371" data-name="Path 1371" d="M231.27,40.786c.114.642.5,1.111.858,1.047s.558-.636.444-1.279-.5-1.111-.858-1.047-.558.636-.444,1.279" transform="translate(-116.902 -19.97)" fill="#26120c"/>
            <path id="Path_1372" data-name="Path 1372" d="M218.421,42.795c.114.642.5,1.111.858,1.047s.558-.636.443-1.279-.5-1.111-.857-1.047-.558.636-.443,1.279" transform="translate(-110.406 -20.986)" fill="#26120c"/>
            <path id="Path_1373" data-name="Path 1373" d="M224.349,53.166a5.675,5.675,0,0,0,2.878-1.727.268.268,0,0,0-.409-.348c-.095.111-2.3,2.639-4.565,1.1a.268.268,0,1,0-.3.444,3.148,3.148,0,0,0,2.4.535" transform="translate(-112.147 -25.781)" fill="#26120c"/>
            <path id="Path_1374" data-name="Path 1374" d="M244.532,26.793s-.448,7.6,1.812,8.049c2.675.535,2.88-5.471,1.084-10.24Z" transform="translate(-123.605 -12.438)" fill="#26120c"/>
            <path id="Path_1375" data-name="Path 1375" d="M230.03,23.345s-10.746,1.524-12.886-2.64c0,0-.969,3.7-3.33,3.94,0,0-1.517-4.069,3.265-8.923,0,0,11.452-3.116,14.24,1.7s-1.289,5.922-1.289,5.922" transform="translate(-107.978 -7.447)" fill="#26120c"/>
            <path id="Path_1376" data-name="Path 1376" d="M229.056,42.722a2.048,2.048,0,0,1-2.023-1.752l-.2-1.416a1.021,1.021,0,0,1,.863-1.155l5.754-.831a1.021,1.021,0,0,1,1.155.863l.2,1.416a2.045,2.045,0,0,1-1.731,2.316l-3.725.538a2.11,2.11,0,0,1-.293.021m4.536-4.671a.555.555,0,0,0-.075.005l-5.754.831a.526.526,0,0,0-.445.595l.2,1.416a1.55,1.55,0,0,0,1.756,1.313L233,41.674a1.55,1.55,0,0,0,1.312-1.756l-.2-1.417a.526.526,0,0,0-.52-.45" transform="translate(-114.668 -18.987)" fill="#fff"/>
            <path id="Path_1377" data-name="Path 1377" d="M213.922,45.185a2.045,2.045,0,0,1-2.019-1.752l-.2-1.416a1.02,1.02,0,0,1,.863-1.155l3.879-.561a1.02,1.02,0,0,1,1.155.863l.2,1.416a2.047,2.047,0,0,1-1.731,2.317l-1.85.267a2.082,2.082,0,0,1-.3.021m2.665-4.4a.555.555,0,0,0-.075.005l-3.879.561a.525.525,0,0,0-.445.595l.2,1.416a1.55,1.55,0,0,0,1.756,1.312L216,44.408a1.552,1.552,0,0,0,1.313-1.756l-.2-1.417a.526.526,0,0,0-.52-.45" transform="translate(-107.019 -20.369)" fill="#fff"/>
            <path id="Path_1378" data-name="Path 1378" d="M224.314,44.48a2.617,2.617,0,0,0,1.168-.517.269.269,0,0,0-.334-.421,2.109,2.109,0,0,1-1.041.426l.426-2.648a.268.268,0,1,0-.53-.086l-.479,2.975a.269.269,0,0,0,.245.311,2.35,2.35,0,0,0,.544-.039" transform="translate(-113.002 -20.732)" fill="#26120c"/>
            <path id="Path_1379" data-name="Path 1379" d="M222.9,41.068l-.255-.423a2.566,2.566,0,0,1,2.377-.238l-.183.459a2.071,2.071,0,0,0-1.939.2" transform="translate(-112.558 -20.332)" fill="#fff"/>
            <path id="Path_1380" data-name="Path 1380" d="M241.81,38.885a.247.247,0,0,1-.08-.481,9.258,9.258,0,0,1,5.431-.137.247.247,0,1,1-.175.462,8.932,8.932,0,0,0-5.1.142.238.238,0,0,1-.08.013" transform="translate(-122.122 -19.158)" fill="#fff"/>
            <path id="Path_1381" data-name="Path 1381" d="M176.584,173.639s-7.41-3.338-10.8-1.627l1.342,5.664,4.275,2c1.3.608,1.433,3.089,6.4,3.113Z" transform="translate(-83.813 -86.714)" fill="#f69d84"/>
            <path id="Path_1382" data-name="Path 1382" d="M238.644,99.893c-.036-1.777-.142-3.548-.33-5.325-.094-.889-.207-1.779-.346-2.679-.072-.45-.15-.9-.236-1.365-.043-.231-.089-.465-.14-.706l-.079-.371-.045-.2-.063-.265-12.858,3.2.072.331.091.465c.061.32.117.651.171.987.11.671.206,1.359.285,2.051.162,1.385.262,2.792.306,4.2a47.851,47.851,0,0,1-.408,8.377c-.094.687-.209,1.371-.335,2.049s-.264,1.354-.422,2.023-.33,1.331-.52,1.987-.4,1.305-.622,1.948-.465,1.277-.716,1.906-.529,1.246-.821,1.856-.6,1.211-.925,1.8c-.159.3-.33.587-.5.879l-.017.03a5.709,5.709,0,0,1-.476.335,14.533,14.533,0,0,1-1.49.806,38.969,38.969,0,0,1-3.816,1.524c-2.736.948-5.674,1.749-8.644,2.491s-6.008,1.4-9.057,2.012q-2.289.467-4.588.89l-2.3.413-1.146.2-1.12.19,1.244,10.2,1.247-.116,1.219-.12q1.215-.128,2.425-.27,2.422-.282,4.839-.611c3.225-.449,6.45-.963,9.689-1.591s6.491-1.356,9.821-2.337a47.718,47.718,0,0,0,5.122-1.812c.188-.081.377-.163.568-.25.708-.318,1.434-.674,2.2-1.109.483-.278.984-.588,1.508-.962a13.559,13.559,0,0,0,1.659-1.383,11.51,11.51,0,0,0,.9-1c.155-.2.3-.4.455-.625l.113-.168.051-.083.093-.144c.247-.387.493-.774.727-1.168.427-.7.828-1.415,1.214-2.137.046-.086.091-.171.137-.257.428-.81.827-1.633,1.209-2.464s.736-1.671,1.063-2.522a52.347,52.347,0,0,0,2.829-10.455,60.944,60.944,0,0,0,.77-10.654M220.235,123.03a.217.217,0,0,1,.017-.021.5.5,0,0,1,.1-.1c.016-.007-.027.045-.122.126" transform="translate(-94.816 -44.986)" fill="#f4ad4b"/>
            <path id="Path_1383" data-name="Path 1383" d="M269.622,164.279c-.386.722-.787,1.436-1.214,2.137-.233.395-.48.781-.727,1.168l-.093.144-.051.083-.113.168c-.152.23-.3.426-.455.625a11.505,11.505,0,0,1-.9,1,13.523,13.523,0,0,1-1.659,1.383c-.524.373-1.025.684-1.508.962-.761.435-1.487.791-2.2,1.109.359-8.507,5.938-9.085,8.911-8.779" transform="translate(-131.802 -83.021)" fill="#d57635"/>
            <path id="Path_1384" data-name="Path 1384" d="M256.3,160.436a.381.381,0,0,0,.345-.64,38.789,38.789,0,0,0-4.537-3.774.381.381,0,1,0-.439.623,38.789,38.789,0,0,1,4.433,3.685.38.38,0,0,0,.2.107" transform="translate(-127.151 -78.842)" fill="#d57635"/>
            <path id="Path_1385" data-name="Path 1385" d="M255.778,157.872a.381.381,0,0,0,.181-.739c-.084-.025-2.068-.616-3.632-.909a.381.381,0,0,0-.444.3.386.386,0,0,0,.3.444c1.522.285,3.533.884,3.553.89l.037.009" transform="translate(-127.336 -78.976)" fill="#d57635"/>
            <path id="Path_1386" data-name="Path 1386" d="M202.84,136.837a.379.379,0,0,0,.165,0c14.126-3.512,23.613-7.544,24.09-8a.376.376,0,0,0,.089-.131c.324-.8,7.924-19.653,6.831-27.251a.381.381,0,1,0-.754.108c1.023,7.109-6.118,25.193-6.74,26.75-.987.573-10.215,4.436-23.7,7.787a.381.381,0,0,0,.019.744" transform="translate(-102.39 -51.122)" fill="#d57635"/>
            <path id="Path_1387" data-name="Path 1387" d="M263.33,106.429a.381.381,0,0,0,.391-.583l-1.295-1.961a.381.381,0,0,0-.635.42l1.294,1.961a.38.38,0,0,0,.245.164" transform="translate(-132.316 -52.432)" fill="#d57635"/>
            <path id="Path_1388" data-name="Path 1388" d="M200.485,184.489a.366.366,0,0,0,.123,0,.381.381,0,0,0,.327-.427l-1.321-9.955a.381.381,0,1,0-.755.1l1.32,9.954a.381.381,0,0,0,.3.324" transform="translate(-100.532 -87.855)" fill="#d57635"/>
            <path id="Path_1389" data-name="Path 1389" d="M189.71,190.564a.375.375,0,0,0,.129,0l5.492-.824a.381.381,0,0,0-.113-.753l-5.491.824a.381.381,0,0,0-.016.751" transform="translate(-95.752 -95.541)" fill="#d57635"/>
            <path id="Path_1390" data-name="Path 1390" d="M193.1,183.632a.88.88,0,1,0,1.133-.513.88.88,0,0,0-1.133.513" transform="translate(-97.591 -92.547)" fill="#d57635"/>
          </g>
        </g>
      </g>
    </g>
    <g id="Group_688" data-name="Group 688" transform="translate(5261.73 6216.915)">
      <g id="Group_689" data-name="Group 689" transform="translate(45 20)">
        <path id="Path_1401" data-name="Path 1401" d="M0,0H42.951V29.669H0Z" transform="matrix(1, -0.001, 0.001, 1, 8.368, 124.443)" fill="#b8c1ea"/>
        <path id="Path_1392" data-name="Path 1392" d="M8.369,124.443l0,1.9,21.5,19,21.448-19.064,0-1.9L29.872,143.51Z" fill="#46235f"/>
        <path id="Path_1393" data-name="Path 1393" d="M34,139.76l16.114,14.292,1.244,0v-.757L34.927,138.719Z" fill="#46235f"/>
        <path id="Path_1394" data-name="Path 1394" d="M8.41,153.455v.656l1.356,0L25.84,139.771l-.926-1.038Z" fill="#46235f"/>
        <path id="Path_1395" data-name="Path 1395" d="M51.319,124.38,29.872,143.51l-21.5-19.068Z" fill="#b8c1ea"/>
        <path id="Path_1396" data-name="Path 1396" d="M59.034,124.777a8.99,8.99,0,1,1-8.99-8.99,8.99,8.99,0,0,1,8.99,8.99" fill="#545dbf"/>
        <path id="Path_1397" data-name="Path 1397" d="M48.2,129.049h0a.876.876,0,0,1-.617-.255l-2.2-2.2a.872.872,0,0,1,1.233-1.233l1.587,1.587,6.183-6.183a.872.872,0,0,1,1.233,1.233l-6.8,6.8a.876.876,0,0,1-.617.255" fill="#fff"/>
        <path id="Path_1399" data-name="Path 1399" d="M26.8,85.4H6.406A2.375,2.375,0,0,1,4.03,83.023V62.631a2.376,2.376,0,0,1,2.376-2.376H26.8a2.377,2.377,0,0,1,2.376,2.376V83.023A2.376,2.376,0,0,1,26.8,85.4" transform="translate(51.843 22.829)" fill="#545dbf"/>
        <path id="Path_1400" data-name="Path 1400" d="M24.962,68.632c-.042-.174-.083-.347-.126-.52a3.894,3.894,0,0,0-.854-1.625,3.974,3.974,0,0,0-1.021-.852,1.167,1.167,0,0,0-1.527.3Q20.382,67.2,19.343,68.48a1.21,1.21,0,0,0,.171,1.707c.377.334.775.645,1.165.964a1.462,1.462,0,0,0,.152.1,11.209,11.209,0,0,1-4.769,5.821c-.274-.228-.561-.468-.848-.706-.148-.122-.293-.246-.446-.362a1.2,1.2,0,0,0-1.454-.074,1.823,1.823,0,0,0-.388.382c-.634.764-1.259,1.536-1.893,2.3a1.622,1.622,0,0,0-.373.819l.033.341a2.6,2.6,0,0,0,.339.568,4.319,4.319,0,0,0,1.264.918,3.574,3.574,0,0,0,1.788.36,6.851,6.851,0,0,0,1.219-.234,9.778,9.778,0,0,0,2.835-1.367A14.871,14.871,0,0,0,20.526,78a24.171,24.171,0,0,0,2.642-3.3,11.963,11.963,0,0,0,1.51-2.957,6.7,6.7,0,0,0,.33-1.646c.015-.226.02-.454.03-.68-.025-.26-.051-.519-.076-.779" transform="translate(50.595 21.848)" fill="#fff"/>
      </g>
    </g>
    <rect id="Rectangle_376" data-name="Rectangle 376" width="242" height="237" transform="translate(5252 6289)" fill="none"/>
  </g>
</svg>
