<svg xmlns="http://www.w3.org/2000/svg" xmlns:xlink="http://www.w3.org/1999/xlink" width="242" height="237" viewBox="0 0 242 237">
  <defs>
    <clipPath id="clip-path">
      <rect id="Rectangle_322" data-name="Rectangle 322" width="33.522" height="46.403" fill="none"/>
    </clipPath>
  </defs>
  <g id="index-p7" transform="translate(-5548 -6289)">
    <path id="Path_1402" data-name="Path 1402" d="M94.5,0A94.5,94.5,0,1,1,0,94.5,94.5,94.5,0,0,1,94.5,0Z" transform="translate(5574 6289.349)" fill="#93e1e1"/>
    <g id="Group_679" data-name="Group 679" transform="translate(5775.534 6358.816)">
      <path id="Path_1273" data-name="Path 1273" d="M74.5,32.912l-2.4.647A1.217,1.217,0,0,1,70.6,32.7L68.7,25.629a1.217,1.217,0,0,1,.859-1.492l2.4-.647a1.217,1.217,0,0,1,1.492.859l1.906,7.072a1.217,1.217,0,0,1-.859,1.492" transform="translate(-228.633 -34.154)" fill="#545dbf"/>
      <path id="Path_1274" data-name="Path 1274" d="M.074,22.7c7.308,26.041,20.918,72.315,24.575,84.725a3.419,3.419,0,0,0,4.1,2.352L90.688,94.5,66.833,3.482,1.479,20.26A1.968,1.968,0,0,0,.074,22.7" transform="translate(-182 -20.593)" fill="#545dbf"/>
      <g id="Group_679-2" data-name="Group 679" transform="translate(-165.076 33.109)" opacity="0.3">
        <g id="Group_676" data-name="Group 676">
          <g id="Group_675" data-name="Group 675" clip-path="url(#clip-path)">
            <path id="Path_1204" data-name="Path 1204" d="M84.892,181.706c-2.545-6.084-8.6-9.913-14.613-12.622S57.8,164.3,52.765,160.047l0,2.192a35.075,35.075,0,0,0,14.151,18.51c2.64,1.715,5.541,3.093,7.8,5.283,5.347,5.174,5.586,14.7.505,20.138,2.726.922,5.822-.53,7.595-2.8s2.477-5.177,2.935-8.018c.735-4.561.925-9.388-.857-13.651" transform="translate(-52.76 -160.047)" fill="#26244a"/>
          </g>
        </g>
      </g>
      <path id="Path_1275" data-name="Path 1275" d="M109.758,58.1c-2.866-3.678-7.1-6.982-10.937-9.718-7.693-5.491-10.969-10.023-13.6-18.9-2.639-8.894-7.647-26-7.647-26L15.809,19.523s5.465,16.869,7.826,25.818,7.9,17.82,15.589,23.311c3.833,2.736,8.406,4.438,12.053,7.4,7.89,6.416,9.719,18.73,4.012,27.016L114.16,87.883c5.707-8.287,2.041-21.514-4.4-29.787" transform="translate(-192.524 -21.136)" fill="#dadef1"/>
      <path id="Path_1277" data-name="Path 1277" d="M98.069,15.524,76.631,21.3A1.573,1.573,0,0,1,74.7,20.191l-1.72-6.386a1.572,1.572,0,0,1,1.109-1.927L95.53,6.1a1.572,1.572,0,0,1,1.927,1.109L99.178,13.6a1.572,1.572,0,0,1-1.109,1.927" transform="translate(-231.536 -22.335)" fill="#f2a441"/>
      <path id="Path_1278" data-name="Path 1278" d="M100.7,1.809,90.024,4.685a.559.559,0,0,0-.253.932l4.781,4.849,4.934-1.229,1.9-6.738a.559.559,0,0,0-.684-.691" transform="translate(-242.867 -19.443)" fill="#f2a441"/>
      <path id="Path_1280" data-name="Path 1280" d="M76.105,98.73l-5.182,1.4a2.812,2.812,0,0,1-3.448-1.984l-1.4-5.181a2.812,2.812,0,0,1,1.984-3.447l5.182-1.4A2.813,2.813,0,0,1,76.693,90.1l1.4,5.181a2.812,2.812,0,0,1-1.984,3.447" transform="translate(-226.818 -78.014)" fill="#fff"/>
      <path id="Path_1281" data-name="Path 1281" d="M136.273,68.724,113,75a1.172,1.172,0,0,1-1.436-.827l-.029-.108a1.172,1.172,0,0,1,.827-1.436l23.276-6.272a1.172,1.172,0,0,1,1.436.827l.029.108a1.172,1.172,0,0,1-.827,1.436" transform="translate(-257.729 -63.27)" fill="#b8c1ea"/>
      <path id="Path_1282" data-name="Path 1282" d="M133.939,88.621l-13.851,3.732a1.172,1.172,0,0,1-1.436-.827l-.029-.107a1.172,1.172,0,0,1,.827-1.437L133.3,86.25a1.172,1.172,0,0,1,1.436.827l.029.108a1.172,1.172,0,0,1-.827,1.436" transform="translate(-262.545 -76.785)" fill="#b8c1ea"/>
      <path id="Path_1283" data-name="Path 1283" d="M98.082,149.636l-5.3,1.429a2.719,2.719,0,0,1-3.2-1.536l-2.249-5.146a2.719,2.719,0,0,1,1.784-3.714l5.3-1.429a2.719,2.719,0,0,1,3.2,1.536l2.249,5.146a2.719,2.719,0,0,1-1.784,3.714" transform="translate(-241.163 -112.741)" fill="#fff"/>
      <path id="Path_1284" data-name="Path 1284" d="M159,119.253l-23.276,6.272a1.172,1.172,0,0,1-1.436-.827l-.029-.107a1.172,1.172,0,0,1,.827-1.437l23.276-6.272a1.172,1.172,0,0,1,1.436.827l.029.108a1.172,1.172,0,0,1-.827,1.436" transform="translate(-273.164 -97.591)" fill="#b8c1ea"/>
      <path id="Path_1285" data-name="Path 1285" d="M159.191,138.194l-13.851,3.732a1.172,1.172,0,0,1-1.436-.827l-.029-.107a1.172,1.172,0,0,1,.827-1.437l13.851-3.732a1.172,1.172,0,0,1,1.437.827l.029.107a1.172,1.172,0,0,1-.827,1.437" transform="translate(-279.697 -110.456)" fill="#b8c1ea"/>
      <path id="Path_1286" data-name="Path 1286" d="M171.07,241.864l-6.337,1.708a2.214,2.214,0,0,1-2.723-1.6l-1.605-6.365a2.213,2.213,0,0,1,1.57-2.679l6.337-1.708a2.214,2.214,0,0,1,2.723,1.6l1.605,6.366a2.213,2.213,0,0,1-1.57,2.679" transform="translate(-290.908 -175.232)" fill="#fff"/>
      <path id="Path_1287" data-name="Path 1287" d="M234.588,211.341l-23.276,6.272a1.172,1.172,0,0,1-1.436-.827l-.029-.107a1.172,1.172,0,0,1,.827-1.437l23.276-6.272a1.172,1.172,0,0,1,1.436.827l.029.108a1.172,1.172,0,0,1-.827,1.436" transform="translate(-324.508 -160.141)" fill="#b8c1ea"/>
      <path id="Path_1288" data-name="Path 1288" d="M228.737,232.523l-13.851,3.732a1.172,1.172,0,0,1-1.436-.827l-.029-.107a1.172,1.172,0,0,1,.827-1.437l13.851-3.732a1.172,1.172,0,0,1,1.436.827l.029.108a1.172,1.172,0,0,1-.827,1.436" transform="translate(-326.935 -174.528)" fill="#b8c1ea"/>
      <path id="Path_1289" data-name="Path 1289" d="M138.9,196.637l-5.556,1.5A4.683,4.683,0,0,1,128.887,197l-3.721-3.558a1.465,1.465,0,0,1,.631-2.473l5.556-1.5a4.683,4.683,0,0,1,4.454,1.137l3.721,3.558a1.465,1.465,0,0,1-.631,2.473" transform="translate(-266.71 -146.813)" fill="#fff"/>
      <path id="Path_1290" data-name="Path 1290" d="M197.721,165.412l-23.276,6.272a1.172,1.172,0,0,1-1.436-.827l-.029-.108a1.172,1.172,0,0,1,.827-1.436l23.276-6.272a1.172,1.172,0,0,1,1.437.827l.029.108a1.172,1.172,0,0,1-.827,1.436" transform="translate(-299.467 -128.944)" fill="#b8c1ea"/>
      <path id="Path_1291" data-name="Path 1291" d="M200.212,184.023l-13.851,3.732a1.172,1.172,0,0,1-1.436-.827l-.029-.107a1.172,1.172,0,0,1,.827-1.437l13.851-3.732a1.172,1.172,0,0,1,1.436.827l.029.108a1.172,1.172,0,0,1-.827,1.436" transform="translate(-307.56 -141.585)" fill="#b8c1ea"/>
      <path id="Path_1292" data-name="Path 1292" d="M74.708,96.386l3.936,1.93a.818.818,0,0,0,1.178-.479l2.341-6.186.333-.879a.808.808,0,0,0-.56-.986.819.819,0,0,0-.986.56l-2.341,6.186-.333.879,1.178-.479L75.517,95a.822.822,0,0,0-1.1.288.809.809,0,0,0,.288,1.1" transform="translate(-232.478 -79.194)" fill="#f2a441"/>
      <path id="Path_1293" data-name="Path 1293" d="M98.692,147.072l3.936,1.93a.818.818,0,0,0,1.178-.479l2.341-6.186.333-.879a.808.808,0,0,0-.56-.986.819.819,0,0,0-.986.56l-2.341,6.186-.333.879,1.178-.479-3.936-1.93a.822.822,0,0,0-1.1.288.809.809,0,0,0,.288,1.1" transform="translate(-248.769 -113.622)" fill="#f2a441"/>
      <path id="Path_1294" data-name="Path 1294" d="M5.606,56.8l.71,2.365L8.25,65.6l2.86,9.521L14.6,86.735l3.823,12.724L22.281,112.3l3.6,11.975,3.04,10.118,2.185,7.273c.344,1.147.679,2.3,1.033,3.44.015.048.029.1.044.146a.12.12,0,0,0,.232-.064l-.71-2.365-1.934-6.437-2.86-9.521-3.49-11.617L19.6,102.528,15.737,89.684l-3.6-11.975L9.1,67.591,6.915,60.318c-.344-1.147-.679-2.3-1.033-3.44-.015-.048-.029-.1-.044-.146a.12.12,0,0,0-.232.064" transform="translate(-185.804 -56.705)" fill="#26244a"/>
    </g>
    <g id="Group_678" data-name="Group 678" transform="translate(5533.896 6343.982)">
      <path id="Path_1225" data-name="Path 1225" d="M202.019,317.209s3.815-6.017,11.984-2.748l2.1-4.068,17.084,10.771L227.38,331.9Z" transform="translate(-100.481 -154.385)" fill="#545dbf"/>
      <path id="Path_1226" data-name="Path 1226" d="M217.373,314.592a29.346,29.346,0,0,1,2.543,3.969c.114.214.44.024.326-.19A29.461,29.461,0,0,0,217.7,314.4c-.145-.19-.472,0-.326.19" transform="translate(-108.1 -156.339)" fill="#26244a"/>
      <path id="Path_1227" data-name="Path 1227" d="M221.351,315.4l2.13,3.8a.189.189,0,0,0,.326-.19l-2.13-3.8a.189.189,0,0,0-.326.19" transform="translate(-110.084 -156.732)" fill="#26244a"/>
      <path id="Path_1228" data-name="Path 1228" d="M372.983,279.091s-6.608-2.339-5.264-10.89l-4.71-1.537,5.651-19.108,12.849,3.991Z" transform="translate(-180.555 -123.131)" fill="#545dbf"/>
      <path id="Path_1229" data-name="Path 1229" d="M371.625,292.663a27.789,27.789,0,0,1,3.13-3.189c.184-.159-.084-.425-.266-.266a27.749,27.749,0,0,0-3.13,3.189c-.155.185.111.453.266.266" transform="translate(-184.685 -143.823)" fill="#26244a"/>
      <path id="Path_1230" data-name="Path 1230" d="M371.528,289.236l3.063-2.772c.18-.163-.087-.429-.266-.266l-3.063,2.772c-.18.163.087.429.266.266" transform="translate(-184.63 -142.325)" fill="#26244a"/>
      <path id="Path_1231" data-name="Path 1231" d="M301.306,147.972l-.589,11.97s-23.64,19.821-25.367,26.791c-1.463,5.9-.871,12.21,9.452,17.231,9.08,4.417,37.228,13.654,37.228,13.654l6.581-20.094-26.914-9.9s19.11-13.775,21.045-17.1c5.557-9.546-1.8-25.094-1.8-25.094l-4.551.2Z" transform="translate(-136.66 -72.338)" fill="#26244a"/>
      <path id="Path_1232" data-name="Path 1232" d="M266.762,142.007l-3.465,9.934c-11.354,26.119-25.505,53.68-37.043,75.639l18.769,12.2a449.022,449.022,0,0,0,28.05-62.28l7.1-24.907-4.276-7.939Z" transform="translate(-112.535 -70.632)" fill="#26244a"/>
      <path id="Path_1233" data-name="Path 1233" d="M300.94,175.1c-6.369,5.542-12.038,11.839-18.3,17.5a25.264,25.264,0,0,0-5.056,5.975,12.449,12.449,0,0,0-1.84,5.385,21.309,21.309,0,0,0,.427,6.434,10.068,10.068,0,0,0,3.714,5.649c2.24,1.675,4.958,2.636,7.47,3.815.219.1.41-.223.19-.326a62.178,62.178,0,0,1-6.511-3.164,9.864,9.864,0,0,1-4.243-5.2,18.473,18.473,0,0,1-.7-6.277,12.081,12.081,0,0,1,1.646-5.834,22.991,22.991,0,0,1,4.817-5.881c3.049-2.725,5.947-5.619,8.861-8.488,3.209-3.159,6.392-6.364,9.79-9.322.183-.159-.084-.425-.266-.266" transform="translate(-137.117 -87.068)" fill="#edeff7"/>
      <path id="Path_1234" data-name="Path 1234" d="M325.6,48.184c-.02.236-.684,8.161-.684,8.161l9.894.829,1-11.942Z" transform="translate(-161.608 -22.498)" fill="#f4b298"/>
      <path id="Path_1235" data-name="Path 1235" d="M319.716,33.973a7.4,7.4,0,0,1-5.378-8.1,74.021,74.021,0,0,1,1.219-8.9c.87-4.522,4.453-6.118,9.327-5.61l.485.051c5.191.831,8.238,3.94,7.276,8.788l-.981,4.665s-.433,10.329-11.943,9.12" transform="translate(-156.329 -5.604)" fill="#f4b298"/>
      <path id="Path_1236" data-name="Path 1236" d="M318.648,32.24a.714.714,0,0,0,.616.784.686.686,0,0,0,.806-.559.715.715,0,0,0-.616-.785.687.687,0,0,0-.806.56" transform="translate(-158.487 -15.752)" fill="#26244a"/>
      <path id="Path_1237" data-name="Path 1237" d="M331.732,34.259a.714.714,0,0,0,.617.784.685.685,0,0,0,.805-.559.714.714,0,0,0-.616-.785.686.686,0,0,0-.806.56" transform="translate(-164.995 -16.756)" fill="#26244a"/>
      <path id="Path_1238" data-name="Path 1238" d="M335.73,30.363a2.514,2.514,0,0,0-2.535-.327.189.189,0,0,0-.067.258.193.193,0,0,0,.258.067,2.118,2.118,0,0,1,2.078.268.194.194,0,0,0,.266,0,.19.19,0,0,0,0-.267" transform="translate(-165.681 -14.838)" fill="#26244a"/>
      <path id="Path_1239" data-name="Path 1239" d="M321.02,28.548a2.513,2.513,0,0,0-2.535-.327.189.189,0,0,0-.067.258.194.194,0,0,0,.258.067,2.118,2.118,0,0,1,2.078.268.194.194,0,0,0,.266,0,.189.189,0,0,0,0-.266" transform="translate(-158.364 -13.936)" fill="#26244a"/>
      <path id="Path_1240" data-name="Path 1240" d="M321.051,23.5a6.028,6.028,0,0,0-2.066-.188.675.675,0,0,0-.444.184.628.628,0,0,0,.444,1.073,5.576,5.576,0,0,1,1.19.024l-.167-.022a5.643,5.643,0,0,1,.708.142.629.629,0,1,0,.334-1.212" transform="translate(-158.345 -11.583)" fill="#26244a"/>
      <path id="Path_1241" data-name="Path 1241" d="M336.031,25.353a6.016,6.016,0,0,0-2.066-.188.675.675,0,0,0-.444.184.628.628,0,0,0,.444,1.073,5.576,5.576,0,0,1,1.19.024l-.167-.022a5.643,5.643,0,0,1,.708.142.629.629,0,0,0,.334-1.212" transform="translate(-165.796 -12.506)" fill="#26244a"/>
      <path id="Path_1242" data-name="Path 1242" d="M348.219,36.606a2.852,2.852,0,0,0-2.562.031l-.669,4.175a2.924,2.924,0,0,0,2.608.311,2.75,2.75,0,0,0,1.692-2.085,2.425,2.425,0,0,0-1.069-2.432" transform="translate(-171.592 -18.062)" fill="#f4b298"/>
      <path id="Path_1243" data-name="Path 1243" d="M347.317,40.386a1.263,1.263,0,0,1,.667-.676,1.122,1.122,0,0,1,1.083.065c.207.128.4-.2.19-.326a1.508,1.508,0,0,0-1.437-.077,1.608,1.608,0,0,0-.867.913c-.078.23.286.329.363.1" transform="translate(-172.564 -19.511)" fill="#ed796a"/>
      <path id="Path_1244" data-name="Path 1244" d="M325.608,55.254a6.585,6.585,0,0,0,5.25-1.208c.19-.146,0-.473-.19-.326a6.224,6.224,0,0,1-4.96,1.17c-.237-.047-.338.316-.1.363" transform="translate(-161.885 -26.701)" fill="#ed796a"/>
      <path id="Path_1245" data-name="Path 1245" d="M324.958,32.809l-.4,1.475a5.286,5.286,0,0,1-.2.713c-.079.18-.323.074-.478.063-.34-.024-.667.189-.576.567a2.02,2.02,0,0,0,.319.572l.432.667c.131.2.458.015.326-.19l-.37-.572-.206-.318c-.044-.068-.138-.178-.136-.262,0-.155.292-.074.392-.062a.544.544,0,0,0,.7-.489l.182-.663.385-1.4a.189.189,0,0,0-.363-.1" transform="translate(-160.798 -16.252)" fill="#26244a"/>
      <path id="Path_1246" data-name="Path 1246" d="M331.121,17.076a8.638,8.638,0,0,1,.711-1.037,9.216,9.216,0,0,0,1.791-4.553,4.825,4.825,0,0,0-1.564-4.041c-.812-.724-3.513-.847-3.513-.847a18.688,18.688,0,0,0-2.539-3.973A9.63,9.63,0,0,0,321.7.156a5.5,5.5,0,0,0-4.742.988,5.2,5.2,0,0,1-1.014.8,4.133,4.133,0,0,1-2.319.043,5.516,5.516,0,0,0-4.662,1.376,3.37,3.37,0,0,0-.2,4.544c.495.491,1.232.89,1.269,1.586a2.979,2.979,0,0,1-.459,1.268,2.583,2.583,0,0,0,.2,2.406,2.656,2.656,0,0,0,2.118,1.075l.309-1.479s.394-3.914,1.518-3.136c2.439,1.687,4.69.611,6.061-.158a4.27,4.27,0,0,1,2.478-.37,3.675,3.675,0,0,1,3.481,3.839c.015,2.158-.707,5.072-.586,6.279.031.307-.035,1.222,1.021,1.311,0,0,.361.278.812-.661s1.02-1.921,3.078-1.139Z" transform="translate(-153.182 0)" fill="#26244a"/>
      <path id="Path_1247" data-name="Path 1247" d="M326.4,43.386a2.146,2.146,0,0,0,2.623-1.524.189.189,0,0,0-.364-.1,1.791,1.791,0,0,1-2.159,1.261.189.189,0,0,0-.1.363" transform="translate(-162.281 -20.705)" fill="#ed796a"/>
      <path id="Path_1248" data-name="Path 1248" d="M277.658,110.425s-2.57,5.985-2.733,7.929,1.081,5.009,5.074,4.875l7.056-2.423,1.227-8.581Z" transform="translate(-136.737 -54.924)" fill="#f4b298"/>
      <path id="Path_1249" data-name="Path 1249" d="M378.561,86.765l-16.339,8.076-5.288-12.612,10.1-9.6a14.879,14.879,0,0,1,3.428,3.034c2.023,2.559,8.1,11.107,8.1,11.107" transform="translate(-177.533 -36.122)" fill="#ef6856"/>
      <path id="Path_1250" data-name="Path 1250" d="M298.93,66.882s-7.5-1.167-11.666,4.2c-1.746,2.249-9.294,17.339-9.294,17.339l15.467,3.733Z" transform="translate(-138.257 -33.213)" fill="#ef6856"/>
      <path id="Path_1251" data-name="Path 1251" d="M332.928,116.006l.909-20.591-27.3-4.237c-1.026,3.583-1.552,7.806-2.578,11.388-.459,1.6-1,3.33-2.352,4.31l-4.8,14.581c31.006,10.808,37.212-1.579,37.3-2.645a2.789,2.789,0,0,0-1.176-2.806" transform="translate(-147.628 -45.351)" fill="#ef6856"/>
      <path id="Path_1252" data-name="Path 1252" d="M327.283,64.585a9.995,9.995,0,0,1-10.743.17,71.194,71.194,0,0,0-8.464,1.984l2.222,18.3c.914,5.753,1.6,10.171,2.1,12.566H337.7l3.6-32.465Z" transform="translate(-153.232 -32.124)" fill="#ef6856"/>
      <path id="Path_1253" data-name="Path 1253" d="M369.394,67.07a9.866,9.866,0,0,0-3.589,7.359.189.189,0,0,0,.377,0,9.5,9.5,0,0,1,3.479-7.093c.188-.153-.08-.419-.266-.266" transform="translate(-181.946 -33.337)" fill="#26244a"/>
      <path id="Path_1254" data-name="Path 1254" d="M306.582,103.155,306.81,86q.016-1.214.032-2.428a.189.189,0,0,0-.377,0l-.228,17.155q-.016,1.214-.032,2.428a.189.189,0,0,0,.377,0" transform="translate(-152.302 -41.477)" fill="#26244a"/>
      <path id="Path_1255" data-name="Path 1255" d="M326.08,144.535a28.179,28.179,0,0,0,16.257-2.508c.218-.106.028-.431-.19-.325a27.735,27.735,0,0,1-15.967,2.469c-.237-.034-.34.329-.1.363" transform="translate(-162.119 -70.47)" fill="#26244a"/>
      <path id="Path_1256" data-name="Path 1256" d="M281.729,117.262a16.626,16.626,0,0,1,8.3-2.733c.241-.012.243-.39,0-.377a17.008,17.008,0,0,0-8.488,2.784c-.2.133-.013.46.19.326" transform="translate(-139.99 -56.777)" fill="#ed796a"/>
      <path id="Path_1257" data-name="Path 1257" d="M394.55,112.03l-7.362-10.072-10.457,5.007,8.182,6.669Z" transform="translate(-187.38 -50.712)" fill="#f4b298"/>
      <path id="Path_1258" data-name="Path 1258" d="M335.787,17.4l-2.357,3.2L270.839,98.787l-15.443,4.1,1.647-15.171L320.883,6.1Z" transform="translate(-127.03 -3.036)" fill="#f2a441"/>
      <path id="Path_1259" data-name="Path 1259" d="M337.03,17.114,272.294,98.755l-4.268-3.468,64.431-81.64Z" transform="translate(-133.312 -6.788)" fill="#26244a"/>
      <path id="Path_1260" data-name="Path 1260" d="M257.7,168.48l13.669,11.1-9.243,2.454-5.406-4.53Z" transform="translate(-127.689 -83.799)" fill="#fff"/>
      <path id="Path_1261" data-name="Path 1261" d="M397.295,4.9c-4.178-3.268-8.8-3.385-11.607-.684l14.9,11.295c1.892-3.66-.257-8.233-3.3-10.611" transform="translate(-191.835 -1.149)" fill="#ef6856"/>
      <path id="Path_1262" data-name="Path 1262" d="M380.929,9.162,395.868,20.6l2.357-3.2L383.321,6.1Z" transform="translate(-189.468 -3.036)" fill="#b8c1ea"/>
      <path id="Path_1263" data-name="Path 1263" d="M370.683,109.432l8.569,2.526a5.9,5.9,0,0,1,4.113,7.182c-.04.139-.085.277-.137.414a5.735,5.735,0,0,1-4.147,3.712,9.417,9.417,0,0,1-4.518-.7c-8.473-2.787-13.872-4.131-21.816-8.187l7.209-7.543Z" transform="translate(-175.451 -53.139)" fill="#f4b298"/>
      <path id="Path_1264" data-name="Path 1264" d="M343.906,92c-.542-.937-2.515-1.94-3.356-2.35a2.123,2.123,0,0,0-2.575.279,1.909,1.909,0,0,0,.312,2.357,6.926,6.926,0,0,0,2.184,1.352,4.021,4.021,0,0,1,1.956,1.617c.774,1.528-.374,3.354-.179,5.056a4.348,4.348,0,0,0,2.148,3.041c1.091.679,4.907,1.535,6.149,1.861l4.758-9.176c-2.837-.687-4.17-1.235-4.558-2.418s-.453-3.247-.745-4.457a7.288,7.288,0,0,0-6.077-5.385,2.137,2.137,0,0,0-1.966.548,1.326,1.326,0,0,0,.359,1.927,19.41,19.41,0,0,0,2,.929c.7.265,1.675.847,1.708,1.363,0,0-4.672-3.044-5.946-2.089s-.734,1.45-.222,2.2,2.876,1.415,3.727,2.3.318,1.047.318,1.047" transform="translate(-167.961 -41.657)" fill="#f4b298"/>
      <path id="Path_1265" data-name="Path 1265" d="M365.417,106.033c5.348,1.568,10.7,3.131,16.022,4.782.576.179,1.152.358,1.724.547.164.055.329.126.5.17s.185.148.122-.021c.085.225.449.127.363-.1-.066-.177-.328-.222-.486-.278-.416-.148-.837-.278-1.258-.411-1.461-.462-2.928-.905-4.4-1.347q-5.044-1.521-10.1-3-1.195-.352-2.39-.7a.189.189,0,0,0-.1.363" transform="translate(-181.687 -52.554)" fill="#ed796a"/>
      <path id="Path_1266" data-name="Path 1266" d="M358.61,110.04,362,105.978c.154-.185-.111-.453-.267-.267l-3.387,4.062c-.154.185.111.453.266.266" transform="translate(-178.211 -52.548)" fill="#ed796a"/>
      <path id="Path_1267" data-name="Path 1267" d="M292.676,116.214a4.34,4.34,0,0,1,3.4-5.011c-.27-.362,0-.937.263-1.305s.559-.628.991-.493a3.943,3.943,0,0,1,.25-1.442c.253-.456.178-.579.658-.784a3.747,3.747,0,0,1,2.714-.039c.951.287,1.971.86,2.111,1.844a1.968,1.968,0,0,1-1.53,2.2,1.289,1.289,0,0,1-1.637,1.758,2.025,2.025,0,0,1-2.687,2.305c-.653-.242-1.17-.815-1.855-.938-.884-.159-1.846.95-2.673,1.9" transform="translate(-145.54 -53.173)" fill="#f4b298"/>
      <path id="Path_1268" data-name="Path 1268" d="M299.318,115.447A4.552,4.552,0,0,1,303,117.133c.159.184.424-.083.266-.267a4.906,4.906,0,0,0-3.953-1.8c-.24.019-.242.4,0,.377" transform="translate(-148.786 -57.228)" fill="#ed796a"/>
      <path id="Path_1269" data-name="Path 1269" d="M301.676,111.664a6.992,6.992,0,0,1,2.4.383,5.621,5.621,0,0,1,.943.522,1.583,1.583,0,0,1,.687.742.189.189,0,0,0,.363-.1,1.7,1.7,0,0,0-.667-.827,5.482,5.482,0,0,0-1.059-.628,7.284,7.284,0,0,0-2.669-.469c-.242-.016-.241.361,0,.377" transform="translate(-149.959 -55.352)" fill="#ed796a"/>
      <path id="Path_1270" data-name="Path 1270" d="M295.73,115.133a4.049,4.049,0,0,0-1.537.781,5.4,5.4,0,0,0-1,1.177,5.01,5.01,0,0,0-.956,2.888.189.189,0,0,0,.377,0,4.621,4.621,0,0,1,.875-2.656,5.384,5.384,0,0,1,.888-1.073,3.632,3.632,0,0,1,1.455-.753.189.189,0,0,0-.1-.363" transform="translate(-145.354 -57.262)" fill="#ed796a"/>
      <path id="Path_1271" data-name="Path 1271" d="M300.587,111.339a1.7,1.7,0,0,0-1.544,1.986.19.19,0,0,0,.232.132.193.193,0,0,0,.132-.232,1.334,1.334,0,0,1,1.18-1.509.194.194,0,0,0,.188-.188.19.19,0,0,0-.188-.188" transform="translate(-148.728 -55.378)" fill="#ed796a"/>
      <path id="Path_1272" data-name="Path 1272" d="M306.213,110.813a1.79,1.79,0,0,0,1.362-1.388,2.37,2.37,0,0,0-.716-2.121,3.518,3.518,0,0,0-4.373-.443,2.2,2.2,0,0,0-.831,2.129c.047.238.411.137.363-.1a1.859,1.859,0,0,1,.961-1.909,3.041,3.041,0,0,1,2.486-.092,2.551,2.551,0,0,1,1.732,1.745,1.478,1.478,0,0,1-1.084,1.816c-.238.047-.137.411.1.363" transform="translate(-150.019 -52.864)" fill="#ed796a"/>
    </g>
    <rect id="Rectangle_377" data-name="Rectangle 377" width="242" height="237" transform="translate(5548 6289)" fill="none"/>
  </g>
</svg>
