<svg xmlns="http://www.w3.org/2000/svg" xmlns:xlink="http://www.w3.org/1999/xlink" width="242" height="237" viewBox="0 0 242 237">
  <defs>
    <clipPath id="clip-path">
      <rect id="Rectangle_318" data-name="Rectangle 318" width="184" height="186.879" fill="none"/>
    </clipPath>
  </defs>
  <g id="index-p5" transform="translate(-4956 -6289)">
    <path id="Path_1402" data-name="Path 1402" d="M94.5,0A94.5,94.5,0,1,1,0,94.5,94.5,94.5,0,0,1,94.5,0Z" transform="translate(4983 6289.349)" fill="#93e1e1"/>
    <g id="Group_672" data-name="Group 672" transform="translate(5053.2 6315.895)">
      <path id="Path_1081" data-name="Path 1081" d="M62.853,5.649l-1.7,5.834L46.079,15.129,39.516,28.5l-3.16,2.188-6.807,6.077-4.133,8.508-5.348,9.48-5.591,6.564L9.859,70.068,5,74.444v2.917L2.323,81.007,3.538,94.62l-3.16,7.293v5.78H0l.378,1.513H4.267l.433,8.233-.331-.607.383,1.611L8.4,124.278v5.6l-.378-.308.378,1.513,19.691,16.044.655,13.316h-.3l.378,1.513h6.32l3.16-6.807.243-10.453,6.807-19.2,7.536-3.646.243-5.834,5.591-2.188,4.133-9.481.972-7.293,3.16-5.834L71.6,66.665l2.43-2.674V55.969l5.348-4.862,2.188-8.265,3.16-4.133L84.353,37.2l-.124.162-3.387-9.1,5.105-8.022,4.619-1.945-.378-1.513-.721.3L85.7,12.942l-7.293-.972-5.1-5.105L69.9,4Z" transform="translate(3 -4.487)" fill="#6da158"/>
      <path id="Path_1082" data-name="Path 1082" d="M69.524,0l-7.05,1.649-1.7,5.834L45.7,11.129,39.138,24.5l-3.16,2.188-6.807,6.077-4.133,8.508L19.69,50.753,14.1,57.317,9.48,66.068,4.618,70.444v2.917L1.944,77.007,3.16,90.621,0,97.913v7.293h3.89l.486,9.237,3.646,5.834v6.807l19.691,16.044.729,14.829h6.321l3.16-6.807.243-10.453,6.807-19.2,7.536-3.646.243-5.834,5.591-2.188,4.133-9.481.973-7.293,3.16-5.834,4.619-24.552,2.431-2.674V51.969L79,47.107l2.188-8.265,3.16-4.133L80.463,24.256l5.105-8.022,4.619-1.945L85.325,8.941l-7.293-.972-5.1-5.1Z" fill="#b4d66b"/>
    </g>
    <g id="Group_671" data-name="Group 671" transform="translate(4995 6338.301)">
      <g id="Group_670" data-name="Group 670" clip-path="url(#clip-path)">
        <path id="Path_1041" data-name="Path 1041" d="M60.224,149.975s19.243,4.384,28.039,17.522,2.01,42.215,7.447,42.917c4.885.63,10.289-1.47,6.573.9s-3.812-.537-10.724,1.531c-3.747,1.122-9.6-32.675-15.742-40.9C68.718,162.432,54.3,156.78,54.3,156.78s6.994,10.5,5.925,21.373S26.673,207.976,25.6,210.8c-2.066,5.456,6.718,5.7,2.571,6.527s-2.014-.745-7.427-3.582,22.921-34.325,20.68-39.044a117.775,117.775,0,0,0-8.04-14.387Z" transform="translate(-4.256 -31.826)" fill="#e1ae8d"/>
        <path id="Path_1042" data-name="Path 1042" d="M18.1,227.088s7.032-.486,7.086.036-.025,3.051.238,3.455,6.647,2.619,6.927,3.739-13.89.575-13.89.575Z" transform="translate(-3.841 -48.146)" fill="#87bfc0"/>
        <path id="Path_1043" data-name="Path 1043" d="M22.653,231.773a.3.3,0,0,1-.134-.559L26,229.439a.3.3,0,0,1,.268.527l-3.486,1.774a.289.289,0,0,1-.133.032" transform="translate(-4.744 -48.682)" fill="#2e2427"/>
        <path id="Path_1044" data-name="Path 1044" d="M24.393,233.655a.3.3,0,0,1-.184-.527l3.166-2.512a.3.3,0,1,1,.367.463l-3.166,2.512a.292.292,0,0,1-.184.064" transform="translate(-5.114 -48.925)" fill="#2e2427"/>
        <path id="Path_1045" data-name="Path 1045" d="M26.684,235.067a.3.3,0,0,1-.2-.518l2.637-2.312a.3.3,0,0,1,.391.445l-2.637,2.311a.3.3,0,0,1-.195.073" transform="translate(-5.6 -49.267)" fill="#2e2427"/>
        <path id="Path_1046" data-name="Path 1046" d="M106.636,223.135s6.6-2.475,6.8-1.991.848,2.931,1.216,3.244,7.118.61,7.706,1.6-13.147,4.52-13.147,4.52Z" transform="translate(-22.629 -46.915)" fill="#87bfc0"/>
        <path id="Path_1047" data-name="Path 1047" d="M112.393,226.542a.3.3,0,0,1-.2-.51l2.834-2.7a.3.3,0,0,1,.408.429l-2.834,2.7a.3.3,0,0,1-.2.081" transform="translate(-23.788 -47.376)" fill="#2e2427"/>
        <path id="Path_1048" data-name="Path 1048" d="M114.656,227.873a.292.292,0,0,1-.169-.054.3.3,0,0,1-.073-.411l2.316-3.313a.3.3,0,0,1,.484.34l-2.315,3.312a.3.3,0,0,1-.243.126" transform="translate(-24.268 -47.528)" fill="#2e2427"/>
        <path id="Path_1049" data-name="Path 1049" d="M117.238,228.613a.29.29,0,0,1-.157-.046.3.3,0,0,1-.094-.407l1.865-2.969a.3.3,0,0,1,.5.315l-1.865,2.968a.3.3,0,0,1-.251.139" transform="translate(-24.816 -47.758)" fill="#2e2427"/>
        <path id="Path_1050" data-name="Path 1050" d="M65.066,139.981s11.291,8.722,20.793,17.231c11.445,10.248,12.008,42.777,10.4,43.652s-11.325,2.956-11.7,1.478-4.217-19.215-5.99-25.127-21.274-20-21.274-20,5.026,10.248,3.491,18.82c-1.467,8.2-28.147,29.816-29.2,29.345s-9.418-2.148-8.857-4.809,18.341-26.014,17.58-28.527-6.651-12.377-6.651-12.377Z" transform="translate(-4.817 -29.705)" fill="#e7b119"/>
        <path id="Path_1051" data-name="Path 1051" d="M65.263,158.737a.3.3,0,0,1-.217-.1l-4.714-5.13a.3.3,0,0,1,.436-.4l3.855,4.2c-.51-1.72-1.446-4.8-1.988-6.1a.3.3,0,0,1,.546-.227c.781,1.883,2.3,7.158,2.368,7.382a.3.3,0,0,1-.139.34.3.3,0,0,1-.145.038" transform="translate(-12.786 -32)" fill="#2e2427"/>
        <path id="Path_1052" data-name="Path 1052" d="M33.629,219.714a.332.332,0,0,1-.061-.006c-3.647-.76-9.141-5.74-9.373-5.952a.3.3,0,0,1,.4-.437c.055.051,5.607,5.083,9.1,5.811a.3.3,0,0,1-.06.585" transform="translate(-5.114 -45.251)" fill="#2e2427"/>
        <path id="Path_1053" data-name="Path 1053" d="M100.471,215.88a.3.3,0,0,1-.027-.59c.1-.009,9.862-.923,12.581-2.025a.3.3,0,0,1,.222.548c-2.8,1.135-12.343,2.029-12.749,2.067h-.028" transform="translate(-21.258 -45.251)" fill="#2e2427"/>
        <path id="Path_1054" data-name="Path 1054" d="M96.594,203.8a.3.3,0,0,1-.292-.253c-.028-.2-2.983-20.017-8.126-27.638S69.731,161.78,69.6,161.715a.3.3,0,1,1,.258-.532c.136.065,13.584,6.656,18.809,14.4s8.1,27.064,8.222,27.882a.3.3,0,0,1-.25.336.269.269,0,0,1-.043,0" transform="translate(-14.734 -34.198)" fill="#2e2427"/>
        <path id="Path_1055" data-name="Path 1055" d="M27.068,205.782a.292.292,0,0,1-.2-.082.3.3,0,0,1-.009-.418c.169-.177,16.954-17.81,17.052-25.523.1-7.664-7.075-12.211-7.148-12.256a.3.3,0,1,1,.312-.5c.076.046,7.528,4.772,7.427,12.766-.1,7.944-16.518,25.194-17.216,25.924a.3.3,0,0,1-.213.091" transform="translate(-5.681 -35.429)" fill="#2e2427"/>
        <path id="Path_1056" data-name="Path 1056" d="M83.18,147.689c-3.462,0-8.08-3.651-8.3-3.826a.3.3,0,1,1,.369-.462c.058.045,5.777,4.569,8.952,3.549a.3.3,0,1,1,.181.562,3.906,3.906,0,0,1-1.2.176" transform="translate(-15.867 -30.417)" fill="#2e2427"/>
        <path id="Path_1057" data-name="Path 1057" d="M47.25,173.918a.289.289,0,0,1-.133-.032.294.294,0,0,1-.131-.4,9.9,9.9,0,0,0-.915-10.746.3.3,0,0,1,.444-.391,10.517,10.517,0,0,1,1,11.4.3.3,0,0,1-.264.162" transform="translate(-9.761 -34.431)" fill="#2e2427"/>
        <path id="Path_1058" data-name="Path 1058" d="M79.572,118.082s-3.55,1.286-10.278,8.506S55.53,123.807,54.413,116.1,48.9,100.16,48.9,100.16l12.9.965s5.971,18.833,9.621,18.613a40.578,40.578,0,0,0,8.157-1.656" transform="translate(-10.377 -21.255)" fill="#d37674"/>
        <path id="Path_1059" data-name="Path 1059" d="M30.875,147.437s-26.036-28.665-20.5-50.619c3.509-13.913,23.929-20.541,33.138-7.213,5.661,8.192,18.771,38.148,18.771,38.148Z" transform="translate(-2.038 -17.478)" fill="#ca4f24"/>
        <path id="Path_1060" data-name="Path 1060" d="M161.453,88.667A47.584,47.584,0,0,1,122.4,68.9a42.1,42.1,0,0,1-6.941-33.287,44.022,44.022,0,0,1,19.98-28.179A48.6,48.6,0,0,1,161.377,0a47.586,47.586,0,0,1,39.055,19.766,42.1,42.1,0,0,1,6.941,33.287,44.022,44.022,0,0,1-19.98,28.179,48.6,48.6,0,0,1-25.94,7.435m-.076-78.6a37.547,37.547,0,0,0-20.041,5.748,34.024,34.024,0,0,0-15.444,21.781,32.542,32.542,0,0,0,5.365,25.73,36.79,36.79,0,0,0,30.2,15.28,37.547,37.547,0,0,0,20.041-5.748,34.027,34.027,0,0,0,15.444-21.781,32.542,32.542,0,0,0-5.365-25.73,36.79,36.79,0,0,0-30.2-15.28" transform="translate(-38.168 10.899)" fill="#ccc"/>
        <rect id="Rectangle_316" data-name="Rectangle 316" width="87.689" height="10.642" transform="matrix(0.832, -0.554, 0.554, 0.832, 12.72, 119.884)" fill="#f1f1f1"/>
        <rect id="Rectangle_317" data-name="Rectangle 317" width="84.862" height="23.292" transform="matrix(0.832, -0.554, 0.554, 0.832, -5.823, 125.613)" fill="#3e2d4a"/>
        <path id="Path_1061" data-name="Path 1061" d="M15.83,115.507s-.325,15.186,11.06,14.814,28.42-6.507,35.953-2.763c6.707,3.333-2.365.789-2.365.789s4.641,1.142,4.533,2.759-6.109-.2-6.109-.2,3.9.38,4.138,2.562-4.21-2.672-9.459.789c-6.143,4.049-30.122,13.092-41.75,4.914S1.593,116.15,1.593,116.15Z" transform="translate(-0.327 -24.511)" fill="#e1ae8d"/>
        <path id="Path_1062" data-name="Path 1062" d="M86.723,129.946a66.887,66.887,0,0,0-.607-10.147c-.681-3.271,1.5,1.5,1.5,1.5s-1.09-4.361,0-3.68,1.5,2.862,1.5,2.862-1.5-3.416,0-2.935,3.952,6.478,3.68,9.476-6.066,4.757-6.072,2.923" transform="translate(-18.247 -24.934)" fill="#e1ae8d"/>
        <path id="Path_1063" data-name="Path 1063" d="M18.605,117.136s-16.537,4.3-17.418,3.487-2.621-16.559,1.08-22.188C7.13,91.04,16.224,86.411,16.224,86.411s3.232,27.425,2.381,30.725" transform="translate(0 -18.337)" fill="#ca4f24"/>
        <path id="Path_1064" data-name="Path 1064" d="M36.976,82.435s7.767,0,13.285,4.791c4.276,3.711,10.062,11.531,10.062,11.531l-11.168,4.606Z" transform="translate(-7.847 -17.493)" fill="#ca4f24"/>
        <path id="Path_1065" data-name="Path 1065" d="M17.925,74.78c2-.945-.533-2.763-.533-2.763s-3.824-3.338-5.17-1.922" transform="translate(-2.594 -14.8)" fill="#d47974"/>
        <path id="Path_1066" data-name="Path 1066" d="M12.938,68.315s9.091,8.636,13.96,3.809-3.808-12.375-7.72-14.63-9.118,8.519-6.24,10.821" transform="translate(-2.569 -12.135)" fill="#e1ae8d"/>
        <path id="Path_1067" data-name="Path 1067" d="M26.142,74.7s.8,1.58,2.809,5.669a4.759,4.759,0,0,1-.2,3.536c-.871,1.873-7.659,1.564-8.615.791L16.632,73.375s7.64-.072,9.51,1.327" transform="translate(-3.529 -15.571)" fill="#e1ae8d"/>
        <path id="Path_1068" data-name="Path 1068" d="M19.726,57.954s-4.5-7.747-9.559-5.623C-1.9,57.4,7.085,61.629,5.838,64.125c-3.97,7.951,8.817,8.853,9.039,6.3s-5.085-6.337-2.92-9.624c2.775-4.212,3.836-5.789,7.768-2.851" transform="translate(-0.803 -11.027)" fill="#f3d78a"/>
        <path id="Path_1069" data-name="Path 1069" d="M15.569,72.17s-3.183-.422-2.761,1.131,3.152,1.884,4.553.995-1.792-2.126-1.792-2.126" transform="translate(-2.71 -15.304)" fill="#e1ae8d"/>
        <path id="Path_1070" data-name="Path 1070" d="M15.418,57.568a.3.3,0,0,1-.285-.218,3.369,3.369,0,0,0-1.856-2.461c-1.759-.705-4.016.642-4.039.655a.3.3,0,1,1-.306-.506c.1-.061,2.536-1.51,4.564-.7A3.918,3.918,0,0,1,15.7,57.2a.3.3,0,0,1-.285.373" transform="translate(-1.865 -11.479)" fill="#2e2427"/>
        <path id="Path_1071" data-name="Path 1071" d="M13.956,59.59a.3.3,0,0,1-.228-.106c-1.854-2.231-5.078-1.158-5.111-1.147a.3.3,0,1,1-.191-.559c.148-.05,3.642-1.213,5.758,1.328a.295.295,0,0,1-.227.484" transform="translate(-1.745 -12.195)" fill="#2e2427"/>
        <path id="Path_1072" data-name="Path 1072" d="M12.136,62.4a.294.294,0,0,1-.206-.084,2.966,2.966,0,0,0-3.806-.364.3.3,0,0,1-.34-.484,3.619,3.619,0,0,1,4.558.426.3.3,0,0,1-.206.507" transform="translate(-1.625 -12.91)" fill="#2e2427"/>
        <path id="Path_1073" data-name="Path 1073" d="M9.2,71.281a.3.3,0,0,1-.052-.587c2.63-.473,2.4-2.578,2.393-2.668a.3.3,0,0,1,.587-.075,3.088,3.088,0,0,1-2.875,3.325.3.3,0,0,1-.053,0" transform="translate(-1.89 -14.365)" fill="#2e2427"/>
        <path id="Path_1074" data-name="Path 1074" d="M14.264,68.217s4.817,4.342,7.334,4.669-.448-1.26,2.82-4.117c1.437-1.255,2.526-1.863,3.577-.592s2.78,4.325.836,6.956S15.9,75.027,13.8,69.4Z" transform="translate(-2.928 -14.319)" fill="#f3d78a"/>
        <path id="Path_1075" data-name="Path 1075" d="M25.573,68.694a.3.3,0,0,1-.03-.59l1.406-.145L23.841,65.8a.3.3,0,1,1,.337-.485l3.765,2.612a.3.3,0,0,1-.138.536l-2.2.227-.032,0" transform="translate(-5.032 -13.85)" fill="#2e2427"/>
        <path id="Path_1076" data-name="Path 1076" d="M27.156,72.6a3.942,3.942,0,0,1-1.394-.336A.3.3,0,0,1,26,71.722c.5.219,1.308.409,1.5.2.11-.117.091-.506-.291-1.249a.3.3,0,1,1,.526-.269c.476.928.54,1.557.2,1.924a1.035,1.035,0,0,1-.78.277" transform="translate(-5.43 -14.905)" fill="#2e2427"/>
        <path id="Path_1077" data-name="Path 1077" d="M21.182,68.359a.958.958,0,1,1-1.177-.67.958.958,0,0,1,1.177.67" transform="translate(-4.096 -14.357)" fill="#2e2427"/>
        <path id="Path_1078" data-name="Path 1078" d="M26.23,63.462a.958.958,0,1,1-1.177-.67.958.958,0,0,1,1.177.67" transform="translate(-5.167 -13.318)" fill="#2e2427"/>
        <path id="Path_1079" data-name="Path 1079" d="M57.524,102.443a.3.3,0,0,1-.265-.163c-4.622-9.242-11.031-12.434-11.1-12.465a.3.3,0,1,1,.259-.532c.065.032,6.654,3.313,11.365,12.732a.3.3,0,0,1-.265.428" transform="translate(-9.761 -18.94)" fill="#2e2427"/>
        <path id="Path_1080" data-name="Path 1080" d="M19.277,119.711a.292.292,0,0,1-.243-.128,34.921,34.921,0,0,1-5.506-15.628.3.3,0,0,1,.277-.313.293.293,0,0,1,.314.277,34.3,34.3,0,0,0,5.4,15.33.3.3,0,0,1-.076.411.292.292,0,0,1-.167.052" transform="translate(-2.871 -21.994)" fill="#2e2427"/>
        <path id="Path_1083" data-name="Path 1083" d="M161.453,87.947c-15.741,0-30.341-7.329-39.055-19.606a41.484,41.484,0,0,1-6.941-33.017,43.676,43.676,0,0,1,19.98-27.95A48.892,48.892,0,0,1,161.377,0c15.741,0,30.341,7.33,39.055,19.606a41.487,41.487,0,0,1,6.941,33.017,43.676,43.676,0,0,1-19.98,27.95,48.894,48.894,0,0,1-25.94,7.374m-.076-77.964a37.774,37.774,0,0,0-20.041,5.7,33.757,33.757,0,0,0-15.444,21.6,32.069,32.069,0,0,0,5.365,25.521,36.887,36.887,0,0,0,30.2,15.156,37.774,37.774,0,0,0,20.041-5.7,33.76,33.76,0,0,0,15.444-21.6,32.069,32.069,0,0,0-5.365-25.521,36.887,36.887,0,0,0-30.2-15.156" transform="translate(-38.398 5.81)" fill="#f1f1f1"/>
      </g>
    </g>
    <path id="Subtraction_1" data-name="Subtraction 1" d="M-2319.159,61.061h-17.3a7.381,7.381,0,0,1,1.676-.851l1.509-10.19-.251-.035.107-.566.134-.03,1.036.117-.96-4.522-.316.047-.232-.572,1.51-.258-.962-4.531-.316.047-.232-.572,1.51-.258-.961-4.532-.317.047-.232-.571,1.51-.258-.01-.048-.952-4.485-.316.047-.232-.571,1.51-.258-.01-.047-.952-4.485-.316.046-.232-.572,1.51-.258-.01-.047-.952-4.484-.316.046-.232-.571,1.51-.258-.962-4.531-.316.046-.232-.571,3.454-.591.844-.46-.126-2.81-.811-1.3,1.311-.593v-1.7h.517V0h.773V5.116h.518V6.707l1.248.387-.561,1.2.062,3.227,1.019.567,3.9.417-.039.5-.265-.022-.645,4.731.948.1-.039.5-.265-.022-.645,4.73.948.1-.039.5-.265-.021-.645,4.73.948.1-.039.5-.265-.022-.645,4.731.948.1-.039.5-.265-.022-.645,4.731.948.1-.039.5-.265-.022-.645,4.731.948.1-.039.5-.265-.022-.619,4.54,1.223-.114.107.655-.384.039,1.3,10.439a6.545,6.545,0,0,1,1.126.626Z" transform="translate(7436.444 6315.407)" fill="#159494" stroke="rgba(0,0,0,0)" stroke-miterlimit="10" stroke-width="1"/>
    <rect id="Rectangle_375" data-name="Rectangle 375" width="242" height="237" transform="translate(4956 6289)" fill="none"/>
  </g>
</svg>
