<svg xmlns="http://www.w3.org/2000/svg" width="11" height="10.754" viewBox="0 0 11 10.754">
  <g id="logout" transform="translate(0 -1.374)">
    <path id="Path_1" data-name="Path 1" d="M7.668,3.766V1.912a.538.538,0,0,0-.535-.538H.535A.538.538,0,0,0,0,1.912v7.6a.548.548,0,0,0,.285.475L4.351,12.1a.27.27,0,0,0,.392-.242V9.8H7.133a.538.538,0,0,0,.535-.538V6.32H6.6V8.452a.263.263,0,0,1-.267.269H4.752V4.16a.548.548,0,0,0-.285-.475l-2.4-1.236H6.33a.263.263,0,0,1,.267.269V3.775h1.07Z" fill="#345f94"/>
    <path id="Path_2" data-name="Path 2" d="M64.915,16.51l1.767,1.767a.542.542,0,0,1,0,.788l-1.767,1.767a.553.553,0,0,1-.8.009.578.578,0,0,1,.018-.8l.8-.788h-3.09a.536.536,0,0,1-.408-.181.615.615,0,0,1,.136-.933.581.581,0,0,1,.272-.072h3.09s-.788-.788-.8-.788a.548.548,0,1,1,.779-.77Z" transform="translate(-55.852 -13.605)" fill="#345f94"/>
  </g>
</svg>
