<svg xmlns="http://www.w3.org/2000/svg" width="179.9" height="972.488" viewBox="0 0 179.9 972.488">
  <path id="words-why" d="M83.268,0H120.79l20.046-179.9H116.164L101.515-37.008,87.38-179.9H60.138L46.517-38.036,31.354-179.9H3.855L23.9,0H62.708l10.28-95.861Zm99.973-77.1h32.125V0H244.15V-179.9H215.366v77.1H183.241v-77.1h-28.27V0h28.27ZM291.181,0h28.27V-59.624L355.174-179.9H328.189L306.6-97.917,285.013-179.9H255.458L291.181-59.624ZM398.093-154.2h29.555V0h28.27V-154.2h29.555v-25.7h-87.38Zm152.658-25.7H509.374L480.59,0h25.957l4.883-32.639h34.7L551.008,0h28.527Zm-22.1,31.868L542.27-57.054H515.028ZM592.642,0h28.27V-179.9h-28.27ZM714.46,0h37.522l20.046-179.9H747.356L732.707-37.008,718.572-179.9H691.33L677.709-38.036,662.546-179.9h-27.5L655.093,0H693.9l10.28-95.861ZM845.016-179.9H803.639L774.855,0h25.957L805.7-32.639h34.7L845.273,0H873.8Zm-22.1,31.868,13.621,90.978H809.293ZM947.3,0h29.041V-179.9H951.157V-72.217L922.116-179.9H886.65V0h25.443V-130.3Z" transform="translate(179.9 976.343) rotate(-90)" fill="#ccc" opacity="0.26"/>
</svg>
