<svg xmlns="http://www.w3.org/2000/svg" xmlns:xlink="http://www.w3.org/1999/xlink" width="1075" height="228" viewBox="0 0 1075 228">
  <defs>
    <clipPath id="clip-path">
      <rect id="Rectangle_307" data-name="Rectangle 307" width="124.629" height="228" fill="#ccc"/>
    </clipPath>
  </defs>
  <g id="word-most" transform="translate(-10306 1621)">
    <g id="word-most-2" data-name="word-most" transform="translate(9881.977 -3264.44)">
      <path id="Path_1418" data-name="Path 1418" d="M49.362-179.9H10.023V.262H34.706v-127.4L55.79.262H82.533l19.541-129.2V.262h26.74V-179.9H89.472L70.188-51.984ZM175.348-138.46c0-12.869,5.657-17.759,14.656-17.759s14.656,4.89,14.656,17.759v97.286c0,12.869-5.657,17.759-14.656,17.759s-14.656-4.89-14.656-17.759ZM147.062-42.976c0,28.825,15.17,45.3,42.938,45.3s42.938-16.472,42.938-45.3v-93.683c0-28.825-15.17-45.3-42.938-45.3s-42.938,16.472-42.938,45.3Zm100.532-93.683c0,51.474,55.28,58.423,55.28,95.484,0,12.869-5.657,17.5-14.656,17.5s-14.656-4.633-14.656-17.5V-54.043H246.826v11.067c0,28.825,14.4,45.3,42.167,45.3s42.167-16.472,42.167-45.3c0-51.474-55.28-58.423-55.28-95.484,0-12.869,5.142-17.759,14.141-17.759s14.141,4.89,14.141,17.759V-131H330.9v-5.662c0-28.825-14.141-45.3-41.653-45.3s-41.653,16.472-41.653,45.3Zm91.541-17.5H368.7V.262h28.283V-154.16h29.568V-179.9H339.135ZM478.745.262h74.821V-25.475H507.023V-179.9H478.741Zm87.162,0h28.283V-179.9H565.907ZM635.838-179.9H607.3L635.071.262h42.167L705.006-179.9H679.038L657.44-32.939Zm138.585,0H733.032L704.235.262H730.2l4.885-32.686H769.8L774.685.262h28.54Zm-22.11,31.914L765.94-56.874H738.688Zm106.7-31.914H816.337V.262h44.481c28.283,0,42.938-14.927,42.938-42.723v-14.67c0-19.045-5.914-32.686-21.083-38.606,12.6-5.92,18.255-17.759,18.255-36.289v-6.434C900.928-166.256,888.33-179.9,859.018-179.9Zm-1.8,99.087c12.856,0,18.255,5.147,18.255,21.876v15.7c0,13.383-5.142,17.759-14.656,17.759h-16.2V-80.81Zm1.028-73.35c10.028,0,14.4,5.662,14.4,18.527V-125.6c0,14.413-6.428,19.045-16.97,19.045H844.62V-154.16ZM920.726.262h74.817V-25.475H949.009V-179.9H920.726ZM1036.171-154.16h48.852V-179.9h-77.135V.262h77.135V-25.475h-48.852V-78.236H1075v-25.737h-38.824Z" transform="translate(414 1847.396)" fill="#ccc" opacity="0.26"/>
      <g id="Group_656" data-name="Group 656" transform="translate(1068.328 1643.44)" opacity="0.88">
        <g id="Group_655" data-name="Group 655" clip-path="url(#clip-path)">
          <path id="Path_948" data-name="Path 948" d="M119.774,21.958c2.805-.7,4.207-2.632,1.754-4.211s-1.928-.878-4.032-5.265-6.134-.175-8.414-1.053-5.958-3.86-8.939-5.707S101.37-.332,94.358.015,83.492,6.691,83.141,8.971s-3.156,2.457-3.156,2.457a22.816,22.816,0,0,0-6.424,1.112c3.971,2.749,8.285,5.56,9.144,10.034-.066,0-.12.187-.116.234-.037.041-.076.081-.115.119-8.806.16.589,6.879,1.543,9.151.6,1.424.588,10.018,3.831,10.88,6.023,1.6,6.477-6.574,10.8-10.068,2.069-1.671,11.473-6.375,13.906-6.924a10.775,10.775,0,0,1,1.456-.21,11.642,11.642,0,0,1,5.762-3.8" transform="translate(1.836 0)" fill="#e2e2e2"/>
          <path id="Path_949" data-name="Path 949" d="M77.607,42.067c-.019-.035-.028-.063-.046-.1a.388.388,0,0,0,.046.1" transform="translate(1.936 1.098)" fill="#ccc"/>
          <path id="Path_950" data-name="Path 950" d="M66.167,29.093c2.044,1.4,1.936,3.763,3.857,4.72,2.724,1.357,4.423.289,6.426,3.793,1.126,1.967.5,3.026,1.591,5.14,0-.091,2.512,3.929,3.9,5.038,3.663,2.933,4.467-1.522,5.9-5.317-2.85-1.434-2.871-9.343-3.441-10.71-.954-2.27-10.349-8.99-1.543-9.15.039-.038.078-.078.115-.12,0-.047.049-.229.116-.234-.859-4.472-5.173-7.284-9.144-10.033a46.567,46.567,0,0,0-6.723,2.572,23.968,23.968,0,0,0-8.881,7.231,31.838,31.838,0,0,0,2.133,3.04c2.366,2.75,2.833,2.062,5.7,4.03" transform="translate(1.456 0.32)" fill="#d8d8d8"/>
          <path id="Path_951" data-name="Path 951" d="M58.094,43.826c1.257,1.316,4.387,1.445,5.287,3.475,1.05,2.365-2.388,3.159-.288,5.652.892,1.058,5.473.52,6.9,1.017,4.815,1.676,4.949,5.975,9.607,3.272-.548.317,4.535-5.306,4.465-5.148.528-1.2.1-2.413-.127-3.641a4.046,4.046,0,0,1-1.774-.921c-1.387-1.11-3.9-5.129-3.9-5.039.017.035.027.064.046.1-.019-.035-.029-.064-.046-.1-1.092-2.114-.464-3.173-1.591-5.14-2-3.5-3.7-2.436-6.428-3.793-1.921-.956-1.812-3.317-3.856-4.72-2.864-1.967-3.331-1.279-5.7-4.03a31.838,31.838,0,0,1-2.133-3.04,43.606,43.606,0,0,0-5.141,9.091,26.155,26.155,0,0,1-4.176,6.493c2.151.279,4.548.335,6.513,1.844,1.141.874,1,3.225,2.335,4.619" transform="translate(1.229 0.569)" fill="#dcdcdc"/>
          <path id="Path_952" data-name="Path 952" d="M112.988,43.588c-2.98-4.387-1.577-9.477-1.052-14.038a8.6,8.6,0,0,1,1.949-4.451,10.775,10.775,0,0,0-1.456.21c-2.432.549-11.836,5.255-13.906,6.924C94.2,35.727,93.744,43.9,87.723,42.3a2.186,2.186,0,0,1-.389-.17c-1.164,3.088-1.913,6.608-4.124,6.239.223,1.228.656,2.444.127,3.641.072-.161-5.012,5.466-4.464,5.148-.079.046-.148.074-.224.116-.141,1.677.317,2.9,2.667,3.979,1.691.772,4.571.608,6.314,1.168,2.963.953,2.734,2.2,6.46,1.9,3.376-.269,2.727-2.064,6.306-.968,2.139.656,3.443,2.5,5.25,3.5,1.377-2.738,2.053-5,1.911-7.128-.175-2.632,3.682-3.86,5.434-6.493s2.98-5.265,0-9.652" transform="translate(1.962 0.656)" fill="#d8d8d8"/>
          <path id="Path_953" data-name="Path 953" d="M39.523,62.374c4.175,3.865,6.041,8.376,12.033,5.24,3.273-1.711,2.061-2.941,5.725-3.3,1-.1,2.3,1.958,3.86,1.875,1.087-.057,2.046-1.325,3.035-1.7,3.417-1.3,10.6-3.353,11.941-7.066-1.591-.754-2.78-2.8-5.774-3.846-1.424-.5-6,.041-6.9-1.017-2.1-2.493,1.338-3.288.288-5.652-.9-2.029-4.03-2.16-5.287-3.475-1.333-1.395-1.2-3.745-2.335-4.619C54.148,37.3,51.752,37.239,49.6,36.96A32.358,32.358,0,0,1,45.362,41c-2.629,2.111-5.433,4.915-5.784,7.017-.32,1.922-2.25,4.59-4.449,8.51.643,2.022,1.935,3.573,4.394,5.85" transform="translate(0.877 0.967)" fill="#d8d8d8"/>
          <path id="Path_954" data-name="Path 954" d="M35.078,82.676c2.221,2.838-.549,3.479,3.623,3.883,2.673.258,4.913-2.046,6.578-3.649,3.064-2.95,2.045-4.127,6.658-4.914,3.31-.565,4.527.275,7.661-1.291,3.425-1.713,7.372-5.571,11.588-6.207,2.481-.372,5.213,1.982,6.343,1.881,3.069-.278,1.409-.787,3.684-2.927,3.286-3.091,4.545-5.166,4.746-8.33a11.444,11.444,0,0,1-3.321-.684c-2.35-1.072-2.807-2.3-2.667-3.979-1.631.893-2.691.888-3.615.449-1.338,3.714-8.524,5.762-11.941,7.067-.989.377-1.947,1.644-3.035,1.7-1.563.084-2.865-1.973-3.86-1.874-3.664.366-2.453,1.6-5.725,3.3-5.993,3.135-7.858-1.375-12.033-5.24-2.459-2.277-3.751-3.828-4.394-5.85-.21.374-.42.745-.634,1.144C32.28,61.732,28.6,64.009,27.022,68.4a28.032,28.032,0,0,1-1.485,3.435c.539.721,1.092,1.459,1.716,2.185,2.5,2.9,5.609,5.824,7.826,8.658" transform="translate(0.637 1.465)" fill="#ddd"/>
          <path id="Path_955" data-name="Path 955" d="M22.01,97.122c5.575-.177,11.012,2.293,16.481,2.088l.117-.116c-.452-3.059-2.529-4.633-2.576-7.789-.03-1.964.731-3.655,1.174-5.481-1.277-.474-.014-1.352-1.735-3.549-2.217-2.834-5.329-5.757-7.826-8.657-.624-.727-1.176-1.466-1.716-2.186a50.615,50.615,0,0,1-4.829,7.1c-2.715,3.624-6.86,12.185-11.314,19.536,3.981.121,7.835-.8,12.22-.941" transform="translate(0.244 1.868)" fill="#d8d8d8"/>
          <path id="Path_956" data-name="Path 956" d="M22.285,110.891c3.475-.795,4.41.2,7.806-1.9a49.054,49.054,0,0,0,5.751-4.243c2.123-2.119,4.128-4.19,2.861-6.479.011.058.029.11.038.168q-.06.057-.117.117c-5.47.2-10.907-2.267-16.483-2.089-4.385.14-8.238,1.063-12.22.942q-1.081,1.8-2.182,3.456c-4.577,6.876-3.178,12.685-2.508,16.969,6.377.25,10.732-5.492,17.054-6.939" transform="translate(0.112 2.523)" fill="#d4d4d4"/>
          <path id="Path_957" data-name="Path 957" d="M77.727,71.973c-.131.015-.265.031-.418.044-1.131.1-3.862-2.254-6.343-1.881-4.217.632-8.163,4.49-11.588,6.207-3.132,1.566-4.35.727-7.661,1.291-4.613.786-3.594,1.963-6.657,4.912-1.666,1.6-3.906,3.9-6.579,3.649a8.132,8.132,0,0,1-1.888-.332c-.443,1.825-1.2,3.517-1.174,5.48.047,3.1,2.036,4.678,2.539,7.621,1.267,2.289-.738,4.359-2.861,6.479-.079.078-.194.177-.3.27-.452,1.581-.678,3.2.059,4.233,2.277,3.183,6.671-.724,9.819.878,5.09,2.59.8,6.946,7.122,9.366,8.743,3.343,22.367-6.045,21.6-13.785-.3-3-2.342-5.424-1.816-8.071.477-2.409,3-4.28,3.362-7.826.283-2.812-.294-5.815.928-8.2,1.192-2.327,3.857-1.969,4.217-5.03.156-1.327-1.519-4.019-2.363-5.3" transform="translate(0.858 1.834)" fill="#e2e2e2"/>
          <path id="Path_958" data-name="Path 958" d="M100.85,62.422c-3.578-1.1-2.928.7-6.306.968-3.727.3-3.5-.952-6.46-1.9A16.005,16.005,0,0,0,85.091,61c-.2,3.163-1.46,5.238-4.746,8.33-2.161,2.032-.781,2.594-3.266,2.883.844,1.277,2.518,3.97,2.362,5.3-.359,3.061-3.025,2.7-4.216,5.031-1.225,2.388-.644,5.391-.925,8.2-.358,3.546-2.886,5.419-3.363,7.826-.525,2.647,1.52,5.076,1.817,8.071.525,5.287-5.664,11.339-12.427,13.581.515,2.8.1,6.327.212,8.39.384,7.194,1.157,4.883,6.982,8.8,4.088,2.75,6.506,9.861,10.724,4.014,3.183-4.411,2.777-12.647,5.317-17a4.558,4.558,0,0,1,6.192-1.8c1.162-5.563,4.745-17.45,5.988-22.587,1.4-5.792,2.277-12.114,2.98-15.092s-.352-3.861,1.577-7.019,2.629-6.319,4.732-10c.4-.7.747-1.358,1.069-2-1.807-1-3.111-2.845-5.25-3.5" transform="translate(1.506 1.596)" fill="#ddd"/>
          <path id="Path_959" data-name="Path 959" d="M8.874,131.006c3.258.012,6.693-6.223,9.466-7.409,4.275-1.822,10.7-.317,11.809,4.592.654,2.894-2.463,4.605-.123,7.048,1.091,1.137,5.505,1.283,6.778.588,2.347-1.283,1.308-3.836,2.919-5.179,1.634-1.363,4.566-1.3,6.457-2.572a15.022,15.022,0,0,0,6.414-8.793l-.022-.007c-6.327-2.42-2.032-6.775-7.121-9.366-3.149-1.6-7.542,2.3-9.82-.877-.737-1.031-.511-2.651-.059-4.234a54.254,54.254,0,0,1-5.455,3.975c-3.4,2.1-4.331,1.1-7.806,1.9-6.322,1.447-10.677,7.188-17.054,6.938.1.636.184,1.241.23,1.809.246,3.078-.64,5.046-1.971,7.635,1.677,1.86,3.2,3.947,5.36,3.953" transform="translate(0.088 2.741)" fill="#d8d8d8"/>
          <path id="Path_960" data-name="Path 960" d="M11.214,149.4c1.113,4.769-3.251,7.066,4.169,7.7,5.475.463,9.257-2.764,9.372-8.167,5.163.846,7.406-4.489,9.448-7.045,2.436-3.05,2.767-4.144,2.3-6.381-1.592.519-5.388.322-6.394-.727-2.34-2.441.777-4.154.124-7.048-1.109-4.906-7.534-6.414-11.809-4.592-2.774,1.184-6.208,7.42-9.467,7.409-2.163-.006-3.683-2.092-5.358-3.953-.567,1.1-1.2,2.3-1.887,3.772-2.277,4.914-1.753,9.827-1.4,15.444,0,.035.01.069.012.106,3.9-1.194,8.968-4.731,10.887,3.489" transform="translate(0 3.201)" fill="#e2e2e2"/>
          <path id="Path_961" data-name="Path 961" d="M11.206,148.85C9.287,140.63,4.22,144.167.319,145.361c.42,5.572,6.485,10.612,8.4,13.407.031.045.056.1.086.142a28.7,28.7,0,0,1,2.419-3.632c-.909-1.227.714-3.289-.018-6.427" transform="translate(0.008 3.755)" fill="#ddd"/>
          <path id="Path_962" data-name="Path 962" d="M23.816,167.725c1.157-3.811,1.055-4.558,4.329-6.317,1.128-.607,2.908.343,4.067-.091,1.055-.4,1.212-2.431,1.747-2.6,4.357-1.392,7.993,2.443,11.482,1.875,2.494-.406,3.389-1.989,3.217-3.2.1-1.9-.629-4.3.048-6.407.71-2.2,2.871-3.385,3.657-5.492.853-2.286-.076-5.115.757-7.367,1.532-4.141,5.931-5.4,9.052-7.6a26.16,26.16,0,0,1-.344-3.429c-.11-2.063.3-5.592-.212-8.391a13.791,13.791,0,0,1-9.15.211,15.016,15.016,0,0,1-6.414,8.793c-1.891,1.27-4.823,1.209-6.457,2.573-1.611,1.342-.572,3.9-2.92,5.179a2.628,2.628,0,0,1-.384.137c.465,2.238.134,3.332-2.3,6.381-2.043,2.556-5.65,8.419-9.448,7.045-.116,5.406-3.9,8.63-9.373,8.167-2.536-.216-3.678-.631-4.149-1.268A28.847,28.847,0,0,0,8.6,159.551c1.844,2.853,2.04,8.493,3.419,10.737,1.4,2.282,2.98,3.86,3.506,7.2s2.98,5.791,5.784,7.547c.215.133.419.254.618.369a17.372,17.372,0,0,0,1.4-2.7c2.1-5.506-1.272-9.181.489-14.977" transform="translate(0.215 3.105)" fill="#dcdcdc"/>
          <path id="Path_963" data-name="Path 963" d="M45.211,188.359c.215-2.846-2.372-4.425-2.584-6.879-.172-1.99,1.156-6.279,2.02-8.216.911-2.04.64-3.119,2.425-4.628,1.242-1.049,3.687.572,4.7-.634,2.631-3.122-.307-8.424-3.443-11.6-.08,1.57-.724,2.793-3.217,3.2-3.489.568-7.124-3.266-11.481-1.876-.536.171-.693,2.2-1.748,2.6-1.159.435-2.939-.516-4.067.09-3.275,1.759-3.172,2.5-4.329,6.318-1.761,5.8,1.612,9.472-.488,14.976a17.484,17.484,0,0,1-1.4,2.7,26.337,26.337,0,0,1,8.322,6.123c4.908,4.915,9.466,12.459,9.991,17.2s-1.227,13.161,0,14.217,4.207-2.8,5.785-1.4,3.681,6.141,3.856,1.052,2.278-6.494,2.98-8.773-1.4-3.334-1.227-8.423c.047-1.36.12-2.957.247-4.644-4.983-4.288-10.8-10.025-6.345-11.413" transform="translate(0.539 4.091)" fill="#ddd"/>
          <path id="Path_964" data-name="Path 964" d="M84.017,122.87c-2.541,4.353-2.135,12.588-5.316,17-4.219,5.849-6.638-1.262-10.724-4.014-4.591-3.088-6.039-2.325-6.639-5.373-3.121,2.2-7.52,3.46-9.052,7.6-.833,2.252.094,5.082-.757,7.367-.786,2.1-2.947,3.291-3.658,5.492-.677,2.1.048,4.505-.047,6.407,3.135,3.174,6.074,8.476,3.443,11.6-1.017,1.2-3.461-.414-4.7.635-1.785,1.509-1.514,2.587-2.425,4.627-.864,1.936-2.192,6.225-2.02,8.216.212,2.456,2.8,4.033,2.584,6.879-4.454,1.384,1.36,7.12,6.345,11.413.347-4.633,1.109-9.947,2.908-12.907,2.454-4.036,2.454-7.193,4.206-10.88s5.61-7.371,8.589-9.3,5.434-1.756,5.96-4.036.174-2.983,4.382-8.424,6.135-10.881,7.362-13.161-.175-5.089,1.226-8.774,3.682-6.142,4.207-10.354c.059-.477.174-1.1.323-1.8a4.56,4.56,0,0,0-6.192,1.8" transform="translate(1.051 3.152)" fill="#e2e2e2"/>
        </g>
      </g>
    </g>
    <rect id="Rectangle_377" data-name="Rectangle 377" width="1075" height="228" transform="translate(10306 -1621)" fill="none" opacity="0.78"/>
  </g>
</svg>
