<svg xmlns="http://www.w3.org/2000/svg" width="1075" height="228" viewBox="0 0 1075 228">
  <g id="word-easy" transform="translate(-8055 -5855)">
    <path id="word-easy-2" data-name="word-easy" d="M38.55-154.2H87.38v-25.7H10.28V0h77.1V-25.7H38.55V-78.385H77.357v-25.7H38.55Zm129.014-25.7H126.187L97.4,0h25.96l4.883-32.639h34.695L167.821,0h28.527Zm-22.1,31.868,13.621,90.978H131.841Zm60.4,11.308c0,51.4,55.255,58.339,55.255,95.347,0,12.85-5.654,17.476-14.649,17.476s-14.649-4.626-14.649-17.476v-12.85h-26.73v11.051c0,28.784,14.392,45.232,42.148,45.232s42.148-16.448,42.148-45.232c0-51.4-55.255-58.339-55.255-95.347,0-12.85,5.14-17.733,14.135-17.733s14.135,4.883,14.135,17.733v7.453H289.13v-5.654c0-28.784-14.135-45.232-41.634-45.232s-41.634,16.448-41.634,45.232ZM330.245,0h28.27V-59.624L394.238-179.9H367.253L345.665-97.917,324.077-179.9H294.522L330.245-59.624ZM437.157-154.2h29.555V0h28.27V-154.2h29.555v-25.7h-87.38ZM562.83-138.523c0-12.85,5.654-17.733,14.649-17.733s14.649,4.883,14.649,17.733v97.146c0,12.85-5.654,17.733-14.649,17.733S562.83-28.527,562.83-41.377ZM534.56-43.176c0,28.784,15.163,45.232,42.919,45.232S620.4-14.392,620.4-43.176v-93.548c0-28.784-15.163-45.232-42.919-45.232s-42.919,16.448-42.919,45.232ZM720.885-74.53h12.85v33.153c0,12.85-5.654,17.476-14.649,17.476s-14.649-4.626-14.649-17.476v-97.146c0-12.85,5.654-17.733,14.649-17.733s14.649,4.883,14.649,17.733v19.275h26.728v-17.476c0-28.784-14.392-45.232-42.148-45.232s-42.148,16.448-42.148,45.232v93.548c0,28.784,14.392,45.232,42.148,45.232s42.148-16.448,42.148-45.232V-100.23H720.885Zm83.782-63.993c0-12.85,5.654-17.733,14.649-17.733s14.649,4.883,14.649,17.733v97.146c0,12.85-5.654,17.733-14.649,17.733s-14.649-4.883-14.649-17.733ZM776.4-43.176c0,28.784,15.163,45.232,42.919,45.232s42.919-16.448,42.919-45.232v-93.548c0-28.784-15.163-45.232-42.919-45.232S776.4-165.508,776.4-136.724Z" transform="translate(8155.72 6058.956)" fill="#fff" opacity="0.08"/>
    <rect id="Rectangle_379" data-name="Rectangle 379" width="1075" height="228" transform="translate(8055 5855)" fill="none" opacity="0.78"/>
  </g>
</svg>
