<svg xmlns="http://www.w3.org/2000/svg" width="1075" height="228" viewBox="0 0 1075 228">
  <g id="word-story" transform="translate(-8055 -6807)">
    <path id="word-story-2" data-name="word-story" d="M36.233-138.586c0-12.831,5.653-17.707,14.647-17.707s14.647,4.876,14.647,17.707v97c0,12.831-5.653,17.707-14.647,17.707S36.233-28.751,36.233-41.582ZM7.967-43.379c0,28.742,15.161,45.166,42.913,45.166S93.794-14.637,93.794-43.379V-136.79c0-28.742-15.161-45.166-42.913-45.166S7.967-165.532,7.967-136.79ZM110.753-179.9V-43.122c0,28.742,14.39,45.166,42.142,45.166s42.142-16.424,42.142-45.166V-179.9H168.314V-41.326c0,12.831-5.653,17.45-14.647,17.45s-14.647-4.619-14.647-17.45V-179.9ZM302.193-.266c-2.827-6.672-3.084-13.088-3.084-21.813V-49.793c0-18.734-4.625-32.335-18.759-38.237,12.591-5.9,18.5-17.964,18.5-36.441v-14.114c0-27.715-12.591-41.317-41.885-41.317H214.311V-.266h28.266V-73.4h9.765c12.848,0,18.5,6.159,18.5,22.84v28.231c0,14.628,1.028,17.45,2.57,22.068ZM256.2-154.241c10.022,0,14.39,5.646,14.39,18.473v17.707c0,14.371-6.424,18.99-16.96,18.99H242.577v-55.17Zm97.647,17.45c0,51.325,55.248,58.254,55.248,95.208,0,12.831-5.653,17.45-14.647,17.45S379.8-28.751,379.8-41.582V-54.413H353.072v11.035c0,28.742,14.39,45.166,42.142,45.166s42.142-16.424,42.142-45.166c0-51.325-55.248-58.254-55.248-95.208,0-12.831,5.139-17.707,14.133-17.707s14.133,4.876,14.133,17.707v7.442H437.1v-5.646c0-28.742-14.133-45.166-41.628-45.166s-41.628,16.424-41.628,45.166Zm91.477-17.45h29.551V-.266H503.14V-154.241h29.551V-179.9H445.323Zm125.656,15.654c0-12.831,5.653-17.707,14.647-17.707s14.647,4.876,14.647,17.707v97c0,12.831-5.653,17.707-14.647,17.707s-14.647-4.876-14.647-17.707ZM542.713-43.379c0,28.742,15.161,45.166,42.913,45.166S628.54-14.637,628.54-43.379V-136.79c0-28.742-15.161-45.166-42.913-45.166s-42.913,16.424-42.913,45.166ZM734.667-.266c-2.827-6.672-3.084-13.088-3.084-21.813V-49.793c0-18.734-4.625-32.335-18.758-38.237,12.591-5.9,18.5-17.964,18.5-36.441v-14.114c0-27.715-12.591-41.317-41.885-41.317H646.784V-.266h28.266V-73.4h9.76c12.848,0,18.5,6.159,18.5,22.84v28.231c0,14.628,1.028,17.45,2.57,22.068ZM688.673-154.241c10.022,0,14.39,5.646,14.39,18.473v17.707c0,14.371-6.424,18.99-16.96,18.99H675.051v-55.17ZM773.982-.266h28.266V-59.8l35.718-120.1H810.985L789.4-98.04,767.815-179.9H738.264L773.982-59.8Z" transform="translate(8169.033 7010.956)" fill="#fff" opacity="0.18"/>
    <rect id="Rectangle_378" data-name="Rectangle 378" width="1075" height="228" transform="translate(8055 6807)" fill="none" opacity="0.78"/>
  </g>
</svg>
