<svg xmlns="http://www.w3.org/2000/svg" width="1075" height="228" viewBox="0 0 1075 228">
  <g id="word-hot" transform="translate(-8055 -6331)">
    <path id="word-hot-2" data-name="word-hot" d="M38.55-77.1H70.675V0H99.459V-179.9H70.675v77.1H38.55v-77.1H10.28V0H38.55Zm107.426-61.423c0-12.85,5.654-17.733,14.649-17.733s14.649,4.883,14.649,17.733v97.146c0,12.85-5.654,17.733-14.649,17.733s-14.649-4.883-14.649-17.733Zm-28.27,95.347c0,28.784,15.163,45.232,42.919,45.232s42.919-16.448,42.919-45.232v-93.548c0-28.784-15.163-45.232-42.919-45.232s-42.919,16.448-42.919,45.232ZM213.567-154.2h29.555V0h28.27V-154.2h29.555v-25.7h-87.38ZM353.118,0h28.27V-179.9h-28.27Zm40.606-154.2h29.555V0h28.27V-154.2H481.1v-25.7H393.72Zm127.986,0h48.83v-25.7h-77.1V0h77.1V-25.7H521.71V-78.385h38.807v-25.7H521.71Zm105.37-25.7H587.759V0h24.672V-127.215L633.5,0h26.728L679.76-129.014V0h26.728V-179.9H667.172L647.9-52.171Z" transform="translate(8233.72 6534.956)" fill="#ccc" opacity="0.26"/>
    <rect id="Rectangle_376" data-name="Rectangle 376" width="1075" height="228" transform="translate(8055 6331)" fill="none" opacity="0.78"/>
  </g>
</svg>
